font.ufo
<glyph name="quotedbl" format="1">
  <advance width="336"/>
  <unicode hex="0022"/>
  <outline>
    <contour>
      <point x="215" y="427" type="curve"/>
      <point x="242" y="431" type="line"/>
      <point x="242" y="431"/>
      <point x="275" y="596"/>
      <point x="275" y="612" type="curve" smooth="yes"/>
      <point x="275" y="628"/>
      <point x="266" y="645"/>
      <point x="240" y="645" type="curve" smooth="yes"/>
      <point x="210" y="645"/>
      <point x="189" y="617"/>
      <point x="189" y="595" type="curve" smooth="yes"/>
      <point x="189" y="586"/>
      <point x="215" y="427"/>
    </contour>
    <contour>
      <point x="89" y="426" type="curve"/>
      <point x="116" y="430" type="line"/>
      <point x="116" y="430"/>
      <point x="149" y="595"/>
      <point x="149" y="611" type="curve" smooth="yes"/>
      <point x="149" y="627"/>
      <point x="140" y="644"/>
      <point x="114" y="644" type="curve" smooth="yes"/>
      <point x="84" y="644"/>
      <point x="63" y="616"/>
      <point x="63" y="594" type="curve" smooth="yes"/>
      <point x="63" y="585"/>
      <point x="89" y="426"/>
    </contour>
  </outline>
</glyph>
<glyph name="quotesingle" format="1">
  <advance width="190"/>
  <unicode hex="0027"/>
  <outline>
    <contour>
      <point x="79" y="426" type="curve"/>
      <point x="106" y="430" type="line"/>
      <point x="106" y="430"/>
      <point x="139" y="595"/>
      <point x="139" y="611" type="curve" smooth="yes"/>
      <point x="139" y="627"/>
      <point x="130" y="644"/>
      <point x="104" y="644" type="curve" smooth="yes"/>
      <point x="74" y="644"/>
      <point x="53" y="616"/>
      <point x="53" y="594" type="curve" smooth="yes"/>
      <point x="53" y="585"/>
      <point x="79" y="426"/>
    </contour>
  </outline>
</glyph>
<glyph name="parenleft" format="1">
  <advance width="298"/>
  <unicode hex="0028"/>
  <outline>
    <contour>
      <point x="44" y="252" type="curve" smooth="yes"/>
      <point x="44" y="207"/>
      <point x="48" y="-24"/>
      <point x="256" y="-204" type="curve"/>
      <point x="266" y="-202"/>
      <point x="274" y="-195"/>
      <point x="277" y="-187" type="curve"/>
      <point x="244" y="-149"/>
      <point x="127" y="-11"/>
      <point x="127" y="252" type="curve" smooth="yes"/>
      <point x="127" y="515"/>
      <point x="245" y="653"/>
      <point x="277" y="689" type="curve"/>
      <point x="274" y="699"/>
      <point x="267" y="706"/>
      <point x="256" y="707" type="curve"/>
      <point x="137" y="605"/>
      <point x="44" y="438"/>
    </contour>
  </outline>
</glyph>
<glyph name="parenright" format="1">
  <advance width="298"/>
  <unicode hex="0029"/>
  <outline>
    <contour>
      <point x="254" y="252" type="curve" smooth="yes"/>
      <point x="254" y="297"/>
      <point x="250" y="528"/>
      <point x="42" y="708" type="curve"/>
      <point x="32" y="706"/>
      <point x="24" y="699"/>
      <point x="21" y="691" type="curve"/>
      <point x="54" y="653"/>
      <point x="171" y="515"/>
      <point x="171" y="252" type="curve" smooth="yes"/>
      <point x="171" y="-11"/>
      <point x="53" y="-149"/>
      <point x="21" y="-185" type="curve"/>
      <point x="24" y="-195"/>
      <point x="31" y="-202"/>
      <point x="42" y="-203" type="curve"/>
      <point x="161" y="-101"/>
      <point x="254" y="66"/>
    </contour>
  </outline>
</glyph>
<glyph name="asterisk" format="1">
  <advance width="369"/>
  <unicode hex="002A"/>
  <outline>
    <contour>
      <point x="168" y="547" type="curve"/>
      <point x="135" y="510"/>
      <point x="84" y="502"/>
      <point x="84" y="459" type="curve" smooth="yes"/>
      <point x="84" y="444"/>
      <point x="96" y="431"/>
      <point x="113" y="431" type="curve" smooth="yes"/>
      <point x="151" y="431"/>
      <point x="158" y="490"/>
      <point x="183" y="535" type="curve"/>
      <point x="208" y="496"/>
      <point x="215" y="431"/>
      <point x="254" y="431" type="curve" smooth="yes"/>
      <point x="268" y="431"/>
      <point x="283" y="442"/>
      <point x="283" y="460" type="curve" smooth="yes"/>
      <point x="283" y="500"/>
      <point x="234" y="510"/>
      <point x="200" y="547" type="curve"/>
      <point x="218" y="550"/>
      <point x="236" y="551"/>
      <point x="255" y="551" type="curve" smooth="yes"/>
      <point x="289" y="551"/>
      <point x="324" y="558"/>
      <point x="324" y="588" type="curve" smooth="yes"/>
      <point x="324" y="598"/>
      <point x="317" y="618"/>
      <point x="290" y="618" type="curve" smooth="yes"/>
      <point x="257" y="618"/>
      <point x="241" y="586"/>
      <point x="195" y="566" type="curve"/>
      <point x="197" y="596"/>
      <point x="214" y="636"/>
      <point x="214" y="663" type="curve" smooth="yes"/>
      <point x="214" y="687"/>
      <point x="199" y="698"/>
      <point x="181" y="698" type="curve" smooth="yes"/>
      <point x="163" y="698"/>
      <point x="151" y="680"/>
      <point x="151" y="659" type="curve" smooth="yes"/>
      <point x="151" y="633"/>
      <point x="170" y="606"/>
      <point x="174" y="567" type="curve"/>
      <point x="130" y="585"/>
      <point x="112" y="618"/>
      <point x="78" y="618" type="curve" smooth="yes"/>
      <point x="54" y="618"/>
      <point x="45" y="602"/>
      <point x="45" y="588" type="curve" smooth="yes"/>
      <point x="45" y="558"/>
      <point x="77" y="551"/>
      <point x="126" y="551" type="curve" smooth="yes"/>
      <point x="141" y="551"/>
      <point x="155" y="550"/>
    </contour>
  </outline>
</glyph>
<glyph name="plus" format="1">
  <advance width="550"/>
  <unicode hex="002B"/>
  <outline>
    <contour>
      <point x="250" y="435" type="curve" smooth="yes"/>
      <point x="250" y="276" type="line"/>
      <point x="85" y="276" type="line" smooth="yes"/>
      <point x="73" y="276"/>
      <point x="60" y="257"/>
      <point x="60" y="242" type="curve" smooth="yes"/>
      <point x="60" y="234"/>
      <point x="66" y="226"/>
      <point x="75" y="226" type="curve" smooth="yes"/>
      <point x="250" y="226" type="line"/>
      <point x="250" y="56" type="line" smooth="yes"/>
      <point x="250" y="47"/>
      <point x="258" y="41"/>
      <point x="266" y="41" type="curve" smooth="yes"/>
      <point x="281" y="41"/>
      <point x="300" y="54"/>
      <point x="300" y="66" type="curve" smooth="yes"/>
      <point x="300" y="226" type="line"/>
      <point x="463" y="226" type="line" smooth="yes"/>
      <point x="476" y="226"/>
      <point x="490" y="249"/>
      <point x="490" y="259" type="curve" smooth="yes"/>
      <point x="490" y="267"/>
      <point x="486" y="276"/>
      <point x="476" y="276" type="curve" smooth="yes"/>
      <point x="300" y="276" type="line"/>
      <point x="300" y="448" type="line" smooth="yes"/>
      <point x="300" y="458"/>
      <point x="291" y="462"/>
      <point x="283" y="462" type="curve" smooth="yes"/>
      <point x="273" y="462"/>
      <point x="250" y="448"/>
    </contour>
  </outline>
</glyph>
<glyph name="comma" format="1">
  <advance width="220"/>
  <unicode hex="002C"/>
  <outline>
    <contour>
      <point x="104" y="95" type="curve" smooth="yes"/>
      <point x="73" y="95"/>
      <point x="51" y="74"/>
      <point x="51" y="46" type="curve" smooth="yes"/>
      <point x="51" y="15"/>
      <point x="77" y="5"/>
      <point x="95" y="2" type="curve"/>
      <point x="114" y="0"/>
      <point x="131" y="-6"/>
      <point x="131" y="-29" type="curve" smooth="yes"/>
      <point x="131" y="-50"/>
      <point x="95" y="-96"/>
      <point x="43" y="-109" type="curve"/>
      <point x="43" y="-119"/>
      <point x="45" y="-126"/>
      <point x="52" y="-133" type="curve"/>
      <point x="112" y="-122"/>
      <point x="170" y="-74"/>
      <point x="170" y="-4" type="curve" smooth="yes"/>
      <point x="170" y="56"/>
      <point x="144" y="95"/>
    </contour>
  </outline>
</glyph>
<glyph name="hyphen" format="1">
  <advance width="338"/>
  <unicode hex="002D"/>
  <outline>
    <contour>
      <point x="271" y="223" type="line" smooth="yes"/>
      <point x="284" y="223"/>
      <point x="298" y="251"/>
      <point x="298" y="263" type="curve" smooth="yes"/>
      <point x="298" y="273"/>
      <point x="294" y="283"/>
      <point x="284" y="283" type="curve" smooth="yes"/>
      <point x="65" y="283" type="line" smooth="yes"/>
      <point x="53" y="283"/>
      <point x="40" y="260"/>
      <point x="40" y="242" type="curve" smooth="yes"/>
      <point x="40" y="232"/>
      <point x="46" y="223"/>
      <point x="55" y="223" type="curve" smooth="yes"/>
    </contour>
  </outline>
</glyph>
<glyph name="period" format="1">
  <advance width="220"/>
  <unicode hex="002E"/>
  <outline>
    <contour>
      <point x="57" y="43" type="curve" smooth="yes"/>
      <point x="57" y="14"/>
      <point x="81" y="-10"/>
      <point x="110" y="-10" type="curve" smooth="yes"/>
      <point x="139" y="-10"/>
      <point x="163" y="14"/>
      <point x="163" y="43" type="curve" smooth="yes"/>
      <point x="163" y="72"/>
      <point x="139" y="96"/>
      <point x="110" y="96" type="curve" smooth="yes"/>
      <point x="81" y="96"/>
      <point x="57" y="72"/>
    </contour>
  </outline>
</glyph>
<glyph name="slash" format="1">
  <advance width="323"/>
  <unicode hex="002F"/>
  <outline>
    <contour>
      <point x="293" y="646" type="line"/>
      <point x="252" y="646" type="line"/>
      <point x="15" y="-59" type="line"/>
      <point x="56" y="-59" type="line"/>
    </contour>
  </outline>
</glyph>
<glyph name="zero" format="1">
  <advance width="465"/>
  <unicode hex="0030"/>
  <outline>
    <contour>
      <point x="232" y="575" type="curve" smooth="yes"/>
      <point x="249" y="575"/>
      <point x="265" y="569"/>
      <point x="277" y="558" type="curve" smooth="yes"/>
      <point x="308" y="532"/>
      <point x="335" y="456"/>
      <point x="335" y="322" type="curve" smooth="yes"/>
      <point x="335" y="230"/>
      <point x="332" y="167"/>
      <point x="318" y="116" type="curve" smooth="yes"/>
      <point x="296" y="34"/>
      <point x="247" y="25"/>
      <point x="229" y="25" type="curve" smooth="yes"/>
      <point x="136" y="25"/>
      <point x="126" y="196"/>
      <point x="126" y="283" type="curve" smooth="yes"/>
      <point x="126" y="529"/>
      <point x="187" y="575"/>
    </contour>
    <contour>
      <point x="228" y="-10" type="curve" smooth="yes"/>
      <point x="305" y="-10"/>
      <point x="422" y="68"/>
      <point x="422" y="303" type="curve" smooth="yes"/>
      <point x="422" y="402"/>
      <point x="398" y="487"/>
      <point x="354" y="545" type="curve" smooth="yes"/>
      <point x="328" y="580"/>
      <point x="286" y="610"/>
      <point x="232" y="610" type="curve" smooth="yes"/>
      <point x="133" y="610"/>
      <point x="39" y="492"/>
      <point x="39" y="294" type="curve" smooth="yes"/>
      <point x="39" y="187"/>
      <point x="72" y="87"/>
      <point x="127" y="32" type="curve" smooth="yes"/>
      <point x="155" y="4"/>
      <point x="189" y="-10"/>
    </contour>
  </outline>
</glyph>
<glyph name="one" format="1">
  <advance width="465"/>
  <unicode hex="0031"/>
  <outline>
    <contour>
      <point x="288" y="122" type="curve" smooth="yes"/>
      <point x="288" y="469" type="line" smooth="yes"/>
      <point x="288" y="529"/>
      <point x="289" y="590"/>
      <point x="291" y="603" type="curve"/>
      <point x="291" y="608"/>
      <point x="289" y="608"/>
      <point x="285" y="608" type="curve"/>
      <point x="230" y="574"/>
      <point x="177" y="549"/>
      <point x="89" y="508" type="curve"/>
      <point x="91" y="497"/>
      <point x="95" y="487"/>
      <point x="104" y="481" type="curve"/>
      <point x="150" y="500"/>
      <point x="172" y="506"/>
      <point x="191" y="506" type="curve" smooth="yes"/>
      <point x="208" y="506"/>
      <point x="211" y="482"/>
      <point x="211" y="448" type="curve" smooth="yes"/>
      <point x="211" y="122" type="line" smooth="yes"/>
      <point x="211" y="39"/>
      <point x="184" y="34"/>
      <point x="114" y="31" type="curve"/>
      <point x="108" y="25"/>
      <point x="108" y="4"/>
      <point x="114" y="-2" type="curve"/>
      <point x="163" y="-1"/>
      <point x="199" y="0"/>
      <point x="253" y="0" type="curve" smooth="yes"/>
      <point x="301" y="0"/>
      <point x="325" y="-1"/>
      <point x="375" y="-2" type="curve"/>
      <point x="381" y="4"/>
      <point x="381" y="25"/>
      <point x="375" y="31" type="curve"/>
      <point x="305" y="34"/>
      <point x="288" y="39"/>
    </contour>
  </outline>
</glyph>
<glyph name="four" format="1">
  <advance width="465"/>
  <unicode hex="0034"/>
  <outline>
    <contour>
      <point x="271" y="507" type="curve"/>
      <point x="271" y="219" type="line"/>
      <point x="80" y="219" type="line"/>
      <point x="131" y="301"/>
      <point x="202" y="413"/>
    </contour>
    <contour>
      <point x="430" y="219" type="curve" smooth="yes"/>
      <point x="347" y="219" type="line"/>
      <point x="347" y="511" type="line" smooth="yes"/>
      <point x="347" y="561"/>
      <point x="347" y="600"/>
      <point x="349" y="608" type="curve"/>
      <point x="347" y="610" type="line"/>
      <point x="315" y="610" type="line" smooth="yes"/>
      <point x="308" y="610"/>
      <point x="303" y="604"/>
      <point x="299" y="599" type="curve" smooth="yes"/>
      <point x="236" y="522"/>
      <point x="120" y="357"/>
      <point x="28" y="214" type="curve"/>
      <point x="31" y="199"/>
      <point x="37" y="172"/>
      <point x="67" y="172" type="curve" smooth="yes"/>
      <point x="271" y="172" type="line"/>
      <point x="271" y="80" type="line" smooth="yes"/>
      <point x="271" y="34"/>
      <point x="233" y="34"/>
      <point x="190" y="31" type="curve"/>
      <point x="184" y="25"/>
      <point x="184" y="4"/>
      <point x="190" y="-2" type="curve"/>
      <point x="222" y="-1"/>
      <point x="262" y="0"/>
      <point x="308" y="0" type="curve" smooth="yes"/>
      <point x="347" y="0"/>
      <point x="385" y="-1"/>
      <point x="417" y="-2" type="curve"/>
      <point x="423" y="4"/>
      <point x="423" y="25"/>
      <point x="417" y="31" type="curve"/>
      <point x="368" y="35"/>
      <point x="347" y="33"/>
      <point x="347" y="80" type="curve" smooth="yes"/>
      <point x="347" y="172" type="line"/>
      <point x="416" y="172" type="line" smooth="yes"/>
      <point x="430" y="172"/>
      <point x="445" y="191"/>
      <point x="445" y="203" type="curve" smooth="yes"/>
      <point x="445" y="213"/>
      <point x="441" y="219"/>
    </contour>
  </outline>
</glyph>
<glyph name="five" format="1">
  <advance width="465"/>
  <unicode hex="0035"/>
  <outline>
    <contour>
      <point x="319" y="189" type="curve" smooth="yes"/>
      <point x="319" y="94"/>
      <point x="269" y="24"/>
      <point x="209" y="24" type="curve" smooth="yes"/>
      <point x="171" y="24"/>
      <point x="158" y="49"/>
      <point x="143" y="69" type="curve" smooth="yes"/>
      <point x="130" y="86"/>
      <point x="113" y="101"/>
      <point x="92" y="101" type="curve" smooth="yes"/>
      <point x="73" y="101"/>
      <point x="54" y="84"/>
      <point x="54" y="64" type="curve" smooth="yes"/>
      <point x="54" y="23"/>
      <point x="139" y="-11"/>
      <point x="196" y="-11" type="curve" smooth="yes"/>
      <point x="320" y="-11"/>
      <point x="408" y="81"/>
      <point x="408" y="207" type="curve" smooth="yes"/>
      <point x="408" y="304"/>
      <point x="341" y="391"/>
      <point x="229" y="391" type="curve" smooth="yes"/>
      <point x="186" y="391"/>
      <point x="149" y="382"/>
      <point x="131" y="375" type="curve"/>
      <point x="151" y="542" type="line"/>
      <point x="188" y="538"/>
      <point x="220" y="533"/>
      <point x="268" y="533" type="curve" smooth="yes"/>
      <point x="298" y="533"/>
      <point x="332" y="535"/>
      <point x="373" y="539" type="curve"/>
      <point x="389" y="607" type="line"/>
      <point x="382" y="611" type="line"/>
      <point x="325" y="605"/>
      <point x="271" y="600"/>
      <point x="218" y="600" type="curve" smooth="yes"/>
      <point x="181" y="600"/>
      <point x="145" y="602"/>
      <point x="110" y="605" type="curve"/>
      <point x="76" y="317" type="line"/>
      <point x="129" y="337"/>
      <point x="167" y="341"/>
      <point x="203" y="341" type="curve" smooth="yes"/>
      <point x="268" y="341"/>
      <point x="319" y="298"/>
    </contour>
  </outline>
</glyph>
<glyph name="six" format="1">
  <advance width="465"/>
  <unicode hex="0036"/>
  <outline>
    <contour>
      <point x="135" y="307" type="curve"/>
      <point x="168" y="329"/>
      <point x="201" y="330"/>
      <point x="218" y="330" type="curve" smooth="yes"/>
      <point x="316" y="330"/>
      <point x="338" y="234"/>
      <point x="338" y="184" type="curve" smooth="yes"/>
      <point x="338" y="74"/>
      <point x="296" y="24"/>
      <point x="247" y="24" type="curve" smooth="yes"/>
      <point x="184" y="24"/>
      <point x="127" y="58"/>
      <point x="127" y="229" type="curve" smooth="yes"/>
      <point x="127" y="252"/>
      <point x="129" y="278"/>
    </contour>
    <contour>
      <point x="144" y="343" type="curve"/>
      <point x="171" y="434"/>
      <point x="235" y="535"/>
      <point x="368" y="585" type="curve"/>
      <point x="368" y="597"/>
      <point x="364" y="606"/>
      <point x="356" y="611" type="curve"/>
      <point x="255" y="581"/>
      <point x="193" y="539"/>
      <point x="137" y="474" type="curve" smooth="yes"/>
      <point x="75" y="402"/>
      <point x="44" y="311"/>
      <point x="44" y="232" type="curve" smooth="yes"/>
      <point x="44" y="29"/>
      <point x="159" y="-11"/>
      <point x="236" y="-11" type="curve" smooth="yes"/>
      <point x="367" y="-11"/>
      <point x="421" y="116"/>
      <point x="421" y="202" type="curve" smooth="yes"/>
      <point x="421" y="288"/>
      <point x="375" y="365"/>
      <point x="239" y="365" type="curve" smooth="yes"/>
      <point x="213" y="365"/>
      <point x="174" y="357"/>
    </contour>
  </outline>
</glyph>
<glyph name="seven" format="1">
  <advance width="465"/>
  <unicode hex="0037"/>
  <outline>
    <contour>
      <point x="170" y="535" type="curve" smooth="yes"/>
      <point x="349" y="535" type="line"/>
      <point x="271" y="341"/>
      <point x="192" y="146"/>
      <point x="124" y="-6" type="curve"/>
      <point x="132" y="-13" type="line"/>
      <point x="200" y="-10" type="line"/>
      <point x="257" y="160"/>
      <point x="312" y="326"/>
      <point x="424" y="599" type="curve"/>
      <point x="408" y="611" type="line"/>
      <point x="391" y="606"/>
      <point x="369" y="600"/>
      <point x="331" y="600" type="curve" smooth="yes"/>
      <point x="125" y="600" type="line" smooth="yes"/>
      <point x="91" y="600"/>
      <point x="93" y="610"/>
      <point x="75" y="614" type="curve"/>
      <point x="72" y="614"/>
      <point x="71" y="614"/>
      <point x="71" y="611" type="curve"/>
      <point x="70" y="563"/>
      <point x="59" y="503"/>
      <point x="51" y="451" type="curve"/>
      <point x="62" y="448"/>
      <point x="72" y="447"/>
      <point x="83" y="448" type="curve"/>
      <point x="105" y="528"/>
      <point x="138" y="535"/>
    </contour>
  </outline>
</glyph>
<glyph name="nine" format="1">
  <advance width="465"/>
  <unicode hex="0039"/>
  <outline>
    <contour>
      <point x="336" y="292" type="curve"/>
      <point x="303" y="270"/>
      <point x="270" y="269"/>
      <point x="253" y="269" type="curve" smooth="yes"/>
      <point x="155" y="269"/>
      <point x="133" y="365"/>
      <point x="133" y="415" type="curve" smooth="yes"/>
      <point x="133" y="525"/>
      <point x="175" y="575"/>
      <point x="224" y="575" type="curve" smooth="yes"/>
      <point x="287" y="575"/>
      <point x="344" y="541"/>
      <point x="344" y="370" type="curve" smooth="yes"/>
      <point x="344" y="348"/>
      <point x="342" y="321"/>
    </contour>
    <contour>
      <point x="327" y="256" type="curve"/>
      <point x="300" y="165"/>
      <point x="236" y="64"/>
      <point x="103" y="14" type="curve"/>
      <point x="103" y="2"/>
      <point x="107" y="-7"/>
      <point x="115" y="-12" type="curve"/>
      <point x="216" y="18"/>
      <point x="278" y="60"/>
      <point x="334" y="125" type="curve" smooth="yes"/>
      <point x="396" y="197"/>
      <point x="427" y="288"/>
      <point x="427" y="367" type="curve" smooth="yes"/>
      <point x="427" y="570"/>
      <point x="312" y="610"/>
      <point x="235" y="610" type="curve" smooth="yes"/>
      <point x="104" y="610"/>
      <point x="50" y="483"/>
      <point x="50" y="397" type="curve" smooth="yes"/>
      <point x="50" y="311"/>
      <point x="96" y="234"/>
      <point x="232" y="234" type="curve" smooth="yes"/>
      <point x="258" y="234"/>
      <point x="297" y="242"/>
    </contour>
  </outline>
</glyph>
<glyph name="colon" format="1">
  <advance width="236"/>
  <unicode hex="003A"/>
  <outline>
    <contour>
      <point x="70" y="355" type="curve" smooth="yes"/>
      <point x="70" y="326"/>
      <point x="94" y="302"/>
      <point x="123" y="302" type="curve" smooth="yes"/>
      <point x="152" y="302"/>
      <point x="176" y="326"/>
      <point x="176" y="355" type="curve" smooth="yes"/>
      <point x="176" y="384"/>
      <point x="152" y="408"/>
      <point x="123" y="408" type="curve" smooth="yes"/>
      <point x="94" y="408"/>
      <point x="70" y="384"/>
    </contour>
    <contour>
      <point x="70" y="72" type="curve" smooth="yes"/>
      <point x="70" y="43"/>
      <point x="94" y="19"/>
      <point x="123" y="19" type="curve" smooth="yes"/>
      <point x="152" y="19"/>
      <point x="176" y="43"/>
      <point x="176" y="72" type="curve" smooth="yes"/>
      <point x="176" y="101"/>
      <point x="152" y="125"/>
      <point x="123" y="125" type="curve" smooth="yes"/>
      <point x="94" y="125"/>
      <point x="70" y="101"/>
    </contour>
  </outline>
</glyph>
<glyph name="semicolon" format="1">
  <advance width="236"/>
  <unicode hex="003B"/>
  <outline>
    <contour>
      <point x="123" y="95" type="curve" smooth="yes"/>
      <point x="92" y="95"/>
      <point x="70" y="74"/>
      <point x="70" y="46" type="curve" smooth="yes"/>
      <point x="70" y="15"/>
      <point x="96" y="5"/>
      <point x="114" y="2" type="curve"/>
      <point x="133" y="0"/>
      <point x="150" y="-6"/>
      <point x="150" y="-29" type="curve" smooth="yes"/>
      <point x="150" y="-50"/>
      <point x="114" y="-96"/>
      <point x="62" y="-109" type="curve"/>
      <point x="62" y="-119"/>
      <point x="64" y="-126"/>
      <point x="71" y="-133" type="curve"/>
      <point x="131" y="-122"/>
      <point x="189" y="-74"/>
      <point x="189" y="-4" type="curve" smooth="yes"/>
      <point x="189" y="56"/>
      <point x="163" y="95"/>
    </contour>
    <contour>
      <point x="70" y="355" type="curve" smooth="yes"/>
      <point x="70" y="326"/>
      <point x="94" y="302"/>
      <point x="123" y="302" type="curve" smooth="yes"/>
      <point x="152" y="302"/>
      <point x="176" y="326"/>
      <point x="176" y="355" type="curve" smooth="yes"/>
      <point x="176" y="384"/>
      <point x="152" y="408"/>
      <point x="123" y="408" type="curve" smooth="yes"/>
      <point x="94" y="408"/>
      <point x="70" y="384"/>
    </contour>
  </outline>
</glyph>
<glyph name="less" format="1">
  <advance width="550"/>
  <unicode hex="003C"/>
  <outline>
    <contour>
      <point x="138" y="239" type="line"/>
      <point x="455" y="354" type="line"/>
      <point x="468" y="368"/>
      <point x="469" y="398"/>
      <point x="455" y="404" type="curve"/>
      <point x="65" y="263" type="line"/>
      <point x="56" y="246"/>
      <point x="56" y="230"/>
      <point x="65" y="215" type="curve"/>
      <point x="455" y="73" type="line"/>
      <point x="469" y="79"/>
      <point x="468" y="109"/>
      <point x="455" y="123" type="curve"/>
    </contour>
  </outline>
</glyph>
<glyph name="equal" format="1">
  <advance width="550"/>
  <unicode hex="003D"/>
  <outline>
    <contour>
      <point x="464" y="309" type="line" smooth="yes"/>
      <point x="477" y="309"/>
      <point x="491" y="332"/>
      <point x="491" y="342" type="curve" smooth="yes"/>
      <point x="491" y="350"/>
      <point x="487" y="359"/>
      <point x="477" y="359" type="curve" smooth="yes"/>
      <point x="85" y="359" type="line" smooth="yes"/>
      <point x="73" y="359"/>
      <point x="60" y="340"/>
      <point x="60" y="325" type="curve" smooth="yes"/>
      <point x="60" y="317"/>
      <point x="66" y="309"/>
      <point x="75" y="309" type="curve" smooth="yes"/>
    </contour>
    <contour>
      <point x="464" y="143" type="line" smooth="yes"/>
      <point x="477" y="143"/>
      <point x="491" y="166"/>
      <point x="491" y="176" type="curve" smooth="yes"/>
      <point x="491" y="184"/>
      <point x="487" y="193"/>
      <point x="477" y="193" type="curve" smooth="yes"/>
      <point x="85" y="193" type="line" smooth="yes"/>
      <point x="73" y="193"/>
      <point x="60" y="174"/>
      <point x="60" y="159" type="curve" smooth="yes"/>
      <point x="60" y="151"/>
      <point x="66" y="143"/>
      <point x="75" y="143" type="curve" smooth="yes"/>
    </contour>
  </outline>
</glyph>
<glyph name="greater" format="1">
  <advance width="550"/>
  <unicode hex="003E"/>
  <outline>
    <contour>
      <point x="412" y="236" type="line"/>
      <point x="95" y="121" type="line"/>
      <point x="82" y="107"/>
      <point x="81" y="77"/>
      <point x="95" y="71" type="curve"/>
      <point x="485" y="212" type="line"/>
      <point x="494" y="229"/>
      <point x="494" y="245"/>
      <point x="485" y="260" type="curve"/>
      <point x="95" y="402" type="line"/>
      <point x="81" y="396"/>
      <point x="82" y="366"/>
      <point x="95" y="352" type="curve"/>
    </contour>
  </outline>
</glyph>
<glyph name="question" format="1">
  <advance width="435"/>
  <unicode hex="003F"/>
  <outline>
    <contour>
      <point x="144" y="43" type="curve" smooth="yes"/>
      <point x="144" y="14"/>
      <point x="168" y="-10"/>
      <point x="197" y="-10" type="curve" smooth="yes"/>
      <point x="226" y="-10"/>
      <point x="250" y="14"/>
      <point x="250" y="43" type="curve" smooth="yes"/>
      <point x="250" y="72"/>
      <point x="226" y="96"/>
      <point x="197" y="96" type="curve" smooth="yes"/>
      <point x="168" y="96"/>
      <point x="144" y="72"/>
    </contour>
    <contour>
      <point x="114" y="572" type="curve" smooth="yes"/>
      <point x="114" y="602"/>
      <point x="154" y="626"/>
      <point x="211" y="626" type="curve" smooth="yes"/>
      <point x="268" y="626"/>
      <point x="306" y="569"/>
      <point x="306" y="504" type="curve" smooth="yes"/>
      <point x="306" y="457"/>
      <point x="291" y="428"/>
      <point x="251" y="391" type="curve" smooth="yes"/>
      <point x="186" y="332"/>
      <point x="181" y="273"/>
      <point x="181" y="230" type="curve" smooth="yes"/>
      <point x="181" y="184" type="line" smooth="yes"/>
      <point x="181" y="177"/>
      <point x="189" y="174"/>
      <point x="197" y="174" type="curve" smooth="yes"/>
      <point x="205" y="174"/>
      <point x="214" y="177"/>
      <point x="214" y="184" type="curve" smooth="yes"/>
      <point x="214" y="228" type="line" smooth="yes"/>
      <point x="214" y="252"/>
      <point x="215" y="276"/>
      <point x="228" y="301" type="curve" smooth="yes"/>
      <point x="237" y="318"/>
      <point x="257" y="334"/>
      <point x="280" y="351" type="curve" smooth="yes"/>
      <point x="327" y="385"/>
      <point x="389" y="429"/>
      <point x="389" y="508" type="curve" smooth="yes"/>
      <point x="389" y="599"/>
      <point x="323" y="659"/>
      <point x="221" y="659" type="curve" smooth="yes"/>
      <point x="168" y="659"/>
      <point x="126" y="645"/>
      <point x="97" y="620" type="curve" smooth="yes"/>
      <point x="67" y="596"/>
      <point x="46" y="568"/>
      <point x="46" y="530" type="curve" smooth="yes"/>
      <point x="46" y="495"/>
      <point x="71" y="487"/>
      <point x="87" y="487" type="curve" smooth="yes"/>
      <point x="106" y="487"/>
      <point x="126" y="499"/>
      <point x="126" y="522" type="curve" smooth="yes"/>
      <point x="126" y="535"/>
      <point x="124" y="541"/>
      <point x="120" y="546" type="curve" smooth="yes"/>
      <point x="116" y="551"/>
      <point x="114" y="557"/>
    </contour>
  </outline>
</glyph>
<glyph name="at" format="1">
  <advance width="895"/>
  <unicode hex="0040"/>
  <outline>
    <contour>
      <point x="569" y="316" type="curve" smooth="yes"/>
      <point x="569" y="282"/>
      <point x="552" y="231"/>
      <point x="539" y="200" type="curve" smooth="yes"/>
      <point x="508" y="127"/>
      <point x="459" y="70"/>
      <point x="424" y="70" type="curve" smooth="yes"/>
      <point x="361" y="70"/>
      <point x="346" y="114"/>
      <point x="346" y="162" type="curve" smooth="yes"/>
      <point x="346" y="224"/>
      <point x="363" y="288"/>
      <point x="414" y="339" type="curve" smooth="yes"/>
      <point x="444" y="370"/>
      <point x="487" y="379"/>
      <point x="504" y="379" type="curve" smooth="yes"/>
      <point x="540" y="379"/>
      <point x="569" y="354"/>
    </contour>
    <contour>
      <point x="583" y="74" type="curve" smooth="yes"/>
      <point x="583" y="81"/>
      <point x="590" y="114"/>
      <point x="596" y="141" type="curve" smooth="yes"/>
      <point x="656" y="399" type="line"/>
      <point x="641" y="404" type="line"/>
      <point x="588" y="391" type="line"/>
      <point x="583" y="367" type="line"/>
      <point x="573" y="393"/>
      <point x="539" y="410"/>
      <point x="506" y="410" type="curve" smooth="yes"/>
      <point x="400" y="410"/>
      <point x="273" y="296"/>
      <point x="273" y="153" type="curve" smooth="yes"/>
      <point x="273" y="113"/>
      <point x="295" y="29"/>
      <point x="395" y="29" type="curve" smooth="yes"/>
      <point x="430" y="29"/>
      <point x="484" y="58"/>
      <point x="528" y="132" type="curve"/>
      <point x="530" y="131" type="line"/>
      <point x="522" y="106"/>
      <point x="515" y="83"/>
      <point x="515" y="68" type="curve" smooth="yes"/>
      <point x="515" y="52"/>
      <point x="522" y="27"/>
      <point x="551" y="27" type="curve" smooth="yes"/>
      <point x="769" y="27"/>
      <point x="839" y="168"/>
      <point x="839" y="282" type="curve" smooth="yes"/>
      <point x="839" y="469"/>
      <point x="684" y="611"/>
      <point x="469" y="611" type="curve" smooth="yes"/>
      <point x="244" y="611"/>
      <point x="59" y="438"/>
      <point x="59" y="223" type="curve" smooth="yes"/>
      <point x="59" y="10"/>
      <point x="215" y="-158"/>
      <point x="454" y="-158" type="curve" smooth="yes"/>
      <point x="567" y="-158"/>
      <point x="627" y="-123"/>
      <point x="687" y="-77" type="curve"/>
      <point x="674" y="-59" type="line"/>
      <point x="620" y="-102"/>
      <point x="558" y="-125"/>
      <point x="473" y="-125" type="curve" smooth="yes"/>
      <point x="215" y="-125"/>
      <point x="139" y="91"/>
      <point x="139" y="241" type="curve" smooth="yes"/>
      <point x="139" y="478"/>
      <point x="307" y="580"/>
      <point x="459" y="580" type="curve" smooth="yes"/>
      <point x="584" y="580"/>
      <point x="759" y="481"/>
      <point x="759" y="275" type="curve" smooth="yes"/>
      <point x="759" y="109"/>
      <point x="696" y="62"/>
      <point x="594" y="62" type="curve" smooth="yes"/>
      <point x="592" y="62"/>
      <point x="583" y="64"/>
    </contour>
  </outline>
</glyph>
<glyph name="C" format="1">
  <advance width="646"/>
  <unicode hex="0043"/>
  <outline>
    <contour>
      <point x="357" y="-10" type="curve" smooth="yes"/>
      <point x="454" y="-10"/>
      <point x="543" y="36"/>
      <point x="611" y="125" type="curve"/>
      <point x="606" y="134"/>
      <point x="599" y="140"/>
      <point x="588" y="140" type="curve"/>
      <point x="517" y="62"/>
      <point x="449" y="31"/>
      <point x="356" y="31" type="curve" smooth="yes"/>
      <point x="221" y="31"/>
      <point x="128" y="183"/>
      <point x="128" y="329" type="curve" smooth="yes"/>
      <point x="128" y="415"/>
      <point x="151" y="487"/>
      <point x="187" y="532" type="curve" smooth="yes"/>
      <point x="237" y="593"/>
      <point x="295" y="621"/>
      <point x="347" y="621" type="curve" smooth="yes"/>
      <point x="485" y="621"/>
      <point x="540" y="539"/>
      <point x="566" y="453" type="curve"/>
      <point x="578" y="449"/>
      <point x="588" y="452"/>
      <point x="599" y="458" type="curve"/>
      <point x="594" y="510"/>
      <point x="587" y="558"/>
      <point x="577" y="613" type="curve"/>
      <point x="526" y="618"/>
      <point x="481" y="658"/>
      <point x="358" y="658" type="curve" smooth="yes"/>
      <point x="273" y="658"/>
      <point x="202" y="627"/>
      <point x="143" y="573" type="curve" smooth="yes"/>
      <point x="77" y="512"/>
      <point x="37" y="414"/>
      <point x="37" y="310" type="curve" smooth="yes"/>
      <point x="37" y="136"/>
      <point x="142" y="-10"/>
    </contour>
  </outline>
</glyph>
<glyph name="J" format="1">
  <advance width="322"/>
  <unicode hex="004A"/>
  <outline>
    <contour>
      <point x="226" y="523" type="line" smooth="yes"/>
      <point x="226" y="606"/>
      <point x="243" y="611"/>
      <point x="303" y="614" type="curve"/>
      <point x="309" y="620"/>
      <point x="309" y="641"/>
      <point x="303" y="647" type="curve"/>
      <point x="265" y="646"/>
      <point x="222" y="645"/>
      <point x="183" y="645" type="curve" smooth="yes"/>
      <point x="147" y="645"/>
      <point x="94" y="646"/>
      <point x="44" y="647" type="curve"/>
      <point x="38" y="641"/>
      <point x="38" y="620"/>
      <point x="44" y="614" type="curve"/>
      <point x="124" y="611"/>
      <point x="141" y="606"/>
      <point x="141" y="523" type="curve" smooth="yes"/>
      <point x="141" y="81" type="line" smooth="yes"/>
      <point x="141" y="-99"/>
      <point x="89" y="-127"/>
      <point x="56" y="-127" type="curve" smooth="yes"/>
      <point x="37" y="-127"/>
      <point x="23" y="-115"/>
      <point x="16" y="-101" type="curve" smooth="yes"/>
      <point x="10" y="-88"/>
      <point x="1" y="-75"/>
      <point x="-24" y="-75" type="curve" smooth="yes"/>
      <point x="-38" y="-75"/>
      <point x="-68" y="-96"/>
      <point x="-68" y="-118" type="curve" smooth="yes"/>
      <point x="-68" y="-154"/>
      <point x="-15" y="-172"/>
      <point x="7" y="-172" type="curve" smooth="yes"/>
      <point x="52" y="-172"/>
      <point x="83" y="-164"/>
      <point x="124" y="-129" type="curve" smooth="yes"/>
      <point x="168" y="-92"/>
      <point x="226" y="-40"/>
      <point x="226" y="103" type="curve" smooth="yes"/>
    </contour>
  </outline>
</glyph>
<glyph name="Q" format="1">
  <advance width="702"/>
  <unicode hex="0051"/>
  <outline>
    <contour>
      <point x="331" y="622" type="curve" smooth="yes"/>
      <point x="463" y="622"/>
      <point x="570" y="512"/>
      <point x="570" y="310" type="curve" smooth="yes"/>
      <point x="570" y="131"/>
      <point x="484" y="26"/>
      <point x="370" y="26" type="curve" smooth="yes"/>
      <point x="248" y="26"/>
      <point x="133" y="135"/>
      <point x="133" y="327" type="curve" smooth="yes"/>
      <point x="133" y="537"/>
      <point x="232" y="622"/>
    </contour>
    <contour>
      <point x="666" y="329" type="curve" smooth="yes"/>
      <point x="666" y="536"/>
      <point x="523" y="658"/>
      <point x="344" y="658" type="curve" smooth="yes"/>
      <point x="150" y="658"/>
      <point x="37" y="504"/>
      <point x="37" y="310" type="curve" smooth="yes"/>
      <point x="37" y="129"/>
      <point x="158" y="11"/>
      <point x="309" y="-8" type="curve"/>
      <point x="248" y="-40"/>
      <point x="193" y="-87"/>
      <point x="157" y="-130" type="curve"/>
      <point x="150" y="-137"/>
      <point x="144" y="-145"/>
      <point x="139" y="-153" type="curve"/>
      <point x="178" y="-173" type="line"/>
      <point x="190" y="-156"/>
      <point x="202" y="-141"/>
      <point x="216" y="-127" type="curve"/>
      <point x="230" y="-117"/>
      <point x="243" y="-114"/>
      <point x="251" y="-114" type="curve" smooth="yes"/>
      <point x="293" y="-114"/>
      <point x="330" y="-133"/>
      <point x="369" y="-155" type="curve" smooth="yes"/>
      <point x="416" y="-182"/>
      <point x="466" y="-209"/>
      <point x="537" y="-209" type="curve" smooth="yes"/>
      <point x="600" y="-209"/>
      <point x="642" y="-183"/>
      <point x="681" y="-127" type="curve"/>
      <point x="664" y="-115" type="line"/>
      <point x="642" y="-142"/>
      <point x="606" y="-152"/>
      <point x="577" y="-152" type="curve" smooth="yes"/>
      <point x="535" y="-152"/>
      <point x="495" y="-134"/>
      <point x="452" y="-114" type="curve" smooth="yes"/>
      <point x="406" y="-92"/>
      <point x="356" y="-70"/>
      <point x="298" y="-70" type="curve" smooth="yes"/>
      <point x="292" y="-70"/>
      <point x="285" y="-70"/>
      <point x="278" y="-71" type="curve"/>
      <point x="328" y="-35"/>
      <point x="377" y="-14"/>
      <point x="409" y="-5" type="curve"/>
      <point x="492" y="9"/>
      <point x="559" y="52"/>
      <point x="604" y="116" type="curve" smooth="yes"/>
      <point x="644" y="173"/>
      <point x="666" y="245"/>
    </contour>
  </outline>
</glyph>
<glyph name="bracketleft" format="1">
  <advance width="356"/>
  <unicode hex="005B"/>
  <outline>
    <contour>
      <point x="108" y="-193" type="line"/>
      <point x="320" y="-193" type="line"/>
      <point x="326" y="-187"/>
      <point x="326" y="-169"/>
      <point x="320" y="-163" type="curve"/>
      <point x="182" y="-152"/>
      <point x="175" y="-137"/>
      <point x="175" y="-50" type="curve" smooth="yes"/>
      <point x="175" y="561" type="line" smooth="yes"/>
      <point x="175" y="648"/>
      <point x="183" y="663"/>
      <point x="320" y="673" type="curve"/>
      <point x="326" y="679"/>
      <point x="326" y="697"/>
      <point x="320" y="703" type="curve"/>
      <point x="108" y="703" type="line"/>
    </contour>
  </outline>
</glyph>
<glyph name="backslash" format="1">
  <advance width="287"/>
  <unicode hex="005C"/>
  <outline>
    <contour>
      <point x="55" y="698" type="line"/>
      <point x="11" y="698" type="line"/>
      <point x="241" y="-48" type="line"/>
      <point x="285" y="-48" type="line"/>
    </contour>
  </outline>
</glyph>
<glyph name="bracketright" format="1">
  <advance width="356"/>
  <unicode hex="005D"/>
  <outline>
    <contour>
      <point x="248" y="704" type="line"/>
      <point x="36" y="704" type="line"/>
      <point x="30" y="698"/>
      <point x="30" y="680"/>
      <point x="36" y="674" type="curve"/>
      <point x="174" y="663"/>
      <point x="181" y="648"/>
      <point x="181" y="561" type="curve" smooth="yes"/>
      <point x="181" y="-50" type="line" smooth="yes"/>
      <point x="181" y="-137"/>
      <point x="173" y="-152"/>
      <point x="36" y="-162" type="curve"/>
      <point x="30" y="-168"/>
      <point x="30" y="-186"/>
      <point x="36" y="-192" type="curve"/>
      <point x="248" y="-192" type="line"/>
    </contour>
  </outline>
</glyph>
<glyph name="underscore" format="1">
  <advance width="486"/>
  <unicode hex="005F"/>
  <outline>
    <contour>
      <point x="476" y="-110" type="curve"/>
      <point x="10" y="-110" type="line"/>
      <point x="2" y="-118"/>
      <point x="2" y="-146"/>
      <point x="10" y="-154" type="curve"/>
      <point x="476" y="-154" type="line"/>
      <point x="484" y="-146"/>
      <point x="484" y="-118"/>
    </contour>
  </outline>
</glyph>
<glyph name="grave" format="1">
  <advance width="392"/>
  <unicode hex="0060"/>
  <outline>
    <contour>
      <point x="178" y="699" type="line"/>
      <point x="174" y="700"/>
      <point x="168" y="701"/>
      <point x="163" y="701" type="curve" smooth="yes"/>
      <point x="129" y="701"/>
      <point x="106" y="684"/>
      <point x="98" y="678" type="curve"/>
      <point x="96" y="667" type="line"/>
      <point x="210" y="558" type="line" smooth="yes"/>
      <point x="226" y="543"/>
      <point x="233" y="538"/>
      <point x="239" y="538" type="curve" smooth="yes"/>
      <point x="247" y="538"/>
      <point x="254" y="544"/>
      <point x="254" y="549" type="curve" smooth="yes"/>
      <point x="254" y="556"/>
      <point x="253" y="563"/>
      <point x="248" y="573" type="curve" smooth="yes"/>
    </contour>
  </outline>
</glyph>
<glyph name="n" format="1">
  <advance width="542"/>
  <unicode hex="006E"/>
  <outline>
    <contour>
      <point x="184" y="358" type="curve" smooth="yes"/>
      <point x="178" y="351"/>
      <point x="172" y="349"/>
      <point x="172" y="358" type="curve" smooth="yes"/>
      <point x="171" y="385"/>
      <point x="169" y="424"/>
      <point x="164" y="434" type="curve"/>
      <point x="162" y="439"/>
      <point x="160" y="442"/>
      <point x="152" y="442" type="curve"/>
      <point x="124" y="431"/>
      <point x="98" y="422"/>
      <point x="29" y="413" type="curve"/>
      <point x="27" y="407"/>
      <point x="29" y="391"/>
      <point x="31" y="385" type="curve"/>
      <point x="85" y="380"/>
      <point x="96" y="375"/>
      <point x="96" y="317" type="curve" smooth="yes"/>
      <point x="96" y="122" type="line" smooth="yes"/>
      <point x="96" y="40"/>
      <point x="86" y="36"/>
      <point x="26" y="31" type="curve"/>
      <point x="20" y="25"/>
      <point x="20" y="4"/>
      <point x="26" y="-2" type="curve"/>
      <point x="56" y="-1"/>
      <point x="96" y="0"/>
      <point x="136" y="0" type="curve" smooth="yes"/>
      <point x="176" y="0"/>
      <point x="206" y="-1"/>
      <point x="236" y="-2" type="curve"/>
      <point x="242" y="4"/>
      <point x="242" y="25"/>
      <point x="236" y="31" type="curve"/>
      <point x="185" y="36"/>
      <point x="175" y="40"/>
      <point x="175" y="122" type="curve" smooth="yes"/>
      <point x="175" y="286" type="line" smooth="yes"/>
      <point x="175" y="307"/>
      <point x="184" y="319"/>
      <point x="192" y="328" type="curve"/>
      <point x="230" y="365"/>
      <point x="275" y="387"/>
      <point x="314" y="387" type="curve" smooth="yes"/>
      <point x="334" y="387"/>
      <point x="355" y="374"/>
      <point x="367" y="351" type="curve" smooth="yes"/>
      <point x="377" y="331"/>
      <point x="379" y="304"/>
      <point x="379" y="274" type="curve" smooth="yes"/>
      <point x="379" y="122" type="line" smooth="yes"/>
      <point x="379" y="40"/>
      <point x="369" y="36"/>
      <point x="317" y="31" type="curve"/>
      <point x="312" y="25"/>
      <point x="312" y="4"/>
      <point x="317" y="-2" type="curve"/>
      <point x="347" y="-1"/>
      <point x="379" y="0"/>
      <point x="419" y="0" type="curve" smooth="yes"/>
      <point x="459" y="0"/>
      <point x="495" y="-1"/>
      <point x="525" y="-2" type="curve"/>
      <point x="530" y="4"/>
      <point x="530" y="25"/>
      <point x="525" y="31" type="curve"/>
      <point x="469" y="36"/>
      <point x="458" y="40"/>
      <point x="458" y="122" type="curve" smooth="yes"/>
      <point x="458" y="271" type="line" smooth="yes"/>
      <point x="458" y="326"/>
      <point x="454" y="374"/>
      <point x="431" y="405" type="curve" smooth="yes"/>
      <point x="414" y="427"/>
      <point x="383" y="439"/>
      <point x="348" y="439" type="curve" smooth="yes"/>
      <point x="299" y="439"/>
      <point x="243" y="426"/>
    </contour>
  </outline>
</glyph>
<glyph name="q" format="1">
  <advance width="503"/>
  <unicode hex="0071"/>
  <outline>
    <contour>
      <point x="322" y="368" type="curve" smooth="yes"/>
      <point x="342" y="346"/>
      <point x="346" y="331"/>
      <point x="346" y="307" type="curve" smooth="yes"/>
      <point x="346" y="77" type="line" smooth="yes"/>
      <point x="346" y="59"/>
      <point x="345" y="54"/>
      <point x="332" y="47" type="curve" smooth="yes"/>
      <point x="309" y="35"/>
      <point x="282" y="34"/>
      <point x="266" y="34" type="curve" smooth="yes"/>
      <point x="208" y="34"/>
      <point x="121" y="76"/>
      <point x="121" y="227" type="curve" smooth="yes"/>
      <point x="121" y="331"/>
      <point x="163" y="405"/>
      <point x="243" y="405" type="curve" smooth="yes"/>
      <point x="273" y="405"/>
      <point x="300" y="393"/>
    </contour>
    <contour>
      <point x="346" y="-111" type="line" smooth="yes"/>
      <point x="346" y="-194"/>
      <point x="335" y="-198"/>
      <point x="274" y="-201" type="curve"/>
      <point x="268" y="-207"/>
      <point x="268" y="-228"/>
      <point x="274" y="-234" type="curve"/>
      <point x="309" y="-233"/>
      <point x="346" y="-232"/>
      <point x="386" y="-232" type="curve" smooth="yes"/>
      <point x="426" y="-232"/>
      <point x="464" y="-233"/>
      <point x="497" y="-234" type="curve"/>
      <point x="503" y="-228"/>
      <point x="503" y="-207"/>
      <point x="497" y="-201" type="curve"/>
      <point x="436" y="-198"/>
      <point x="425" y="-194"/>
      <point x="425" y="-111" type="curve" smooth="yes"/>
      <point x="425" y="417" type="line" smooth="yes"/>
      <point x="425" y="431"/>
      <point x="421" y="442"/>
      <point x="410" y="442" type="curve" smooth="yes"/>
      <point x="403" y="442"/>
      <point x="397" y="434"/>
      <point x="389" y="423" type="curve" smooth="yes"/>
      <point x="376" y="405"/>
      <point x="372" y="402"/>
      <point x="360" y="410" type="curve" smooth="yes"/>
      <point x="328" y="430"/>
      <point x="289" y="439"/>
      <point x="247" y="439" type="curve" smooth="yes"/>
      <point x="125" y="439"/>
      <point x="35" y="339"/>
      <point x="35" y="207" type="curve" smooth="yes"/>
      <point x="35" y="114"/>
      <point x="98" y="-10"/>
      <point x="242" y="-10" type="curve" smooth="yes"/>
      <point x="269" y="-10"/>
      <point x="302" y="-4"/>
      <point x="319" y="6" type="curve" smooth="yes"/>
      <point x="342" y="19"/>
      <point x="346" y="21"/>
      <point x="346" y="0" type="curve" smooth="yes"/>
    </contour>
  </outline>
</glyph>
<glyph name="bar" format="1">
  <advance width="205"/>
  <unicode hex="007C"/>
  <outline>
    <contour>
      <point x="125" y="-232" type="line"/>
      <point x="125" y="698" type="line"/>
      <point x="81" y="698" type="line"/>
      <point x="81" y="-232" type="line"/>
    </contour>
  </outline>
</glyph>
<glyph name="braceright" format="1">
  <advance width="277"/>
  <unicode hex="007D"/>
  <outline>
    <contour>
      <point x="95" y="-58" type="line" smooth="yes"/>
      <point x="100" y="-161"/>
      <point x="53" y="-178"/>
      <point x="15" y="-189" type="curve"/>
      <point x="9" y="-195"/>
      <point x="9" y="-207"/>
      <point x="15" y="-213" type="curve"/>
      <point x="105" y="-213"/>
      <point x="171" y="-173"/>
      <point x="167" y="-60" type="curve" smooth="yes"/>
      <point x="161" y="124" type="line" smooth="yes"/>
      <point x="161" y="174"/>
      <point x="185" y="228"/>
      <point x="259" y="235" type="curve"/>
      <point x="268" y="244"/>
      <point x="267" y="251"/>
      <point x="259" y="259" type="curve"/>
      <point x="186" y="268"/>
      <point x="159" y="312"/>
      <point x="161" y="373" type="curve" smooth="yes"/>
      <point x="167" y="543" type="line" smooth="yes"/>
      <point x="172" y="673"/>
      <point x="116" y="706"/>
      <point x="15" y="706" type="curve"/>
      <point x="9" y="700"/>
      <point x="9" y="688"/>
      <point x="15" y="682" type="curve"/>
      <point x="59" y="682"/>
      <point x="100" y="632"/>
      <point x="95" y="548" type="curve" smooth="yes"/>
      <point x="87" y="399" type="line" smooth="yes"/>
      <point x="83" y="317"/>
      <point x="124" y="277"/>
      <point x="192" y="249" type="curve"/>
      <point x="192" y="245" type="line"/>
      <point x="125" y="226"/>
      <point x="83" y="197"/>
      <point x="87" y="108" type="curve" smooth="yes"/>
    </contour>
  </outline>
</glyph>
<glyph name="asciitilde" format="1">
  <advance width="449"/>
  <unicode hex="007E"/>
  <outline>
    <contour>
      <point x="26" y="209" type="curve"/>
      <point x="32" y="206"/>
      <point x="37" y="205"/>
      <point x="43" y="205" type="curve"/>
      <point x="66" y="249"/>
      <point x="113" y="278"/>
      <point x="148" y="278" type="curve" smooth="yes"/>
      <point x="173" y="278"/>
      <point x="197" y="264"/>
      <point x="221" y="246" type="curve" smooth="yes"/>
      <point x="245" y="228"/>
      <point x="274" y="213"/>
      <point x="297" y="213" type="curve" smooth="yes"/>
      <point x="321" y="213"/>
      <point x="386" y="226"/>
      <point x="417" y="333" type="curve"/>
      <point x="414" y="337"/>
      <point x="408" y="339"/>
      <point x="400" y="339" type="curve"/>
      <point x="378" y="289"/>
      <point x="329" y="272"/>
      <point x="301" y="272" type="curve" smooth="yes"/>
      <point x="279" y="272"/>
      <point x="256" y="285"/>
      <point x="229" y="305" type="curve" smooth="yes"/>
      <point x="205" y="323"/>
      <point x="177" y="337"/>
      <point x="154" y="337" type="curve" smooth="yes"/>
      <point x="93" y="337"/>
      <point x="39" y="274"/>
    </contour>
  </outline>
</glyph>
<glyph name="cent" format="1">
  <advance width="465"/>
  <unicode hex="00A2"/>
  <outline>
    <contour>
      <point x="232" y="611" type="line"/>
      <point x="232" y="511" type="line"/>
      <point x="148" y="495"/>
      <point x="69" y="415"/>
      <point x="69" y="295" type="curve" smooth="yes"/>
      <point x="69" y="181"/>
      <point x="128" y="100"/>
      <point x="232" y="89" type="curve"/>
      <point x="232" y="-13" type="line"/>
      <point x="268" y="-13" type="line"/>
      <point x="268" y="88" type="line"/>
      <point x="321" y="90"/>
      <point x="368" y="110"/>
      <point x="412" y="183" type="curve"/>
      <point x="409" y="192"/>
      <point x="401" y="196"/>
      <point x="392" y="197" type="curve"/>
      <point x="360" y="155"/>
      <point x="319" y="134"/>
      <point x="278" y="134" type="curve" smooth="yes"/>
      <point x="275" y="134"/>
      <point x="271" y="134"/>
      <point x="268" y="135" type="curve"/>
      <point x="268" y="483" type="line"/>
      <point x="316" y="479"/>
      <point x="323" y="448"/>
      <point x="327" y="416" type="curve" smooth="yes"/>
      <point x="330" y="391"/>
      <point x="343" y="382"/>
      <point x="363" y="382" type="curve" smooth="yes"/>
      <point x="383" y="382"/>
      <point x="409" y="395"/>
      <point x="409" y="424" type="curve" smooth="yes"/>
      <point x="409" y="476"/>
      <point x="357" y="513"/>
      <point x="268" y="514" type="curve"/>
      <point x="268" y="611" type="line"/>
    </contour>
    <contour>
      <point x="232" y="145" type="line"/>
      <point x="185" y="169"/>
      <point x="151" y="230"/>
      <point x="151" y="316" type="curve" smooth="yes"/>
      <point x="151" y="404"/>
      <point x="184" y="463"/>
      <point x="232" y="479" type="curve"/>
    </contour>
  </outline>
</glyph>
<glyph name="sterling" format="1">
  <advance width="465"/>
  <unicode hex="00A3"/>
  <outline>
    <contour>
      <point x="74" y="300" type="curve" smooth="yes"/>
      <point x="137" y="300" type="line"/>
      <point x="137" y="281" type="line" smooth="yes"/>
      <point x="137" y="190"/>
      <point x="126" y="110"/>
      <point x="67" y="67" type="curve"/>
      <point x="40" y="52"/>
      <point x="16" y="36"/>
      <point x="16" y="17" type="curve" smooth="yes"/>
      <point x="16" y="1"/>
      <point x="33" y="-11"/>
      <point x="52" y="-11" type="curve" smooth="yes"/>
      <point x="74" y="-11"/>
      <point x="92" y="1"/>
      <point x="92" y="24" type="curve" smooth="yes"/>
      <point x="92" y="35"/>
      <point x="97" y="49"/>
      <point x="132" y="49" type="curve" smooth="yes"/>
      <point x="220" y="49"/>
      <point x="221" y="-11"/>
      <point x="311" y="-11" type="curve" smooth="yes"/>
      <point x="376" y="-11"/>
      <point x="426" y="25"/>
      <point x="450" y="77" type="curve"/>
      <point x="446" y="84"/>
      <point x="440" y="87"/>
      <point x="432" y="88" type="curve"/>
      <point x="406" y="52"/>
      <point x="359" y="44"/>
      <point x="329" y="44" type="curve" smooth="yes"/>
      <point x="260" y="44"/>
      <point x="271" y="91"/>
      <point x="147" y="91" type="curve"/>
      <point x="181" y="123"/>
      <point x="221" y="181"/>
      <point x="222" y="300" type="curve"/>
      <point x="330" y="300" type="line" smooth="yes"/>
      <point x="341" y="300"/>
      <point x="354" y="305"/>
      <point x="354" y="313" type="curve" smooth="yes"/>
      <point x="354" y="333" type="line" smooth="yes"/>
      <point x="354" y="337"/>
      <point x="351" y="339"/>
      <point x="346" y="339" type="curve" smooth="yes"/>
      <point x="222" y="339" type="line"/>
      <point x="222" y="410" type="line" smooth="yes"/>
      <point x="222" y="497"/>
      <point x="259" y="563"/>
      <point x="305" y="563" type="curve" smooth="yes"/>
      <point x="327" y="563"/>
      <point x="342" y="552"/>
      <point x="355" y="540" type="curve" smooth="yes"/>
      <point x="367" y="529"/>
      <point x="376" y="521"/>
      <point x="391" y="521" type="curve" smooth="yes"/>
      <point x="415" y="521"/>
      <point x="432" y="537"/>
      <point x="432" y="562" type="curve" smooth="yes"/>
      <point x="432" y="598"/>
      <point x="375" y="611"/>
      <point x="352" y="611" type="curve" smooth="yes"/>
      <point x="299" y="611"/>
      <point x="254" y="588"/>
      <point x="219" y="552" type="curve" smooth="yes"/>
      <point x="164" y="498"/>
      <point x="137" y="444"/>
      <point x="137" y="359" type="curve" smooth="yes"/>
      <point x="137" y="339" type="line"/>
      <point x="92" y="339" type="line" smooth="yes"/>
      <point x="74" y="339"/>
      <point x="68" y="326"/>
      <point x="68" y="318" type="curve" smooth="yes"/>
      <point x="68" y="307" type="line" smooth="yes"/>
      <point x="68" y="302"/>
      <point x="69" y="300"/>
    </contour>
  </outline>
</glyph>
<glyph name="brokenbar" format="1">
  <advance width="211"/>
  <unicode hex="00A6"/>
  <outline>
    <contour>
      <point x="130" y="674" type="line"/>
      <point x="81" y="674" type="line"/>
      <point x="81" y="312" type="line"/>
      <point x="130" y="312" type="line"/>
    </contour>
    <contour>
      <point x="130" y="161" type="line"/>
      <point x="81" y="161" type="line"/>
      <point x="81" y="-201" type="line"/>
      <point x="130" y="-201" type="line"/>
    </contour>
  </outline>
</glyph>
<glyph name="section" format="1">
  <advance width="473"/>
  <unicode hex="00A7"/>
  <outline>
    <contour>
      <point x="125" y="415" type="curve"/>
      <point x="80" y="379"/>
      <point x="50" y="331"/>
      <point x="50" y="267" type="curve" smooth="yes"/>
      <point x="50" y="144"/>
      <point x="156" y="100"/>
      <point x="233" y="59" type="curve" smooth="yes"/>
      <point x="298" y="24"/>
      <point x="324" y="-13"/>
      <point x="324" y="-60" type="curve" smooth="yes"/>
      <point x="324" y="-106"/>
      <point x="290" y="-141"/>
      <point x="243" y="-141" type="curve" smooth="yes"/>
      <point x="200" y="-141"/>
      <point x="185" y="-112"/>
      <point x="175" y="-74" type="curve" smooth="yes"/>
      <point x="170" y="-55"/>
      <point x="160" y="-33"/>
      <point x="134" y="-33" type="curve" smooth="yes"/>
      <point x="107" y="-33"/>
      <point x="98" y="-50"/>
      <point x="98" y="-71" type="curve" smooth="yes"/>
      <point x="98" y="-110"/>
      <point x="140" y="-172"/>
      <point x="237" y="-172" type="curve" smooth="yes"/>
      <point x="340" y="-172"/>
      <point x="393" y="-106"/>
      <point x="393" y="-40" type="curve" smooth="yes"/>
      <point x="393" y="2"/>
      <point x="383" y="36"/>
      <point x="348" y="71" type="curve"/>
      <point x="393" y="107"/>
      <point x="423" y="153"/>
      <point x="423" y="219" type="curve" smooth="yes"/>
      <point x="423" y="342"/>
      <point x="317" y="386"/>
      <point x="240" y="427" type="curve" smooth="yes"/>
      <point x="175" y="462"/>
      <point x="149" y="499"/>
      <point x="149" y="546" type="curve" smooth="yes"/>
      <point x="149" y="592"/>
      <point x="183" y="627"/>
      <point x="230" y="627" type="curve" smooth="yes"/>
      <point x="273" y="627"/>
      <point x="288" y="598"/>
      <point x="298" y="560" type="curve" smooth="yes"/>
      <point x="303" y="541"/>
      <point x="313" y="519"/>
      <point x="339" y="519" type="curve" smooth="yes"/>
      <point x="366" y="519"/>
      <point x="375" y="536"/>
      <point x="375" y="557" type="curve" smooth="yes"/>
      <point x="375" y="596"/>
      <point x="333" y="658"/>
      <point x="236" y="658" type="curve" smooth="yes"/>
      <point x="133" y="658"/>
      <point x="80" y="592"/>
      <point x="80" y="526" type="curve" smooth="yes"/>
      <point x="80" y="484"/>
      <point x="90" y="450"/>
    </contour>
    <contour>
      <point x="327" y="90" type="curve"/>
      <point x="308" y="106"/>
      <point x="283" y="123"/>
      <point x="251" y="141" type="curve" smooth="yes"/>
      <point x="179" y="183"/>
      <point x="104" y="223"/>
      <point x="104" y="315" type="curve" smooth="yes"/>
      <point x="104" y="349"/>
      <point x="120" y="373"/>
      <point x="146" y="396" type="curve"/>
      <point x="166" y="380"/>
      <point x="191" y="363"/>
      <point x="222" y="345" type="curve" smooth="yes"/>
      <point x="294" y="303"/>
      <point x="369" y="263"/>
      <point x="369" y="171" type="curve" smooth="yes"/>
      <point x="369" y="140"/>
      <point x="351" y="112"/>
    </contour>
  </outline>
</glyph>
<glyph name="dieresis" format="1">
  <advance width="379"/>
  <unicode hex="00A8"/>
  <outline>
    <contour>
      <point x="50" y="575" type="curve" smooth="yes"/>
      <point x="50" y="549"/>
      <point x="71" y="528"/>
      <point x="97" y="528" type="curve" smooth="yes"/>
      <point x="123" y="528"/>
      <point x="144" y="549"/>
      <point x="144" y="575" type="curve" smooth="yes"/>
      <point x="144" y="601"/>
      <point x="123" y="623"/>
      <point x="97" y="623" type="curve" smooth="yes"/>
      <point x="71" y="623"/>
      <point x="50" y="601"/>
    </contour>
    <contour>
      <point x="219" y="575" type="curve" smooth="yes"/>
      <point x="219" y="549"/>
      <point x="240" y="528"/>
      <point x="266" y="528" type="curve" smooth="yes"/>
      <point x="292" y="528"/>
      <point x="313" y="549"/>
      <point x="313" y="575" type="curve" smooth="yes"/>
      <point x="313" y="601"/>
      <point x="292" y="623"/>
      <point x="266" y="623" type="curve" smooth="yes"/>
      <point x="240" y="623"/>
      <point x="219" y="601"/>
    </contour>
  </outline>
</glyph>
<glyph name="ordfeminine" format="1">
  <advance width="307"/>
  <unicode hex="00AA"/>
  <outline>
    <contour>
      <point x="192" y="502" type="curve"/>
      <point x="192" y="423" type="line"/>
      <point x="166" y="400"/>
      <point x="149" y="390"/>
      <point x="128" y="390" type="curve" smooth="yes"/>
      <point x="94" y="390"/>
      <point x="83" y="410"/>
      <point x="83" y="431" type="curve" smooth="yes"/>
      <point x="83" y="462"/>
      <point x="107" y="480"/>
    </contour>
    <contour>
      <point x="235" y="358" type="curve" smooth="yes"/>
      <point x="254" y="358"/>
      <point x="273" y="370"/>
      <point x="282" y="380" type="curve"/>
      <point x="283" y="388"/>
      <point x="279" y="393"/>
      <point x="272" y="396" type="curve"/>
      <point x="269" y="393"/>
      <point x="264" y="391"/>
      <point x="260" y="391" type="curve" smooth="yes"/>
      <point x="251" y="391"/>
      <point x="246" y="407"/>
      <point x="246" y="448" type="curve" smooth="yes"/>
      <point x="246" y="523" type="line" smooth="yes"/>
      <point x="246" y="617"/>
      <point x="189" y="637"/>
      <point x="140" y="637" type="curve" smooth="yes"/>
      <point x="98" y="637"/>
      <point x="36" y="604"/>
      <point x="36" y="564" type="curve" smooth="yes"/>
      <point x="36" y="549"/>
      <point x="47" y="539"/>
      <point x="62" y="539" type="curve" smooth="yes"/>
      <point x="81" y="539"/>
      <point x="88" y="552"/>
      <point x="88" y="560" type="curve" smooth="yes"/>
      <point x="88" y="565"/>
      <point x="87" y="570"/>
      <point x="86" y="572" type="curve" smooth="yes"/>
      <point x="85" y="574"/>
      <point x="84" y="578"/>
      <point x="84" y="585" type="curve" smooth="yes"/>
      <point x="84" y="601"/>
      <point x="105" y="612"/>
      <point x="138" y="612" type="curve" smooth="yes"/>
      <point x="161" y="612"/>
      <point x="192" y="604"/>
      <point x="192" y="529" type="curve"/>
      <point x="134" y="514" type="line" smooth="yes"/>
      <point x="71" y="498"/>
      <point x="31" y="470"/>
      <point x="31" y="428" type="curve" smooth="yes"/>
      <point x="31" y="385"/>
      <point x="66" y="358"/>
      <point x="108" y="358" type="curve" smooth="yes"/>
      <point x="141" y="358"/>
      <point x="159" y="367"/>
      <point x="193" y="397" type="curve"/>
      <point x="196" y="379"/>
      <point x="210" y="358"/>
    </contour>
  </outline>
</glyph>
<glyph name="logicalnot" format="1">
  <advance width="599"/>
  <unicode hex="00AC"/>
  <outline>
    <contour>
      <point x="499" y="99" type="line"/>
      <point x="518" y="90"/>
      <point x="536" y="93"/>
      <point x="553" y="99" type="curve"/>
      <point x="553" y="367" type="line"/>
      <point x="40" y="367" type="line"/>
      <point x="33" y="349"/>
      <point x="36" y="336"/>
      <point x="40" y="323" type="curve"/>
      <point x="499" y="323" type="line"/>
    </contour>
  </outline>
</glyph>
<glyph name="registered" format="1">
  <advance width="695"/>
  <unicode hex="00AE"/>
  <outline>
    <contour>
      <point x="321" y="23" type="curve" smooth="yes"/>
      <point x="477" y="23"/>
      <point x="608" y="150"/>
      <point x="608" y="306" type="curve" smooth="yes"/>
      <point x="608" y="462"/>
      <point x="477" y="588"/>
      <point x="321" y="588" type="curve" smooth="yes"/>
      <point x="165" y="588"/>
      <point x="34" y="462"/>
      <point x="34" y="306" type="curve" smooth="yes"/>
      <point x="34" y="151"/>
      <point x="164" y="23"/>
    </contour>
    <contour>
      <point x="321" y="556" type="curve" smooth="yes"/>
      <point x="460" y="556"/>
      <point x="568" y="445"/>
      <point x="568" y="306" type="curve" smooth="yes"/>
      <point x="568" y="167"/>
      <point x="459" y="55"/>
      <point x="321" y="55" type="curve" smooth="yes"/>
      <point x="181" y="55"/>
      <point x="74" y="168"/>
      <point x="74" y="306" type="curve" smooth="yes"/>
      <point x="74" y="445"/>
      <point x="181" y="556"/>
    </contour>
    <contour>
      <point x="376" y="370" type="curve" smooth="yes"/>
      <point x="376" y="324"/>
      <point x="358" y="312"/>
      <point x="328" y="312" type="curve" smooth="yes"/>
      <point x="286" y="312" type="line"/>
      <point x="286" y="387" type="line" smooth="yes"/>
      <point x="286" y="405"/>
      <point x="301" y="421"/>
      <point x="326" y="421" type="curve" smooth="yes"/>
      <point x="360" y="421"/>
      <point x="376" y="404"/>
    </contour>
    <contour>
      <point x="263" y="443" type="curve" smooth="yes"/>
      <point x="247" y="443"/>
      <point x="217" y="444"/>
      <point x="199" y="445" type="curve"/>
      <point x="195" y="441"/>
      <point x="195" y="425"/>
      <point x="199" y="421" type="curve"/>
      <point x="231" y="418"/>
      <point x="239" y="412"/>
      <point x="239" y="380" type="curve" smooth="yes"/>
      <point x="239" y="232" type="line" smooth="yes"/>
      <point x="239" y="200"/>
      <point x="231" y="194"/>
      <point x="199" y="191" type="curve"/>
      <point x="195" y="187"/>
      <point x="195" y="171"/>
      <point x="199" y="167" type="curve"/>
      <point x="217" y="168"/>
      <point x="247" y="169"/>
      <point x="263" y="169" type="curve" smooth="yes"/>
      <point x="279" y="169"/>
      <point x="308" y="168"/>
      <point x="326" y="167" type="curve"/>
      <point x="330" y="171"/>
      <point x="330" y="187"/>
      <point x="326" y="191" type="curve"/>
      <point x="294" y="194"/>
      <point x="286" y="200"/>
      <point x="286" y="232" type="curve" smooth="yes"/>
      <point x="286" y="288" type="line"/>
      <point x="291" y="288"/>
      <point x="319" y="287"/>
      <point x="323" y="284" type="curve"/>
      <point x="371" y="204" type="line" smooth="yes"/>
      <point x="388" y="175"/>
      <point x="412" y="166"/>
      <point x="432" y="166" type="curve" smooth="yes"/>
      <point x="444" y="166"/>
      <point x="456" y="168"/>
      <point x="468" y="173" type="curve"/>
      <point x="469" y="179"/>
      <point x="468" y="186"/>
      <point x="464" y="190" type="curve"/>
      <point x="448" y="187"/>
      <point x="432" y="195"/>
      <point x="421" y="214" type="curve" smooth="yes"/>
      <point x="373" y="296" type="line"/>
      <point x="404" y="306"/>
      <point x="430" y="331"/>
      <point x="430" y="370" type="curve" smooth="yes"/>
      <point x="430" y="400"/>
      <point x="410" y="445"/>
      <point x="335" y="445" type="curve" smooth="yes"/>
      <point x="315" y="445"/>
      <point x="279" y="443"/>
    </contour>
  </outline>
</glyph>
<glyph name="macron" format="1">
  <advance width="397"/>
  <unicode hex="00AF"/>
  <outline>
    <contour>
      <point x="315" y="529" type="line" smooth="yes"/>
      <point x="328" y="529"/>
      <point x="339" y="547"/>
      <point x="339" y="559" type="curve" smooth="yes"/>
      <point x="339" y="565"/>
      <point x="335" y="573"/>
      <point x="325" y="573" type="curve" smooth="yes"/>
      <point x="81" y="573" type="line" smooth="yes"/>
      <point x="69" y="573"/>
      <point x="59" y="556"/>
      <point x="59" y="544" type="curve" smooth="yes"/>
      <point x="59" y="537"/>
      <point x="62" y="529"/>
      <point x="71" y="529" type="curve" smooth="yes"/>
    </contour>
  </outline>
</glyph>
<glyph name="degree" format="1">
  <advance width="267"/>
  <unicode hex="00B0"/>
  <outline>
    <contour>
      <point x="199" y="508" type="curve" smooth="yes"/>
      <point x="199" y="474"/>
      <point x="175" y="439"/>
      <point x="134" y="439" type="curve" smooth="yes"/>
      <point x="92" y="439"/>
      <point x="68" y="473"/>
      <point x="68" y="508" type="curve" smooth="yes"/>
      <point x="68" y="544"/>
      <point x="91" y="580"/>
      <point x="134" y="580" type="curve" smooth="yes"/>
      <point x="179" y="580"/>
      <point x="199" y="541"/>
    </contour>
    <contour>
      <point x="34" y="509" type="curve" smooth="yes"/>
      <point x="34" y="454"/>
      <point x="79" y="409"/>
      <point x="134" y="409" type="curve" smooth="yes"/>
      <point x="189" y="409"/>
      <point x="233" y="454"/>
      <point x="233" y="509" type="curve" smooth="yes"/>
      <point x="233" y="565"/>
      <point x="189" y="610"/>
      <point x="134" y="610" type="curve" smooth="yes"/>
      <point x="79" y="610"/>
      <point x="34" y="565"/>
    </contour>
  </outline>
</glyph>
<glyph name="plusminus" format="1">
  <advance width="550"/>
  <unicode hex="00B1"/>
  <outline>
    <contour>
      <point x="250" y="520" type="curve" smooth="yes"/>
      <point x="250" y="361" type="line"/>
      <point x="85" y="361" type="line" smooth="yes"/>
      <point x="73" y="361"/>
      <point x="60" y="342"/>
      <point x="60" y="327" type="curve" smooth="yes"/>
      <point x="60" y="319"/>
      <point x="66" y="311"/>
      <point x="75" y="311" type="curve" smooth="yes"/>
      <point x="250" y="311" type="line"/>
      <point x="250" y="141" type="line" smooth="yes"/>
      <point x="250" y="132"/>
      <point x="258" y="126"/>
      <point x="266" y="126" type="curve" smooth="yes"/>
      <point x="281" y="126"/>
      <point x="300" y="139"/>
      <point x="300" y="151" type="curve" smooth="yes"/>
      <point x="300" y="311" type="line"/>
      <point x="463" y="311" type="line" smooth="yes"/>
      <point x="476" y="311"/>
      <point x="490" y="334"/>
      <point x="490" y="344" type="curve" smooth="yes"/>
      <point x="490" y="352"/>
      <point x="486" y="361"/>
      <point x="476" y="361" type="curve" smooth="yes"/>
      <point x="300" y="361" type="line"/>
      <point x="300" y="533" type="line" smooth="yes"/>
      <point x="300" y="543"/>
      <point x="291" y="547"/>
      <point x="283" y="547" type="curve" smooth="yes"/>
      <point x="273" y="547"/>
      <point x="250" y="533"/>
    </contour>
    <contour>
      <point x="463" y="37" type="line" smooth="yes"/>
      <point x="476" y="37"/>
      <point x="490" y="60"/>
      <point x="490" y="70" type="curve" smooth="yes"/>
      <point x="490" y="78"/>
      <point x="486" y="87"/>
      <point x="476" y="87" type="curve" smooth="yes"/>
      <point x="85" y="87" type="line" smooth="yes"/>
      <point x="73" y="87"/>
      <point x="60" y="68"/>
      <point x="60" y="53" type="curve" smooth="yes"/>
      <point x="60" y="45"/>
      <point x="66" y="37"/>
      <point x="75" y="37" type="curve" smooth="yes"/>
    </contour>
  </outline>
</glyph>
<glyph name="uni00B2" format="1">
  <advance width="307"/>
  <unicode hex="00B2"/>
  <outline>
    <contour>
      <point x="73" y="587" type="curve" smooth="yes"/>
      <point x="83" y="587"/>
      <point x="97" y="590"/>
      <point x="100" y="608" type="curve" smooth="yes"/>
      <point x="101" y="616"/>
      <point x="99" y="629"/>
      <point x="102" y="637" type="curve" smooth="yes"/>
      <point x="107" y="649"/>
      <point x="119" y="658"/>
      <point x="150" y="658" type="curve" smooth="yes"/>
      <point x="168" y="658"/>
      <point x="200" y="651"/>
      <point x="200" y="604" type="curve" smooth="yes"/>
      <point x="200" y="550"/>
      <point x="176" y="527"/>
      <point x="131" y="491" type="curve" smooth="yes"/>
      <point x="83" y="454"/>
      <point x="45" y="412"/>
      <point x="45" y="364" type="curve"/>
      <point x="251" y="364" type="line"/>
      <point x="260" y="391"/>
      <point x="266" y="422"/>
      <point x="270" y="458" type="curve"/>
      <point x="265" y="462"/>
      <point x="257" y="463"/>
      <point x="246" y="463" type="curve"/>
      <point x="235" y="435"/>
      <point x="221" y="396"/>
      <point x="190" y="396" type="curve" smooth="yes"/>
      <point x="107" y="396" type="line"/>
      <point x="116" y="429"/>
      <point x="131" y="456"/>
      <point x="173" y="486" type="curve" smooth="yes"/>
      <point x="229" y="526"/>
      <point x="262" y="559"/>
      <point x="262" y="605" type="curve" smooth="yes"/>
      <point x="262" y="669"/>
      <point x="204" y="688"/>
      <point x="154" y="688" type="curve" smooth="yes"/>
      <point x="75" y="688"/>
      <point x="47" y="637"/>
      <point x="47" y="611" type="curve" smooth="yes"/>
      <point x="47" y="598"/>
      <point x="61" y="587"/>
    </contour>
  </outline>
</glyph>
<glyph name="uni00B3" format="1">
  <advance width="307"/>
  <unicode hex="00B3"/>
  <outline>
    <contour>
      <point x="186" y="624" type="curve" smooth="yes"/>
      <point x="186" y="583"/>
      <point x="159" y="557"/>
      <point x="115" y="551" type="curve"/>
      <point x="112" y="542"/>
      <point x="112" y="531"/>
      <point x="117" y="524" type="curve"/>
      <point x="125" y="525"/>
      <point x="130" y="526"/>
      <point x="137" y="526" type="curve" smooth="yes"/>
      <point x="161" y="526"/>
      <point x="212" y="522"/>
      <point x="212" y="465" type="curve" smooth="yes"/>
      <point x="212" y="401"/>
      <point x="168" y="388"/>
      <point x="139" y="388" type="curve" smooth="yes"/>
      <point x="107" y="388"/>
      <point x="99" y="395"/>
      <point x="93" y="406" type="curve" smooth="yes"/>
      <point x="87" y="418"/>
      <point x="77" y="423"/>
      <point x="63" y="423" type="curve" smooth="yes"/>
      <point x="51" y="423"/>
      <point x="38" y="414"/>
      <point x="38" y="401" type="curve" smooth="yes"/>
      <point x="38" y="369"/>
      <point x="109" y="358"/>
      <point x="135" y="358" type="curve" smooth="yes"/>
      <point x="215" y="358"/>
      <point x="274" y="404"/>
      <point x="274" y="473" type="curve" smooth="yes"/>
      <point x="274" y="531"/>
      <point x="227" y="558"/>
      <point x="194" y="561" type="curve"/>
      <point x="223" y="577"/>
      <point x="245" y="600"/>
      <point x="245" y="629" type="curve" smooth="yes"/>
      <point x="245" y="666"/>
      <point x="212" y="688"/>
      <point x="160" y="688" type="curve" smooth="yes"/>
      <point x="73" y="688"/>
      <point x="46" y="640"/>
      <point x="46" y="623" type="curve" smooth="yes"/>
      <point x="46" y="620"/>
      <point x="50" y="605"/>
      <point x="69" y="605" type="curve" smooth="yes"/>
      <point x="92" y="605"/>
      <point x="91" y="623"/>
      <point x="96" y="634" type="curve" smooth="yes"/>
      <point x="103" y="650"/>
      <point x="131" y="658"/>
      <point x="148" y="658" type="curve" smooth="yes"/>
      <point x="164" y="658"/>
      <point x="186" y="650"/>
    </contour>
  </outline>
</glyph>
<glyph name="acute" format="1">
  <advance width="341"/>
  <unicode hex="00B4"/>
  <outline>
    <contour>
      <point x="175" y="703" type="curve"/>
      <point x="99" y="584" type="line" smooth="yes"/>
      <point x="91" y="571"/>
      <point x="88" y="567"/>
      <point x="88" y="556" type="curve" smooth="yes"/>
      <point x="88" y="549"/>
      <point x="95" y="543"/>
      <point x="102" y="543" type="curve" smooth="yes"/>
      <point x="109" y="543"/>
      <point x="117" y="547"/>
      <point x="132" y="562" type="curve" smooth="yes"/>
      <point x="247" y="671" type="line"/>
      <point x="244" y="682" type="line"/>
      <point x="221" y="704"/>
      <point x="195" y="705"/>
      <point x="189" y="705" type="curve" smooth="yes"/>
      <point x="184" y="705"/>
      <point x="178" y="704"/>
    </contour>
  </outline>
</glyph>
<glyph name="mu" format="1">
  <advance width="515"/>
  <unicode hex="00B5"/>
  <outline>
    <contour>
      <point x="340" y="60" type="curve"/>
      <point x="342" y="60" type="line"/>
      <point x="345" y="32"/>
      <point x="361" y="-10"/>
      <point x="422" y="-10" type="curve" smooth="yes"/>
      <point x="474" y="-10"/>
      <point x="510" y="30"/>
      <point x="510" y="35" type="curve" smooth="yes"/>
      <point x="510" y="42"/>
      <point x="502" y="50"/>
      <point x="498" y="50" type="curve" smooth="yes"/>
      <point x="492" y="50"/>
      <point x="489" y="34"/>
      <point x="463" y="34" type="curve" smooth="yes"/>
      <point x="422" y="34"/>
      <point x="421" y="75"/>
      <point x="421" y="121" type="curve" smooth="yes"/>
      <point x="421" y="439" type="line"/>
      <point x="395" y="436"/>
      <point x="367" y="429"/>
      <point x="342" y="429" type="curve"/>
      <point x="342" y="107" type="line"/>
      <point x="319" y="74"/>
      <point x="264" y="35"/>
      <point x="209" y="35" type="curve" smooth="yes"/>
      <point x="153" y="35"/>
      <point x="136" y="85"/>
      <point x="136" y="147" type="curve" smooth="yes"/>
      <point x="136" y="343" type="line" smooth="yes"/>
      <point x="136" y="375"/>
      <point x="133" y="439"/>
      <point x="133" y="439" type="curve"/>
      <point x="103" y="436"/>
      <point x="70" y="429"/>
      <point x="46" y="429" type="curve"/>
      <point x="46" y="429"/>
      <point x="57" y="350"/>
      <point x="57" y="322" type="curve" smooth="yes"/>
      <point x="57" y="134" type="line" smooth="yes"/>
      <point x="57" y="76"/>
      <point x="66" y="25"/>
      <point x="66" y="-8" type="curve" smooth="yes"/>
      <point x="66" y="-71"/>
      <point x="50" y="-118"/>
      <point x="50" y="-169" type="curve" smooth="yes"/>
      <point x="50" y="-210"/>
      <point x="90" y="-234"/>
      <point x="107" y="-234" type="curve" smooth="yes"/>
      <point x="131" y="-234"/>
      <point x="150" y="-215"/>
      <point x="150" y="-174" type="curve" smooth="yes"/>
      <point x="150" y="-131"/>
      <point x="116" y="-61"/>
      <point x="116" y="4" type="curve" smooth="yes"/>
      <point x="116" y="9"/>
      <point x="123" y="13"/>
      <point x="129" y="13" type="curve"/>
      <point x="141" y="0"/>
      <point x="167" y="-10"/>
      <point x="194" y="-10" type="curve" smooth="yes"/>
      <point x="258" y="-10"/>
      <point x="301" y="16"/>
    </contour>
  </outline>
</glyph>
<glyph name="paragraph" format="1">
  <advance width="602"/>
  <unicode hex="00B6"/>
  <outline>
    <contour>
      <point x="367" y="574" type="line" smooth="yes"/>
      <point x="367" y="601"/>
      <point x="384" y="612"/>
      <point x="407" y="612" type="curve" smooth="yes"/>
      <point x="430" y="612"/>
      <point x="448" y="605"/>
      <point x="448" y="574" type="curve" smooth="yes"/>
      <point x="448" y="-161" type="line" smooth="yes"/>
      <point x="448" y="-192"/>
      <point x="430" y="-199"/>
      <point x="407" y="-199" type="curve" smooth="yes"/>
      <point x="384" y="-199"/>
      <point x="367" y="-188"/>
      <point x="367" y="-161" type="curve" smooth="yes"/>
    </contour>
    <contour>
      <point x="408" y="645" type="curve" smooth="yes"/>
      <point x="381" y="645"/>
      <point x="322" y="647"/>
      <point x="247" y="647" type="curve" smooth="yes"/>
      <point x="115" y="647"/>
      <point x="57" y="560"/>
      <point x="57" y="481" type="curve" smooth="yes"/>
      <point x="57" y="347"/>
      <point x="139" y="282"/>
      <point x="285" y="282" type="curve" smooth="yes"/>
      <point x="300" y="282"/>
      <point x="308" y="283"/>
      <point x="317" y="285" type="curve"/>
      <point x="317" y="-161" type="line" smooth="yes"/>
      <point x="317" y="-189"/>
      <point x="305" y="-200"/>
      <point x="263" y="-203" type="curve" smooth="yes"/>
      <point x="236" y="-205" type="line"/>
      <point x="232" y="-205"/>
      <point x="229" y="-208"/>
      <point x="229" y="-213" type="curve" smooth="yes"/>
      <point x="229" y="-232" type="line"/>
      <point x="231" y="-234" type="line"/>
      <point x="280" y="-232"/>
      <point x="339" y="-232"/>
      <point x="408" y="-232" type="curve" smooth="yes"/>
      <point x="477" y="-232"/>
      <point x="538" y="-232"/>
      <point x="585" y="-234" type="curve"/>
      <point x="587" y="-232" type="line"/>
      <point x="587" y="-213" type="line" smooth="yes"/>
      <point x="587" y="-208"/>
      <point x="583" y="-205"/>
      <point x="579" y="-205" type="curve"/>
      <point x="553" y="-203" type="line" smooth="yes"/>
      <point x="513" y="-200"/>
      <point x="498" y="-191"/>
      <point x="498" y="-161" type="curve" smooth="yes"/>
      <point x="498" y="574" type="line" smooth="yes"/>
      <point x="498" y="604"/>
      <point x="513" y="613"/>
      <point x="553" y="616" type="curve" smooth="yes"/>
      <point x="579" y="618" type="line"/>
      <point x="583" y="618"/>
      <point x="587" y="621"/>
      <point x="587" y="626" type="curve" smooth="yes"/>
      <point x="587" y="645" type="line"/>
      <point x="585" y="647" type="line"/>
      <point x="538" y="645"/>
      <point x="477" y="645"/>
    </contour>
  </outline>
</glyph>
<glyph name="periodcentered" format="1">
  <advance width="250"/>
  <unicode hex="00B7"/>
  <outline>
    <contour>
      <point x="125" y="199" type="curve" smooth="yes"/>
      <point x="153" y="199"/>
      <point x="179" y="225"/>
      <point x="179" y="253" type="curve" smooth="yes"/>
      <point x="179" y="281"/>
      <point x="153" y="307"/>
      <point x="125" y="307" type="curve" smooth="yes"/>
      <point x="97" y="307"/>
      <point x="71" y="281"/>
      <point x="71" y="253" type="curve" smooth="yes"/>
      <point x="71" y="225"/>
      <point x="97" y="199"/>
    </contour>
  </outline>
</glyph>
<glyph name="cedilla" format="1">
  <advance width="541"/>
  <unicode hex="00B8"/>
  <outline>
    <contour>
      <point x="302" y="-96" type="curve" smooth="yes"/>
      <point x="325" y="-96"/>
      <point x="335" y="-110"/>
      <point x="335" y="-131" type="curve" smooth="yes"/>
      <point x="335" y="-157"/>
      <point x="314" y="-171"/>
      <point x="284" y="-171" type="curve" smooth="yes"/>
      <point x="264" y="-171"/>
      <point x="253" y="-167"/>
      <point x="226" y="-157" type="curve"/>
      <point x="219" y="-164"/>
      <point x="216" y="-171"/>
      <point x="216" y="-183" type="curve"/>
      <point x="241" y="-194"/>
      <point x="258" y="-200"/>
      <point x="290" y="-200" type="curve" smooth="yes"/>
      <point x="351" y="-200"/>
      <point x="397" y="-169"/>
      <point x="397" y="-126" type="curve" smooth="yes"/>
      <point x="397" y="-88"/>
      <point x="366" y="-64"/>
      <point x="326" y="-64" type="curve" smooth="yes"/>
      <point x="317" y="-64"/>
      <point x="308" y="-65"/>
      <point x="300" y="-67" type="curve"/>
      <point x="325" y="0" type="line"/>
      <point x="291" y="0" type="line"/>
      <point x="251" y="-96" type="line"/>
      <point x="257" y="-102" type="line"/>
      <point x="273" y="-97"/>
      <point x="283" y="-96"/>
    </contour>
  </outline>
</glyph>
<glyph name="uni00B9" format="1">
  <advance width="307"/>
  <unicode hex="00B9"/>
  <outline>
    <contour>
      <point x="135" y="620" type="curve" smooth="yes"/>
      <point x="147" y="620"/>
      <point x="149" y="611"/>
      <point x="149" y="579" type="curve" smooth="yes"/>
      <point x="149" y="449" type="line" smooth="yes"/>
      <point x="149" y="398"/>
      <point x="118" y="395"/>
      <point x="78" y="393" type="curve"/>
      <point x="73" y="385"/>
      <point x="74" y="370"/>
      <point x="78" y="364" type="curve"/>
      <point x="108" y="365"/>
      <point x="139" y="365"/>
      <point x="174" y="365" type="curve" smooth="yes"/>
      <point x="207" y="365"/>
      <point x="228" y="365"/>
      <point x="258" y="364" type="curve"/>
      <point x="262" y="371"/>
      <point x="262" y="385"/>
      <point x="258" y="393" type="curve"/>
      <point x="224" y="395"/>
      <point x="203" y="398"/>
      <point x="203" y="449" type="curve" smooth="yes"/>
      <point x="203" y="688" type="line"/>
      <point x="198" y="693"/>
      <point x="190" y="691"/>
      <point x="185" y="688" type="curve" smooth="yes"/>
      <point x="141" y="661"/>
      <point x="115" y="649"/>
      <point x="68" y="632" type="curve"/>
      <point x="68" y="620"/>
      <point x="70" y="611"/>
      <point x="78" y="605" type="curve"/>
      <point x="103" y="614"/>
      <point x="122" y="620"/>
    </contour>
  </outline>
</glyph>
<glyph name="ordmasculine" format="1">
  <advance width="349"/>
  <unicode hex="00BA"/>
  <outline>
    <contour>
      <point x="39" y="483" type="curve" smooth="yes"/>
      <point x="39" y="412"/>
      <point x="98" y="357"/>
      <point x="172" y="357" type="curve" smooth="yes"/>
      <point x="266" y="357"/>
      <point x="311" y="424"/>
      <point x="311" y="489" type="curve" smooth="yes"/>
      <point x="311" y="558"/>
      <point x="266" y="620"/>
      <point x="179" y="620" type="curve" smooth="yes"/>
      <point x="93" y="620"/>
      <point x="39" y="564"/>
    </contour>
    <contour>
      <point x="171" y="594" type="curve" smooth="yes"/>
      <point x="221" y="594"/>
      <point x="253" y="553"/>
      <point x="253" y="473" type="curve" smooth="yes"/>
      <point x="253" y="401"/>
      <point x="210" y="383"/>
      <point x="183" y="383" type="curve" smooth="yes"/>
      <point x="123" y="383"/>
      <point x="97" y="444"/>
      <point x="97" y="493" type="curve" smooth="yes"/>
      <point x="97" y="547"/>
      <point x="121" y="594"/>
    </contour>
  </outline>
</glyph>
<glyph name="guillemotright" format="1">
  <advance width="543"/>
  <unicode hex="00BB"/>
  <outline>
    <contour>
      <point x="387" y="215" type="curve"/>
      <point x="350" y="173"/>
      <point x="312" y="124"/>
      <point x="260" y="45" type="curve"/>
      <point x="263" y="35"/>
      <point x="274" y="27"/>
      <point x="284" y="26" type="curve"/>
      <point x="364" y="112"/>
      <point x="414" y="160"/>
      <point x="469" y="209" type="curve"/>
      <point x="469" y="221" type="line"/>
      <point x="414" y="270"/>
      <point x="364" y="319"/>
      <point x="284" y="404" type="curve"/>
      <point x="274" y="403"/>
      <point x="263" y="395"/>
      <point x="260" y="385" type="curve"/>
      <point x="312" y="306"/>
      <point x="350" y="258"/>
    </contour>
    <contour>
      <point x="207" y="215" type="curve"/>
      <point x="170" y="173"/>
      <point x="132" y="124"/>
      <point x="80" y="45" type="curve"/>
      <point x="83" y="35"/>
      <point x="94" y="27"/>
      <point x="104" y="26" type="curve"/>
      <point x="184" y="112"/>
      <point x="234" y="160"/>
      <point x="289" y="209" type="curve"/>
      <point x="289" y="221" type="line"/>
      <point x="234" y="270"/>
      <point x="184" y="319"/>
      <point x="104" y="404" type="curve"/>
      <point x="94" y="403"/>
      <point x="83" y="395"/>
      <point x="80" y="385" type="curve"/>
      <point x="132" y="306"/>
      <point x="170" y="258"/>
    </contour>
  </outline>
</glyph>
<glyph name="onequarter" format="1">
  <advance width="660"/>
  <unicode hex="00BC"/>
  <outline>
    <contour>
      <point x="132" y="571" type="curve" smooth="yes"/>
      <point x="144" y="571"/>
      <point x="146" y="562"/>
      <point x="146" y="530" type="curve" smooth="yes"/>
      <point x="146" y="400" type="line" smooth="yes"/>
      <point x="146" y="349"/>
      <point x="115" y="346"/>
      <point x="75" y="344" type="curve"/>
      <point x="70" y="336"/>
      <point x="71" y="321"/>
      <point x="75" y="315" type="curve"/>
      <point x="105" y="316"/>
      <point x="136" y="316"/>
      <point x="171" y="316" type="curve" smooth="yes"/>
      <point x="204" y="316"/>
      <point x="225" y="316"/>
      <point x="255" y="315" type="curve"/>
      <point x="259" y="322"/>
      <point x="259" y="336"/>
      <point x="255" y="344" type="curve"/>
      <point x="221" y="346"/>
      <point x="200" y="349"/>
      <point x="200" y="400" type="curve" smooth="yes"/>
      <point x="200" y="639" type="line"/>
      <point x="195" y="644"/>
      <point x="187" y="642"/>
      <point x="182" y="639" type="curve" smooth="yes"/>
      <point x="138" y="612"/>
      <point x="112" y="600"/>
      <point x="65" y="583" type="curve"/>
      <point x="65" y="571"/>
      <point x="67" y="562"/>
      <point x="75" y="556" type="curve"/>
      <point x="100" y="565"/>
      <point x="119" y="571"/>
    </contour>
    <contour>
      <point x="528" y="192" type="curve"/>
      <point x="528" y="52" type="line"/>
      <point x="430" y="52" type="line"/>
      <point x="437" y="70"/>
      <point x="489" y="143"/>
    </contour>
    <contour>
      <point x="528" y="-6" type="line" smooth="yes"/>
      <point x="528" y="-47"/>
      <point x="515" y="-50"/>
      <point x="475" y="-52" type="curve"/>
      <point x="470" y="-60"/>
      <point x="471" y="-75"/>
      <point x="475" y="-81" type="curve"/>
      <point x="505" y="-80"/>
      <point x="518" y="-80"/>
      <point x="553" y="-80" type="curve" smooth="yes"/>
      <point x="583" y="-80"/>
      <point x="601" y="-80"/>
      <point x="631" y="-81" type="curve"/>
      <point x="635" y="-74"/>
      <point x="635" y="-60"/>
      <point x="631" y="-52" type="curve"/>
      <point x="597" y="-50"/>
      <point x="580" y="-47"/>
      <point x="580" y="-6" type="curve" smooth="yes"/>
      <point x="580" y="18" type="line"/>
      <point x="630" y="18" type="line"/>
      <point x="636" y="52" type="line"/>
      <point x="580" y="52" type="line"/>
      <point x="580" y="232" type="line" smooth="yes"/>
      <point x="580" y="241"/>
      <point x="568" y="242"/>
      <point x="561" y="242" type="curve" smooth="yes"/>
      <point x="558" y="242"/>
      <point x="549" y="242"/>
      <point x="548" y="241" type="curve"/>
      <point x="532" y="232"/>
      <point x="521" y="220"/>
      <point x="512" y="210" type="curve" smooth="yes"/>
      <point x="477" y="169"/>
      <point x="433" y="117"/>
      <point x="400" y="63" type="curve" smooth="yes"/>
      <point x="396" y="57"/>
      <point x="393" y="52"/>
      <point x="390" y="46" type="curve"/>
      <point x="388" y="38"/>
      <point x="383" y="18"/>
      <point x="409" y="18" type="curve" smooth="yes"/>
      <point x="528" y="18" type="line"/>
    </contour>
    <contour>
      <point x="557" y="601" type="line"/>
      <point x="98" y="-54" type="line"/>
      <point x="140" y="-62" type="line"/>
      <point x="598" y="593" type="line"/>
    </contour>
  </outline>
</glyph>
<glyph name="onehalf" format="1">
  <advance width="660"/>
  <unicode hex="00BD"/>
  <outline>
    <contour>
      <point x="431" y="144" type="curve" smooth="yes"/>
      <point x="441" y="144"/>
      <point x="455" y="147"/>
      <point x="458" y="165" type="curve" smooth="yes"/>
      <point x="459" y="173"/>
      <point x="457" y="186"/>
      <point x="460" y="194" type="curve" smooth="yes"/>
      <point x="465" y="206"/>
      <point x="477" y="215"/>
      <point x="508" y="215" type="curve" smooth="yes"/>
      <point x="526" y="215"/>
      <point x="558" y="208"/>
      <point x="558" y="161" type="curve" smooth="yes"/>
      <point x="558" y="107"/>
      <point x="534" y="84"/>
      <point x="489" y="48" type="curve" smooth="yes"/>
      <point x="441" y="11"/>
      <point x="403" y="-31"/>
      <point x="403" y="-79" type="curve"/>
      <point x="609" y="-79" type="line"/>
      <point x="618" y="-52"/>
      <point x="624" y="-21"/>
      <point x="628" y="15" type="curve"/>
      <point x="623" y="19"/>
      <point x="615" y="20"/>
      <point x="604" y="20" type="curve"/>
      <point x="593" y="-8"/>
      <point x="579" y="-47"/>
      <point x="548" y="-47" type="curve" smooth="yes"/>
      <point x="465" y="-47" type="line"/>
      <point x="474" y="-14"/>
      <point x="489" y="13"/>
      <point x="531" y="43" type="curve" smooth="yes"/>
      <point x="587" y="83"/>
      <point x="620" y="116"/>
      <point x="620" y="162" type="curve" smooth="yes"/>
      <point x="620" y="226"/>
      <point x="562" y="245"/>
      <point x="512" y="245" type="curve" smooth="yes"/>
      <point x="433" y="245"/>
      <point x="405" y="194"/>
      <point x="405" y="168" type="curve" smooth="yes"/>
      <point x="405" y="155"/>
      <point x="419" y="144"/>
    </contour>
    <contour>
      <point x="134" y="571" type="curve" smooth="yes"/>
      <point x="146" y="571"/>
      <point x="148" y="562"/>
      <point x="148" y="530" type="curve" smooth="yes"/>
      <point x="148" y="400" type="line" smooth="yes"/>
      <point x="148" y="349"/>
      <point x="117" y="346"/>
      <point x="77" y="344" type="curve"/>
      <point x="72" y="336"/>
      <point x="73" y="321"/>
      <point x="77" y="315" type="curve"/>
      <point x="107" y="316"/>
      <point x="138" y="316"/>
      <point x="173" y="316" type="curve" smooth="yes"/>
      <point x="206" y="316"/>
      <point x="227" y="316"/>
      <point x="257" y="315" type="curve"/>
      <point x="261" y="322"/>
      <point x="261" y="336"/>
      <point x="257" y="344" type="curve"/>
      <point x="223" y="346"/>
      <point x="202" y="349"/>
      <point x="202" y="400" type="curve" smooth="yes"/>
      <point x="202" y="639" type="line"/>
      <point x="197" y="644"/>
      <point x="189" y="642"/>
      <point x="184" y="639" type="curve" smooth="yes"/>
      <point x="140" y="612"/>
      <point x="114" y="600"/>
      <point x="67" y="583" type="curve"/>
      <point x="67" y="571"/>
      <point x="69" y="562"/>
      <point x="77" y="556" type="curve"/>
      <point x="102" y="565"/>
      <point x="121" y="571"/>
    </contour>
    <contour>
      <point x="532" y="601" type="line"/>
      <point x="74" y="-54" type="line"/>
      <point x="115" y="-62" type="line"/>
      <point x="574" y="593" type="line"/>
    </contour>
  </outline>
</glyph>
<glyph name="threequarters" format="1">
  <advance width="660"/>
  <unicode hex="00BE"/>
  <outline>
    <contour>
      <point x="184" y="573" type="curve" smooth="yes"/>
      <point x="184" y="532"/>
      <point x="157" y="506"/>
      <point x="113" y="500" type="curve"/>
      <point x="110" y="491"/>
      <point x="110" y="480"/>
      <point x="115" y="473" type="curve"/>
      <point x="123" y="474"/>
      <point x="128" y="475"/>
      <point x="135" y="475" type="curve" smooth="yes"/>
      <point x="159" y="475"/>
      <point x="210" y="471"/>
      <point x="210" y="414" type="curve" smooth="yes"/>
      <point x="210" y="350"/>
      <point x="166" y="337"/>
      <point x="137" y="337" type="curve" smooth="yes"/>
      <point x="105" y="337"/>
      <point x="97" y="344"/>
      <point x="91" y="355" type="curve" smooth="yes"/>
      <point x="85" y="367"/>
      <point x="75" y="372"/>
      <point x="61" y="372" type="curve" smooth="yes"/>
      <point x="49" y="372"/>
      <point x="36" y="363"/>
      <point x="36" y="350" type="curve" smooth="yes"/>
      <point x="36" y="318"/>
      <point x="107" y="307"/>
      <point x="133" y="307" type="curve" smooth="yes"/>
      <point x="213" y="307"/>
      <point x="272" y="353"/>
      <point x="272" y="422" type="curve" smooth="yes"/>
      <point x="272" y="480"/>
      <point x="225" y="507"/>
      <point x="192" y="510" type="curve"/>
      <point x="221" y="526"/>
      <point x="243" y="549"/>
      <point x="243" y="578" type="curve" smooth="yes"/>
      <point x="243" y="615"/>
      <point x="210" y="637"/>
      <point x="158" y="637" type="curve" smooth="yes"/>
      <point x="71" y="637"/>
      <point x="44" y="589"/>
      <point x="44" y="572" type="curve" smooth="yes"/>
      <point x="44" y="569"/>
      <point x="48" y="554"/>
      <point x="67" y="554" type="curve" smooth="yes"/>
      <point x="90" y="554"/>
      <point x="89" y="572"/>
      <point x="94" y="583" type="curve" smooth="yes"/>
      <point x="101" y="599"/>
      <point x="129" y="607"/>
      <point x="146" y="607" type="curve" smooth="yes"/>
      <point x="162" y="607"/>
      <point x="184" y="599"/>
    </contour>
    <contour>
      <point x="532" y="194" type="curve"/>
      <point x="532" y="54" type="line"/>
      <point x="434" y="54" type="line"/>
      <point x="441" y="72"/>
      <point x="493" y="145"/>
    </contour>
    <contour>
      <point x="532" y="-4" type="line" smooth="yes"/>
      <point x="532" y="-45"/>
      <point x="519" y="-48"/>
      <point x="479" y="-50" type="curve"/>
      <point x="474" y="-58"/>
      <point x="475" y="-73"/>
      <point x="479" y="-79" type="curve"/>
      <point x="509" y="-78"/>
      <point x="522" y="-78"/>
      <point x="557" y="-78" type="curve" smooth="yes"/>
      <point x="587" y="-78"/>
      <point x="605" y="-78"/>
      <point x="635" y="-79" type="curve"/>
      <point x="639" y="-72"/>
      <point x="639" y="-58"/>
      <point x="635" y="-50" type="curve"/>
      <point x="601" y="-48"/>
      <point x="584" y="-45"/>
      <point x="584" y="-4" type="curve" smooth="yes"/>
      <point x="584" y="20" type="line"/>
      <point x="634" y="20" type="line"/>
      <point x="640" y="54" type="line"/>
      <point x="584" y="54" type="line"/>
      <point x="584" y="234" type="line" smooth="yes"/>
      <point x="584" y="243"/>
      <point x="572" y="244"/>
      <point x="565" y="244" type="curve" smooth="yes"/>
      <point x="562" y="244"/>
      <point x="553" y="244"/>
      <point x="552" y="243" type="curve"/>
      <point x="536" y="234"/>
      <point x="525" y="222"/>
      <point x="516" y="212" type="curve" smooth="yes"/>
      <point x="481" y="171"/>
      <point x="437" y="119"/>
      <point x="404" y="65" type="curve" smooth="yes"/>
      <point x="400" y="59"/>
      <point x="397" y="54"/>
      <point x="394" y="48" type="curve"/>
      <point x="392" y="40"/>
      <point x="387" y="20"/>
      <point x="413" y="20" type="curve" smooth="yes"/>
      <point x="532" y="20" type="line"/>
    </contour>
    <contour>
      <point x="562" y="601" type="line"/>
      <point x="103" y="-54" type="line"/>
      <point x="145" y="-62" type="line"/>
      <point x="603" y="593" type="line"/>
    </contour>
  </outline>
</glyph>
<glyph name="questiondown" format="1">
  <advance width="435"/>
  <unicode hex="00BF"/>
  <outline>
    <contour>
      <point x="185" y="386" type="curve" smooth="yes"/>
      <point x="185" y="357"/>
      <point x="209" y="333"/>
      <point x="238" y="333" type="curve" smooth="yes"/>
      <point x="267" y="333"/>
      <point x="291" y="357"/>
      <point x="291" y="386" type="curve" smooth="yes"/>
      <point x="291" y="415"/>
      <point x="267" y="439"/>
      <point x="238" y="439" type="curve" smooth="yes"/>
      <point x="209" y="439"/>
      <point x="185" y="415"/>
    </contour>
    <contour>
      <point x="321" y="-143" type="curve" smooth="yes"/>
      <point x="321" y="-173"/>
      <point x="281" y="-197"/>
      <point x="224" y="-197" type="curve" smooth="yes"/>
      <point x="167" y="-197"/>
      <point x="129" y="-140"/>
      <point x="129" y="-75" type="curve" smooth="yes"/>
      <point x="129" y="-28"/>
      <point x="144" y="1"/>
      <point x="184" y="38" type="curve" smooth="yes"/>
      <point x="249" y="97"/>
      <point x="254" y="156"/>
      <point x="254" y="199" type="curve" smooth="yes"/>
      <point x="254" y="245" type="line" smooth="yes"/>
      <point x="254" y="252"/>
      <point x="246" y="255"/>
      <point x="238" y="255" type="curve" smooth="yes"/>
      <point x="230" y="255"/>
      <point x="221" y="252"/>
      <point x="221" y="245" type="curve" smooth="yes"/>
      <point x="221" y="201" type="line" smooth="yes"/>
      <point x="221" y="177"/>
      <point x="220" y="153"/>
      <point x="207" y="128" type="curve" smooth="yes"/>
      <point x="198" y="111"/>
      <point x="178" y="95"/>
      <point x="155" y="78" type="curve" smooth="yes"/>
      <point x="108" y="44"/>
      <point x="46" y="0"/>
      <point x="46" y="-79" type="curve" smooth="yes"/>
      <point x="46" y="-170"/>
      <point x="112" y="-230"/>
      <point x="214" y="-230" type="curve" smooth="yes"/>
      <point x="267" y="-230"/>
      <point x="309" y="-216"/>
      <point x="338" y="-191" type="curve" smooth="yes"/>
      <point x="368" y="-167"/>
      <point x="389" y="-139"/>
      <point x="389" y="-101" type="curve" smooth="yes"/>
      <point x="389" y="-66"/>
      <point x="364" y="-58"/>
      <point x="348" y="-58" type="curve" smooth="yes"/>
      <point x="329" y="-58"/>
      <point x="309" y="-70"/>
      <point x="309" y="-93" type="curve" smooth="yes"/>
      <point x="309" y="-106"/>
      <point x="311" y="-112"/>
      <point x="315" y="-117" type="curve" smooth="yes"/>
      <point x="319" y="-122"/>
      <point x="321" y="-128"/>
    </contour>
  </outline>
</glyph>
<glyph name="Agrave" format="1">
  <advance width="695"/>
  <unicode hex="00C0"/>
  <outline>
    <contour>
      <point x="263" y="283" type="line" smooth="yes"/>
      <point x="241" y="283"/>
      <point x="234" y="286"/>
      <point x="238" y="296" type="curve" smooth="yes"/>
      <point x="340" y="555" type="line"/>
      <point x="346" y="555" type="line"/>
      <point x="440" y="283" type="line"/>
    </contour>
    <contour>
      <point x="155" y="79" type="curve" smooth="yes"/>
      <point x="210" y="224" type="line" smooth="yes"/>
      <point x="215" y="237"/>
      <point x="221" y="241"/>
      <point x="245" y="241" type="curve" smooth="yes"/>
      <point x="456" y="241" type="line"/>
      <point x="514" y="72" type="line" smooth="yes"/>
      <point x="526" y="38"/>
      <point x="488" y="34"/>
      <point x="440" y="31" type="curve"/>
      <point x="434" y="25"/>
      <point x="434" y="4"/>
      <point x="440" y="-2" type="curve"/>
      <point x="477" y="-1"/>
      <point x="532" y="0"/>
      <point x="571" y="0" type="curve" smooth="yes"/>
      <point x="612" y="0"/>
      <point x="650" y="-1"/>
      <point x="685" y="-2" type="curve"/>
      <point x="691" y="4"/>
      <point x="691" y="25"/>
      <point x="685" y="31" type="curve"/>
      <point x="646" y="35"/>
      <point x="612" y="38"/>
      <point x="595" y="86" type="curve" smooth="yes"/>
      <point x="389" y="658" type="line"/>
      <point x="374" y="649"/>
      <point x="347" y="638"/>
      <point x="334" y="638" type="curve"/>
      <point x="107" y="102" type="line" smooth="yes"/>
      <point x="81" y="40"/>
      <point x="51" y="34"/>
      <point x="7" y="31" type="curve"/>
      <point x="1" y="25"/>
      <point x="1" y="4"/>
      <point x="7" y="-2" type="curve"/>
      <point x="33" y="-1"/>
      <point x="66" y="0"/>
      <point x="96" y="0" type="curve" smooth="yes"/>
      <point x="137" y="0"/>
      <point x="187" y="-1"/>
      <point x="224" y="-2" type="curve"/>
      <point x="230" y="4"/>
      <point x="230" y="25"/>
      <point x="224" y="31" type="curve"/>
      <point x="186" y="34"/>
      <point x="139" y="38"/>
    </contour>
    <contour>
      <point x="284" y="818" type="line"/>
      <point x="250" y="806"/>
      <point x="226" y="791"/>
      <point x="208" y="773" type="curve"/>
      <point x="362" y="710" type="line" smooth="yes"/>
      <point x="383" y="701"/>
      <point x="397" y="698"/>
      <point x="405" y="698" type="curve" smooth="yes"/>
      <point x="413" y="698"/>
      <point x="420" y="705"/>
      <point x="420" y="713" type="curve" smooth="yes"/>
      <point x="420" y="720"/>
      <point x="416" y="726"/>
      <point x="405" y="734" type="curve" smooth="yes"/>
    </contour>
  </outline>
</glyph>
<glyph name="Atilde" format="1">
  <advance width="695"/>
  <unicode hex="00C3"/>
  <outline>
    <contour>
      <point x="263" y="283" type="line" smooth="yes"/>
      <point x="241" y="283"/>
      <point x="234" y="286"/>
      <point x="238" y="296" type="curve" smooth="yes"/>
      <point x="340" y="555" type="line"/>
      <point x="346" y="555" type="line"/>
      <point x="440" y="283" type="line"/>
    </contour>
    <contour>
      <point x="155" y="79" type="curve" smooth="yes"/>
      <point x="210" y="224" type="line" smooth="yes"/>
      <point x="215" y="237"/>
      <point x="221" y="241"/>
      <point x="245" y="241" type="curve" smooth="yes"/>
      <point x="456" y="241" type="line"/>
      <point x="514" y="72" type="line" smooth="yes"/>
      <point x="526" y="38"/>
      <point x="488" y="34"/>
      <point x="440" y="31" type="curve"/>
      <point x="434" y="25"/>
      <point x="434" y="4"/>
      <point x="440" y="-2" type="curve"/>
      <point x="477" y="-1"/>
      <point x="532" y="0"/>
      <point x="571" y="0" type="curve" smooth="yes"/>
      <point x="612" y="0"/>
      <point x="650" y="-1"/>
      <point x="685" y="-2" type="curve"/>
      <point x="691" y="4"/>
      <point x="691" y="25"/>
      <point x="685" y="31" type="curve"/>
      <point x="646" y="35"/>
      <point x="612" y="38"/>
      <point x="595" y="86" type="curve" smooth="yes"/>
      <point x="389" y="658" type="line"/>
      <point x="374" y="649"/>
      <point x="347" y="638"/>
      <point x="334" y="638" type="curve"/>
      <point x="107" y="102" type="line" smooth="yes"/>
      <point x="81" y="40"/>
      <point x="51" y="34"/>
      <point x="7" y="31" type="curve"/>
      <point x="1" y="25"/>
      <point x="1" y="4"/>
      <point x="7" y="-2" type="curve"/>
      <point x="33" y="-1"/>
      <point x="66" y="0"/>
      <point x="96" y="0" type="curve" smooth="yes"/>
      <point x="137" y="0"/>
      <point x="187" y="-1"/>
      <point x="224" y="-2" type="curve"/>
      <point x="230" y="4"/>
      <point x="230" y="25"/>
      <point x="224" y="31" type="curve"/>
      <point x="186" y="34"/>
      <point x="139" y="38"/>
    </contour>
    <contour>
      <point x="422" y="747" type="curve" smooth="yes"/>
      <point x="403" y="747"/>
      <point x="386" y="754"/>
      <point x="370" y="766" type="curve" smooth="yes"/>
      <point x="350" y="780"/>
      <point x="328" y="800"/>
      <point x="298" y="800" type="curve" smooth="yes"/>
      <point x="255" y="800"/>
      <point x="232" y="761"/>
      <point x="218" y="702" type="curve"/>
      <point x="224" y="696"/>
      <point x="234" y="695"/>
      <point x="245" y="697" type="curve"/>
      <point x="255" y="730"/>
      <point x="265" y="745"/>
      <point x="291" y="745" type="curve" smooth="yes"/>
      <point x="308" y="745"/>
      <point x="327" y="737"/>
      <point x="345" y="726" type="curve" smooth="yes"/>
      <point x="366" y="712"/>
      <point x="387" y="694"/>
      <point x="409" y="694" type="curve" smooth="yes"/>
      <point x="455" y="694"/>
      <point x="484" y="733"/>
      <point x="496" y="793" type="curve"/>
      <point x="490" y="797"/>
      <point x="480" y="800"/>
      <point x="469" y="799" type="curve"/>
      <point x="455" y="757"/>
      <point x="444" y="747"/>
    </contour>
  </outline>
</glyph>
<glyph name="Igrave" format="1">
  <advance width="297"/>
  <unicode hex="00CC"/>
  <outline>
    <contour>
      <point x="191" y="122" type="curve" smooth="yes"/>
      <point x="191" y="523" type="line" smooth="yes"/>
      <point x="191" y="606"/>
      <point x="208" y="611"/>
      <point x="278" y="614" type="curve"/>
      <point x="284" y="620"/>
      <point x="284" y="641"/>
      <point x="278" y="647" type="curve"/>
      <point x="234" y="646"/>
      <point x="187" y="645"/>
      <point x="148" y="645" type="curve" smooth="yes"/>
      <point x="115" y="645"/>
      <point x="66" y="646"/>
      <point x="19" y="647" type="curve"/>
      <point x="13" y="641"/>
      <point x="13" y="620"/>
      <point x="19" y="614" type="curve"/>
      <point x="89" y="611"/>
      <point x="106" y="606"/>
      <point x="106" y="523" type="curve" smooth="yes"/>
      <point x="106" y="122" type="line" smooth="yes"/>
      <point x="106" y="39"/>
      <point x="89" y="34"/>
      <point x="19" y="31" type="curve"/>
      <point x="13" y="25"/>
      <point x="13" y="4"/>
      <point x="19" y="-2" type="curve"/>
      <point x="64" y="-1"/>
      <point x="113" y="0"/>
      <point x="149" y="0" type="curve" smooth="yes"/>
      <point x="185" y="0"/>
      <point x="233" y="-1"/>
      <point x="278" y="-2" type="curve"/>
      <point x="284" y="4"/>
      <point x="284" y="25"/>
      <point x="278" y="31" type="curve"/>
      <point x="208" y="34"/>
      <point x="191" y="39"/>
    </contour>
    <contour>
      <point x="99" y="817" type="line"/>
      <point x="65" y="805"/>
      <point x="41" y="790"/>
      <point x="23" y="772" type="curve"/>
      <point x="177" y="709" type="line" smooth="yes"/>
      <point x="198" y="700"/>
      <point x="212" y="697"/>
      <point x="220" y="697" type="curve" smooth="yes"/>
      <point x="228" y="697"/>
      <point x="235" y="704"/>
      <point x="235" y="712" type="curve" smooth="yes"/>
      <point x="235" y="719"/>
      <point x="231" y="725"/>
      <point x="220" y="733" type="curve" smooth="yes"/>
    </contour>
  </outline>
</glyph>
<glyph name="Iacute" format="1">
  <advance width="297"/>
  <unicode hex="00CD"/>
  <outline>
    <contour>
      <point x="191" y="122" type="curve" smooth="yes"/>
      <point x="191" y="523" type="line" smooth="yes"/>
      <point x="191" y="606"/>
      <point x="208" y="611"/>
      <point x="278" y="614" type="curve"/>
      <point x="284" y="620"/>
      <point x="284" y="641"/>
      <point x="278" y="647" type="curve"/>
      <point x="234" y="646"/>
      <point x="187" y="645"/>
      <point x="148" y="645" type="curve" smooth="yes"/>
      <point x="115" y="645"/>
      <point x="66" y="646"/>
      <point x="19" y="647" type="curve"/>
      <point x="13" y="641"/>
      <point x="13" y="620"/>
      <point x="19" y="614" type="curve"/>
      <point x="89" y="611"/>
      <point x="106" y="606"/>
      <point x="106" y="523" type="curve" smooth="yes"/>
      <point x="106" y="122" type="line" smooth="yes"/>
      <point x="106" y="39"/>
      <point x="89" y="34"/>
      <point x="19" y="31" type="curve"/>
      <point x="13" y="25"/>
      <point x="13" y="4"/>
      <point x="19" y="-2" type="curve"/>
      <point x="64" y="-1"/>
      <point x="113" y="0"/>
      <point x="149" y="0" type="curve" smooth="yes"/>
      <point x="185" y="0"/>
      <point x="233" y="-1"/>
      <point x="278" y="-2" type="curve"/>
      <point x="284" y="4"/>
      <point x="284" y="25"/>
      <point x="278" y="31" type="curve"/>
      <point x="208" y="34"/>
      <point x="191" y="39"/>
    </contour>
    <contour>
      <point x="210" y="819" type="curve"/>
      <point x="86" y="733" type="line" smooth="yes"/>
      <point x="73" y="724"/>
      <point x="71" y="719"/>
      <point x="71" y="712" type="curve" smooth="yes"/>
      <point x="71" y="704"/>
      <point x="77" y="697"/>
      <point x="86" y="697" type="curve" smooth="yes"/>
      <point x="95" y="697"/>
      <point x="107" y="700"/>
      <point x="128" y="709" type="curve" smooth="yes"/>
      <point x="272" y="767" type="line"/>
      <point x="259" y="788"/>
      <point x="239" y="806"/>
    </contour>
  </outline>
</glyph>
<glyph name="Icircumflex" format="1">
  <advance width="297"/>
  <unicode hex="00CE"/>
  <outline>
    <contour>
      <point x="191" y="122" type="curve" smooth="yes"/>
      <point x="191" y="523" type="line" smooth="yes"/>
      <point x="191" y="606"/>
      <point x="208" y="611"/>
      <point x="278" y="614" type="curve"/>
      <point x="284" y="620"/>
      <point x="284" y="641"/>
      <point x="278" y="647" type="curve"/>
      <point x="234" y="646"/>
      <point x="187" y="645"/>
      <point x="148" y="645" type="curve" smooth="yes"/>
      <point x="115" y="645"/>
      <point x="66" y="646"/>
      <point x="19" y="647" type="curve"/>
      <point x="13" y="641"/>
      <point x="13" y="620"/>
      <point x="19" y="614" type="curve"/>
      <point x="89" y="611"/>
      <point x="106" y="606"/>
      <point x="106" y="523" type="curve" smooth="yes"/>
      <point x="106" y="122" type="line" smooth="yes"/>
      <point x="106" y="39"/>
      <point x="89" y="34"/>
      <point x="19" y="31" type="curve"/>
      <point x="13" y="25"/>
      <point x="13" y="4"/>
      <point x="19" y="-2" type="curve"/>
      <point x="64" y="-1"/>
      <point x="113" y="0"/>
      <point x="149" y="0" type="curve" smooth="yes"/>
      <point x="185" y="0"/>
      <point x="233" y="-1"/>
      <point x="278" y="-2" type="curve"/>
      <point x="284" y="4"/>
      <point x="284" y="25"/>
      <point x="278" y="31" type="curve"/>
      <point x="208" y="34"/>
      <point x="191" y="39"/>
    </contour>
    <contour>
      <point x="165" y="808" type="curve"/>
      <point x="150" y="816"/>
      <point x="140" y="816"/>
      <point x="126" y="808" type="curve"/>
      <point x="95" y="774"/>
      <point x="62" y="739"/>
      <point x="25" y="711" type="curve"/>
      <point x="27" y="702"/>
      <point x="30" y="696"/>
      <point x="39" y="690" type="curve"/>
      <point x="77" y="707"/>
      <point x="109" y="724"/>
      <point x="146" y="751" type="curve"/>
      <point x="179" y="726"/>
      <point x="213" y="708"/>
      <point x="252" y="690" type="curve"/>
      <point x="261" y="694"/>
      <point x="265" y="702"/>
      <point x="268" y="711" type="curve"/>
      <point x="232" y="738"/>
      <point x="195" y="772"/>
    </contour>
  </outline>
</glyph>
<glyph name="Ograve" format="1">
  <advance width="702"/>
  <unicode hex="00D2"/>
  <outline>
    <contour>
      <point x="331" y="622" type="curve" smooth="yes"/>
      <point x="463" y="622"/>
      <point x="570" y="512"/>
      <point x="570" y="310" type="curve" smooth="yes"/>
      <point x="570" y="131"/>
      <point x="484" y="26"/>
      <point x="370" y="26" type="curve" smooth="yes"/>
      <point x="248" y="26"/>
      <point x="133" y="135"/>
      <point x="133" y="327" type="curve" smooth="yes"/>
      <point x="133" y="537"/>
      <point x="232" y="622"/>
    </contour>
    <contour>
      <point x="666" y="329" type="curve" smooth="yes"/>
      <point x="666" y="536"/>
      <point x="523" y="658"/>
      <point x="344" y="658" type="curve" smooth="yes"/>
      <point x="150" y="658"/>
      <point x="37" y="504"/>
      <point x="37" y="310" type="curve" smooth="yes"/>
      <point x="37" y="113"/>
      <point x="180" y="-10"/>
      <point x="350" y="-10" type="curve" smooth="yes"/>
      <point x="461" y="-10"/>
      <point x="549" y="38"/>
      <point x="604" y="116" type="curve" smooth="yes"/>
      <point x="644" y="173"/>
      <point x="666" y="245"/>
    </contour>
    <contour>
      <point x="304" y="819" type="line"/>
      <point x="270" y="807"/>
      <point x="246" y="792"/>
      <point x="228" y="774" type="curve"/>
      <point x="382" y="711" type="line" smooth="yes"/>
      <point x="403" y="702"/>
      <point x="417" y="699"/>
      <point x="425" y="699" type="curve" smooth="yes"/>
      <point x="433" y="699"/>
      <point x="440" y="706"/>
      <point x="440" y="714" type="curve" smooth="yes"/>
      <point x="440" y="721"/>
      <point x="436" y="727"/>
      <point x="425" y="735" type="curve" smooth="yes"/>
    </contour>
  </outline>
</glyph>
<glyph name="Oacute" format="1">
  <advance width="702"/>
  <unicode hex="00D3"/>
  <outline>
    <contour>
      <point x="331" y="622" type="curve" smooth="yes"/>
      <point x="463" y="622"/>
      <point x="570" y="512"/>
      <point x="570" y="310" type="curve" smooth="yes"/>
      <point x="570" y="131"/>
      <point x="484" y="26"/>
      <point x="370" y="26" type="curve" smooth="yes"/>
      <point x="248" y="26"/>
      <point x="133" y="135"/>
      <point x="133" y="327" type="curve" smooth="yes"/>
      <point x="133" y="537"/>
      <point x="232" y="622"/>
    </contour>
    <contour>
      <point x="666" y="329" type="curve" smooth="yes"/>
      <point x="666" y="536"/>
      <point x="523" y="658"/>
      <point x="344" y="658" type="curve" smooth="yes"/>
      <point x="150" y="658"/>
      <point x="37" y="504"/>
      <point x="37" y="310" type="curve" smooth="yes"/>
      <point x="37" y="113"/>
      <point x="180" y="-10"/>
      <point x="350" y="-10" type="curve" smooth="yes"/>
      <point x="461" y="-10"/>
      <point x="549" y="38"/>
      <point x="604" y="116" type="curve" smooth="yes"/>
      <point x="644" y="173"/>
      <point x="666" y="245"/>
    </contour>
    <contour>
      <point x="387" y="820" type="curve"/>
      <point x="263" y="734" type="line" smooth="yes"/>
      <point x="250" y="725"/>
      <point x="248" y="720"/>
      <point x="248" y="713" type="curve" smooth="yes"/>
      <point x="248" y="705"/>
      <point x="254" y="698"/>
      <point x="263" y="698" type="curve" smooth="yes"/>
      <point x="272" y="698"/>
      <point x="284" y="701"/>
      <point x="305" y="710" type="curve" smooth="yes"/>
      <point x="449" y="768" type="line"/>
      <point x="436" y="789"/>
      <point x="416" y="807"/>
    </contour>
  </outline>
</glyph>
<glyph name="Otilde" format="1">
  <advance width="702"/>
  <unicode hex="00D5"/>
  <outline>
    <contour>
      <point x="331" y="622" type="curve" smooth="yes"/>
      <point x="463" y="622"/>
      <point x="570" y="512"/>
      <point x="570" y="310" type="curve" smooth="yes"/>
      <point x="570" y="131"/>
      <point x="484" y="26"/>
      <point x="370" y="26" type="curve" smooth="yes"/>
      <point x="248" y="26"/>
      <point x="133" y="135"/>
      <point x="133" y="327" type="curve" smooth="yes"/>
      <point x="133" y="537"/>
      <point x="232" y="622"/>
    </contour>
    <contour>
      <point x="666" y="329" type="curve" smooth="yes"/>
      <point x="666" y="536"/>
      <point x="523" y="658"/>
      <point x="344" y="658" type="curve" smooth="yes"/>
      <point x="150" y="658"/>
      <point x="37" y="504"/>
      <point x="37" y="310" type="curve" smooth="yes"/>
      <point x="37" y="113"/>
      <point x="180" y="-10"/>
      <point x="350" y="-10" type="curve" smooth="yes"/>
      <point x="461" y="-10"/>
      <point x="549" y="38"/>
      <point x="604" y="116" type="curve" smooth="yes"/>
      <point x="644" y="173"/>
      <point x="666" y="245"/>
    </contour>
    <contour>
      <point x="410" y="745" type="curve" smooth="yes"/>
      <point x="391" y="745"/>
      <point x="374" y="752"/>
      <point x="358" y="764" type="curve" smooth="yes"/>
      <point x="338" y="778"/>
      <point x="316" y="798"/>
      <point x="286" y="798" type="curve" smooth="yes"/>
      <point x="243" y="798"/>
      <point x="220" y="759"/>
      <point x="206" y="700" type="curve"/>
      <point x="212" y="694"/>
      <point x="222" y="693"/>
      <point x="233" y="695" type="curve"/>
      <point x="243" y="728"/>
      <point x="253" y="743"/>
      <point x="279" y="743" type="curve" smooth="yes"/>
      <point x="296" y="743"/>
      <point x="315" y="735"/>
      <point x="333" y="724" type="curve" smooth="yes"/>
      <point x="354" y="710"/>
      <point x="375" y="692"/>
      <point x="397" y="692" type="curve" smooth="yes"/>
      <point x="443" y="692"/>
      <point x="472" y="731"/>
      <point x="484" y="791" type="curve"/>
      <point x="478" y="795"/>
      <point x="468" y="798"/>
      <point x="457" y="797" type="curve"/>
      <point x="443" y="755"/>
      <point x="432" y="745"/>
    </contour>
  </outline>
</glyph>
<glyph name="Ugrave" format="1">
  <advance width="661"/>
  <unicode hex="00D9"/>
  <outline>
    <contour>
      <point x="172" y="523" type="line" smooth="yes"/>
      <point x="172" y="606"/>
      <point x="187" y="611"/>
      <point x="264" y="614" type="curve"/>
      <point x="270" y="620"/>
      <point x="270" y="641"/>
      <point x="264" y="647" type="curve"/>
      <point x="217" y="646"/>
      <point x="168" y="645"/>
      <point x="129" y="645" type="curve" smooth="yes"/>
      <point x="90" y="645"/>
      <point x="49" y="646"/>
      <point x="10" y="647" type="curve"/>
      <point x="4" y="641"/>
      <point x="4" y="620"/>
      <point x="10" y="614" type="curve"/>
      <point x="70" y="611"/>
      <point x="87" y="606"/>
      <point x="87" y="523" type="curve" smooth="yes"/>
      <point x="87" y="233" type="line" smooth="yes"/>
      <point x="87" y="29"/>
      <point x="219" y="-10"/>
      <point x="321" y="-10" type="curve" smooth="yes"/>
      <point x="526" y="-10"/>
      <point x="575" y="117"/>
      <point x="575" y="295" type="curve" smooth="yes"/>
      <point x="575" y="523" type="line" smooth="yes"/>
      <point x="575" y="603"/>
      <point x="592" y="607"/>
      <point x="652" y="614" type="curve"/>
      <point x="658" y="620"/>
      <point x="658" y="641"/>
      <point x="652" y="647" type="curve"/>
      <point x="614" y="646"/>
      <point x="573" y="645"/>
      <point x="550" y="645" type="curve" smooth="yes"/>
      <point x="529" y="645"/>
      <point x="480" y="646"/>
      <point x="434" y="647" type="curve"/>
      <point x="428" y="641"/>
      <point x="428" y="620"/>
      <point x="434" y="614" type="curve"/>
      <point x="509" y="607"/>
      <point x="526" y="604"/>
      <point x="526" y="523" type="curve" smooth="yes"/>
      <point x="526" y="277" type="line" smooth="yes"/>
      <point x="526" y="165"/>
      <point x="511" y="31"/>
      <point x="342" y="31" type="curve" smooth="yes"/>
      <point x="294" y="31"/>
      <point x="253" y="49"/>
      <point x="223" y="78" type="curve" smooth="yes"/>
      <point x="174" y="125"/>
      <point x="172" y="201"/>
      <point x="172" y="266" type="curve" smooth="yes"/>
    </contour>
    <contour>
      <point x="276" y="818" type="line"/>
      <point x="242" y="806"/>
      <point x="218" y="791"/>
      <point x="200" y="773" type="curve"/>
      <point x="354" y="710" type="line" smooth="yes"/>
      <point x="375" y="701"/>
      <point x="389" y="698"/>
      <point x="397" y="698" type="curve" smooth="yes"/>
      <point x="405" y="698"/>
      <point x="412" y="705"/>
      <point x="412" y="713" type="curve" smooth="yes"/>
      <point x="412" y="720"/>
      <point x="408" y="726"/>
      <point x="397" y="734" type="curve" smooth="yes"/>
    </contour>
  </outline>
</glyph>
<glyph name="germandbls" format="1">
  <advance width="541"/>
  <unicode hex="00DF"/>
  <outline>
    <contour>
      <point x="92" y="122" type="line" smooth="yes"/>
      <point x="92" y="39"/>
      <point x="80" y="34"/>
      <point x="23" y="31" type="curve"/>
      <point x="17" y="25"/>
      <point x="17" y="4"/>
      <point x="23" y="-2" type="curve"/>
      <point x="53" y="-1"/>
      <point x="92" y="0"/>
      <point x="132" y="0" type="curve" smooth="yes"/>
      <point x="166" y="0"/>
      <point x="196" y="-1"/>
      <point x="219" y="-2" type="curve"/>
      <point x="225" y="4"/>
      <point x="225" y="25"/>
      <point x="219" y="31" type="curve"/>
      <point x="183" y="36"/>
      <point x="171" y="39"/>
      <point x="171" y="122" type="curve" smooth="yes"/>
      <point x="171" y="442" type="line" smooth="yes"/>
      <point x="171" y="550"/>
      <point x="183" y="665"/>
      <point x="287" y="665" type="curve" smooth="yes"/>
      <point x="340" y="665"/>
      <point x="365" y="628"/>
      <point x="365" y="574" type="curve" smooth="yes"/>
      <point x="365" y="501"/>
      <point x="327" y="461"/>
      <point x="260" y="409" type="curve"/>
      <point x="260" y="396" type="line"/>
      <point x="344" y="332"/>
      <point x="415" y="249"/>
      <point x="415" y="156" type="curve" smooth="yes"/>
      <point x="415" y="65"/>
      <point x="374" y="23"/>
      <point x="344" y="23" type="curve" smooth="yes"/>
      <point x="321" y="23"/>
      <point x="291" y="23"/>
      <point x="291" y="53" type="curve" smooth="yes"/>
      <point x="291" y="65"/>
      <point x="299" y="74"/>
      <point x="299" y="91" type="curve" smooth="yes"/>
      <point x="299" y="111"/>
      <point x="291" y="121"/>
      <point x="271" y="121" type="curve" smooth="yes"/>
      <point x="255" y="121"/>
      <point x="240" y="102"/>
      <point x="240" y="86" type="curve" smooth="yes"/>
      <point x="240" y="42"/>
      <point x="260" y="-10"/>
      <point x="344" y="-10" type="curve" smooth="yes"/>
      <point x="436" y="-10"/>
      <point x="500" y="68"/>
      <point x="500" y="173" type="curve" smooth="yes"/>
      <point x="500" y="289"/>
      <point x="399" y="357"/>
      <point x="320" y="409" type="curve"/>
      <point x="320" y="411" type="line"/>
      <point x="390" y="464"/>
      <point x="448" y="510"/>
      <point x="448" y="587" type="curve" smooth="yes"/>
      <point x="448" y="635"/>
      <point x="400" y="698"/>
      <point x="296" y="698" type="curve" smooth="yes"/>
      <point x="217" y="698"/>
      <point x="92" y="642"/>
      <point x="92" y="477" type="curve" smooth="yes"/>
      <point x="92" y="436"/>
      <point x="80" y="431"/>
      <point x="44" y="431" type="curve" smooth="yes"/>
      <point x="31" y="431"/>
      <point x="23" y="404"/>
      <point x="29" y="398" type="curve"/>
      <point x="80" y="398" type="line" smooth="yes"/>
      <point x="89" y="398"/>
      <point x="92" y="394"/>
      <point x="92" y="386" type="curve" smooth="yes"/>
    </contour>
  </outline>
</glyph>
<glyph name="atilde" format="1">
  <advance width="457"/>
  <unicode hex="00E3"/>
  <outline>
    <contour>
      <point x="293" y="233" type="line"/>
      <point x="293" y="101" type="line" smooth="yes"/>
      <point x="293" y="88"/>
      <point x="287" y="81"/>
      <point x="279" y="75" type="curve" smooth="yes"/>
      <point x="253" y="54"/>
      <point x="219" y="31"/>
      <point x="191" y="31" type="curve" smooth="yes"/>
      <point x="141" y="31"/>
      <point x="119" y="71"/>
      <point x="119" y="102" type="curve" smooth="yes"/>
      <point x="119" y="147"/>
      <point x="140" y="193"/>
      <point x="214" y="212" type="curve" smooth="yes"/>
    </contour>
    <contour>
      <point x="293" y="48" type="line"/>
      <point x="299" y="17"/>
      <point x="310" y="-10"/>
      <point x="360" y="-10" type="curve" smooth="yes"/>
      <point x="398" y="-10"/>
      <point x="434" y="7"/>
      <point x="455" y="27" type="curve"/>
      <point x="453" y="39"/>
      <point x="449" y="48"/>
      <point x="438" y="54" type="curve"/>
      <point x="431" y="48"/>
      <point x="414" y="38"/>
      <point x="401" y="38" type="curve" smooth="yes"/>
      <point x="372" y="38"/>
      <point x="371" y="77"/>
      <point x="371" y="123" type="curve" smooth="yes"/>
      <point x="371" y="270" type="line" smooth="yes"/>
      <point x="371" y="412"/>
      <point x="293" y="439"/>
      <point x="220" y="439" type="curve" smooth="yes"/>
      <point x="138" y="439"/>
      <point x="55" y="385"/>
      <point x="55" y="328" type="curve" smooth="yes"/>
      <point x="55" y="304"/>
      <point x="67" y="292"/>
      <point x="90" y="292" type="curve" smooth="yes"/>
      <point x="119" y="292"/>
      <point x="137" y="313"/>
      <point x="137" y="326" type="curve" smooth="yes"/>
      <point x="137" y="333"/>
      <point x="136" y="340"/>
      <point x="134" y="344" type="curve"/>
      <point x="133" y="347"/>
      <point x="132" y="353"/>
      <point x="132" y="364" type="curve" smooth="yes"/>
      <point x="132" y="395"/>
      <point x="174" y="406"/>
      <point x="212" y="406" type="curve" smooth="yes"/>
      <point x="246" y="406"/>
      <point x="293" y="389"/>
      <point x="293" y="276" type="curve" smooth="yes"/>
      <point x="293" y="269"/>
      <point x="290" y="265"/>
      <point x="287" y="264" type="curve"/>
      <point x="201" y="243" type="line" smooth="yes"/>
      <point x="105" y="219"/>
      <point x="36" y="166"/>
      <point x="36" y="98" type="curve" smooth="yes"/>
      <point x="36" y="16"/>
      <point x="92" y="-10"/>
      <point x="162" y="-10" type="curve" smooth="yes"/>
      <point x="197" y="-10"/>
      <point x="227" y="-2"/>
      <point x="271" y="32" type="curve" smooth="yes"/>
      <point x="291" y="48" type="line"/>
    </contour>
    <contour>
      <point x="283" y="573" type="curve" smooth="yes"/>
      <point x="264" y="573"/>
      <point x="247" y="580"/>
      <point x="231" y="592" type="curve" smooth="yes"/>
      <point x="211" y="606"/>
      <point x="189" y="626"/>
      <point x="159" y="626" type="curve" smooth="yes"/>
      <point x="116" y="626"/>
      <point x="93" y="587"/>
      <point x="79" y="528" type="curve"/>
      <point x="85" y="522"/>
      <point x="95" y="521"/>
      <point x="106" y="523" type="curve"/>
      <point x="116" y="556"/>
      <point x="126" y="571"/>
      <point x="152" y="571" type="curve" smooth="yes"/>
      <point x="169" y="571"/>
      <point x="188" y="563"/>
      <point x="206" y="552" type="curve" smooth="yes"/>
      <point x="227" y="538"/>
      <point x="248" y="520"/>
      <point x="270" y="520" type="curve" smooth="yes"/>
      <point x="316" y="520"/>
      <point x="345" y="559"/>
      <point x="357" y="619" type="curve"/>
      <point x="351" y="623"/>
      <point x="341" y="626"/>
      <point x="330" y="625" type="curve"/>
      <point x="316" y="583"/>
      <point x="305" y="573"/>
    </contour>
  </outline>
</glyph>
<glyph name="ccedilla" format="1">
  <advance width="428"/>
  <unicode hex="00E7"/>
  <outline>
    <contour>
      <point x="228" y="-96" type="curve" smooth="yes"/>
      <point x="251" y="-96"/>
      <point x="261" y="-110"/>
      <point x="261" y="-131" type="curve" smooth="yes"/>
      <point x="261" y="-157"/>
      <point x="240" y="-171"/>
      <point x="210" y="-171" type="curve" smooth="yes"/>
      <point x="190" y="-171"/>
      <point x="179" y="-167"/>
      <point x="152" y="-157" type="curve"/>
      <point x="145" y="-164"/>
      <point x="142" y="-171"/>
      <point x="142" y="-183" type="curve"/>
      <point x="167" y="-194"/>
      <point x="184" y="-200"/>
      <point x="216" y="-200" type="curve" smooth="yes"/>
      <point x="277" y="-200"/>
      <point x="323" y="-169"/>
      <point x="323" y="-126" type="curve" smooth="yes"/>
      <point x="323" y="-88"/>
      <point x="292" y="-64"/>
      <point x="252" y="-64" type="curve" smooth="yes"/>
      <point x="243" y="-64"/>
      <point x="234" y="-65"/>
      <point x="226" y="-67" type="curve"/>
      <point x="247" y="-10" type="line"/>
      <point x="302" y="-7"/>
      <point x="352" y="15"/>
      <point x="398" y="91" type="curve"/>
      <point x="394" y="100"/>
      <point x="386" y="104"/>
      <point x="377" y="105" type="curve"/>
      <point x="343" y="61"/>
      <point x="300" y="39"/>
      <point x="257" y="39" type="curve" smooth="yes"/>
      <point x="184" y="39"/>
      <point x="123" y="113"/>
      <point x="123" y="230" type="curve" smooth="yes"/>
      <point x="123" y="340"/>
      <point x="171" y="406"/>
      <point x="237" y="406" type="curve" smooth="yes"/>
      <point x="296" y="406"/>
      <point x="304" y="371"/>
      <point x="308" y="336" type="curve" smooth="yes"/>
      <point x="311" y="309"/>
      <point x="325" y="300"/>
      <point x="346" y="300" type="curve" smooth="yes"/>
      <point x="367" y="300"/>
      <point x="395" y="313"/>
      <point x="395" y="344" type="curve" smooth="yes"/>
      <point x="395" y="399"/>
      <point x="338" y="439"/>
      <point x="242" y="439" type="curve" smooth="yes"/>
      <point x="143" y="439"/>
      <point x="37" y="350"/>
      <point x="37" y="208" type="curve" smooth="yes"/>
      <point x="37" y="87"/>
      <point x="101" y="1"/>
      <point x="213" y="-9" type="curve"/>
      <point x="177" y="-96" type="line"/>
      <point x="183" y="-102" type="line"/>
      <point x="199" y="-97"/>
      <point x="209" y="-96"/>
    </contour>
  </outline>
</glyph>
<glyph name="igrave" format="1">
  <advance width="271"/>
  <unicode hex="00EC"/>
  <outline>
    <contour>
      <point x="181" y="122" type="curve" smooth="yes"/>
      <point x="181" y="321" type="line" smooth="yes"/>
      <point x="181" y="371"/>
      <point x="185" y="435"/>
      <point x="185" y="435" type="curve"/>
      <point x="185" y="439"/>
      <point x="180" y="442"/>
      <point x="172" y="442" type="curve"/>
      <point x="144" y="431"/>
      <point x="104" y="422"/>
      <point x="35" y="413" type="curve"/>
      <point x="33" y="407"/>
      <point x="35" y="391"/>
      <point x="37" y="385" type="curve"/>
      <point x="92" y="380"/>
      <point x="102" y="374"/>
      <point x="102" y="317" type="curve" smooth="yes"/>
      <point x="102" y="122" type="line" smooth="yes"/>
      <point x="102" y="39"/>
      <point x="91" y="36"/>
      <point x="30" y="31" type="curve"/>
      <point x="24" y="25"/>
      <point x="24" y="4"/>
      <point x="30" y="-2" type="curve"/>
      <point x="63" y="-1"/>
      <point x="102" y="0"/>
      <point x="142" y="0" type="curve" smooth="yes"/>
      <point x="182" y="0"/>
      <point x="220" y="-1"/>
      <point x="253" y="-2" type="curve"/>
      <point x="259" y="4"/>
      <point x="259" y="25"/>
      <point x="253" y="31" type="curve"/>
      <point x="192" y="35"/>
      <point x="181" y="39"/>
    </contour>
    <contour>
      <point x="99" y="671" type="line"/>
      <point x="95" y="672"/>
      <point x="89" y="673"/>
      <point x="84" y="673" type="curve" smooth="yes"/>
      <point x="50" y="673"/>
      <point x="27" y="656"/>
      <point x="19" y="650" type="curve"/>
      <point x="17" y="639" type="line"/>
      <point x="131" y="530" type="line" smooth="yes"/>
      <point x="147" y="515"/>
      <point x="154" y="510"/>
      <point x="160" y="510" type="curve" smooth="yes"/>
      <point x="168" y="510"/>
      <point x="175" y="516"/>
      <point x="175" y="521" type="curve" smooth="yes"/>
      <point x="175" y="528"/>
      <point x="174" y="535"/>
      <point x="169" y="545" type="curve" smooth="yes"/>
    </contour>
  </outline>
</glyph>
<glyph name="iacute" format="1">
  <advance width="271"/>
  <unicode hex="00ED"/>
  <outline>
    <contour>
      <point x="181" y="122" type="curve" smooth="yes"/>
      <point x="181" y="321" type="line" smooth="yes"/>
      <point x="181" y="371"/>
      <point x="185" y="435"/>
      <point x="185" y="435" type="curve"/>
      <point x="185" y="439"/>
      <point x="180" y="442"/>
      <point x="172" y="442" type="curve"/>
      <point x="144" y="431"/>
      <point x="104" y="422"/>
      <point x="35" y="413" type="curve"/>
      <point x="33" y="407"/>
      <point x="35" y="391"/>
      <point x="37" y="385" type="curve"/>
      <point x="92" y="380"/>
      <point x="102" y="374"/>
      <point x="102" y="317" type="curve" smooth="yes"/>
      <point x="102" y="122" type="line" smooth="yes"/>
      <point x="102" y="39"/>
      <point x="91" y="36"/>
      <point x="30" y="31" type="curve"/>
      <point x="24" y="25"/>
      <point x="24" y="4"/>
      <point x="30" y="-2" type="curve"/>
      <point x="63" y="-1"/>
      <point x="102" y="0"/>
      <point x="142" y="0" type="curve" smooth="yes"/>
      <point x="182" y="0"/>
      <point x="220" y="-1"/>
      <point x="253" y="-2" type="curve"/>
      <point x="259" y="4"/>
      <point x="259" y="25"/>
      <point x="253" y="31" type="curve"/>
      <point x="192" y="35"/>
      <point x="181" y="39"/>
    </contour>
    <contour>
      <point x="163" y="671" type="curve"/>
      <point x="87" y="552" type="line" smooth="yes"/>
      <point x="79" y="539"/>
      <point x="76" y="535"/>
      <point x="76" y="524" type="curve" smooth="yes"/>
      <point x="76" y="517"/>
      <point x="83" y="511"/>
      <point x="90" y="511" type="curve" smooth="yes"/>
      <point x="97" y="511"/>
      <point x="105" y="515"/>
      <point x="120" y="530" type="curve" smooth="yes"/>
      <point x="235" y="639" type="line"/>
      <point x="232" y="650" type="line"/>
      <point x="209" y="672"/>
      <point x="183" y="673"/>
      <point x="177" y="673" type="curve" smooth="yes"/>
      <point x="172" y="673"/>
      <point x="166" y="672"/>
    </contour>
  </outline>
</glyph>
<glyph name="icircumflex" format="1">
  <advance width="271"/>
  <unicode hex="00EE"/>
  <outline>
    <contour>
      <point x="181" y="122" type="curve" smooth="yes"/>
      <point x="181" y="321" type="line" smooth="yes"/>
      <point x="181" y="371"/>
      <point x="185" y="435"/>
      <point x="185" y="435" type="curve"/>
      <point x="185" y="439"/>
      <point x="180" y="442"/>
      <point x="172" y="442" type="curve"/>
      <point x="144" y="431"/>
      <point x="104" y="422"/>
      <point x="35" y="413" type="curve"/>
      <point x="33" y="407"/>
      <point x="35" y="391"/>
      <point x="37" y="385" type="curve"/>
      <point x="92" y="380"/>
      <point x="102" y="374"/>
      <point x="102" y="317" type="curve" smooth="yes"/>
      <point x="102" y="122" type="line" smooth="yes"/>
      <point x="102" y="39"/>
      <point x="91" y="36"/>
      <point x="30" y="31" type="curve"/>
      <point x="24" y="25"/>
      <point x="24" y="4"/>
      <point x="30" y="-2" type="curve"/>
      <point x="63" y="-1"/>
      <point x="102" y="0"/>
      <point x="142" y="0" type="curve" smooth="yes"/>
      <point x="182" y="0"/>
      <point x="220" y="-1"/>
      <point x="253" y="-2" type="curve"/>
      <point x="259" y="4"/>
      <point x="259" y="25"/>
      <point x="253" y="31" type="curve"/>
      <point x="192" y="35"/>
      <point x="181" y="39"/>
    </contour>
    <contour>
      <point x="141" y="660" type="curve"/>
      <point x="130" y="663"/>
      <point x="120" y="662"/>
      <point x="109" y="660" type="curve"/>
      <point x="80" y="614"/>
      <point x="34" y="560"/>
      <point x="-2" y="520" type="curve"/>
      <point x="4" y="511"/>
      <point x="11" y="505"/>
      <point x="20" y="503" type="curve"/>
      <point x="59" y="525"/>
      <point x="92" y="554"/>
      <point x="124" y="586" type="curve"/>
      <point x="154" y="555"/>
      <point x="189" y="527"/>
      <point x="227" y="503" type="curve"/>
      <point x="236" y="505"/>
      <point x="245" y="513"/>
      <point x="250" y="520" type="curve"/>
      <point x="214" y="560"/>
      <point x="170" y="613"/>
    </contour>
  </outline>
</glyph>
<glyph name="idieresis" format="1">
  <advance width="271"/>
  <unicode hex="00EF"/>
  <outline>
    <contour>
      <point x="181" y="122" type="curve" smooth="yes"/>
      <point x="181" y="321" type="line" smooth="yes"/>
      <point x="181" y="371"/>
      <point x="185" y="435"/>
      <point x="185" y="435" type="curve"/>
      <point x="185" y="439"/>
      <point x="180" y="442"/>
      <point x="172" y="442" type="curve"/>
      <point x="144" y="431"/>
      <point x="104" y="422"/>
      <point x="35" y="413" type="curve"/>
      <point x="33" y="407"/>
      <point x="35" y="391"/>
      <point x="37" y="385" type="curve"/>
      <point x="92" y="380"/>
      <point x="102" y="374"/>
      <point x="102" y="317" type="curve" smooth="yes"/>
      <point x="102" y="122" type="line" smooth="yes"/>
      <point x="102" y="39"/>
      <point x="91" y="36"/>
      <point x="30" y="31" type="curve"/>
      <point x="24" y="25"/>
      <point x="24" y="4"/>
      <point x="30" y="-2" type="curve"/>
      <point x="63" y="-1"/>
      <point x="102" y="0"/>
      <point x="142" y="0" type="curve" smooth="yes"/>
      <point x="182" y="0"/>
      <point x="220" y="-1"/>
      <point x="253" y="-2" type="curve"/>
      <point x="259" y="4"/>
      <point x="259" y="25"/>
      <point x="253" y="31" type="curve"/>
      <point x="192" y="35"/>
      <point x="181" y="39"/>
    </contour>
    <contour>
      <point x="-4" y="575" type="curve" smooth="yes"/>
      <point x="-4" y="549"/>
      <point x="17" y="528"/>
      <point x="43" y="528" type="curve" smooth="yes"/>
      <point x="69" y="528"/>
      <point x="90" y="549"/>
      <point x="90" y="575" type="curve" smooth="yes"/>
      <point x="90" y="601"/>
      <point x="69" y="623"/>
      <point x="43" y="623" type="curve" smooth="yes"/>
      <point x="17" y="623"/>
      <point x="-4" y="601"/>
    </contour>
    <contour>
      <point x="165" y="575" type="curve" smooth="yes"/>
      <point x="165" y="549"/>
      <point x="186" y="528"/>
      <point x="212" y="528" type="curve" smooth="yes"/>
      <point x="238" y="528"/>
      <point x="259" y="549"/>
      <point x="259" y="575" type="curve" smooth="yes"/>
      <point x="259" y="601"/>
      <point x="238" y="623"/>
      <point x="212" y="623" type="curve" smooth="yes"/>
      <point x="186" y="623"/>
      <point x="165" y="601"/>
    </contour>
  </outline>
</glyph>
<glyph name="eth" format="1">
  <advance width="486"/>
  <unicode hex="00F0"/>
  <outline>
    <contour>
      <point x="248" y="26" type="curve" smooth="yes"/>
      <point x="177" y="26"/>
      <point x="120" y="111"/>
      <point x="120" y="225" type="curve" smooth="yes"/>
      <point x="120" y="301"/>
      <point x="145" y="404"/>
      <point x="246" y="404" type="curve" smooth="yes"/>
      <point x="289" y="404"/>
      <point x="324" y="385"/>
      <point x="347" y="356" type="curve"/>
      <point x="359" y="313"/>
      <point x="363" y="269"/>
      <point x="363" y="223" type="curve" smooth="yes"/>
      <point x="363" y="61"/>
      <point x="295" y="26"/>
    </contour>
    <contour>
      <point x="34" y="208" type="curve" smooth="yes"/>
      <point x="34" y="104"/>
      <point x="107" y="-10"/>
      <point x="231" y="-10" type="curve" smooth="yes"/>
      <point x="343" y="-10"/>
      <point x="447" y="68"/>
      <point x="447" y="237" type="curve" smooth="yes"/>
      <point x="447" y="383"/>
      <point x="382" y="497"/>
      <point x="296" y="583" type="curve" smooth="yes"/>
      <point x="278" y="601" type="line"/>
      <point x="375" y="666" type="line"/>
      <point x="353" y="698" type="line"/>
      <point x="247" y="627" type="line"/>
      <point x="212" y="655"/>
      <point x="176" y="679"/>
      <point x="141" y="698" type="curve"/>
      <point x="125" y="677" type="line"/>
      <point x="149" y="660"/>
      <point x="172" y="640"/>
      <point x="193" y="618" type="curve" smooth="yes"/>
      <point x="209" y="602" type="line"/>
      <point x="104" y="531" type="line"/>
      <point x="126" y="499" type="line"/>
      <point x="235" y="572" type="line"/>
      <point x="272" y="526"/>
      <point x="302" y="478"/>
      <point x="324" y="425" type="curve"/>
      <point x="299" y="435"/>
      <point x="274" y="439"/>
      <point x="248" y="439" type="curve" smooth="yes"/>
      <point x="166" y="439"/>
      <point x="34" y="381"/>
    </contour>
  </outline>
</glyph>
<glyph name="ograve" format="1">
  <advance width="504"/>
  <unicode hex="00F2"/>
  <outline>
    <contour>
      <point x="41" y="205" type="curve" smooth="yes"/>
      <point x="41" y="103"/>
      <point x="109" y="-10"/>
      <point x="251" y="-10" type="curve" smooth="yes"/>
      <point x="315" y="-10"/>
      <point x="364" y="13"/>
      <point x="398" y="46" type="curve" smooth="yes"/>
      <point x="443" y="90"/>
      <point x="463" y="153"/>
      <point x="463" y="214" type="curve" smooth="yes"/>
      <point x="463" y="318"/>
      <point x="406" y="439"/>
      <point x="253" y="439" type="curve" smooth="yes"/>
      <point x="187" y="439"/>
      <point x="133" y="412"/>
      <point x="96" y="369" type="curve" smooth="yes"/>
      <point x="60" y="326"/>
      <point x="41" y="268"/>
    </contour>
    <contour>
      <point x="238" y="404" type="curve" smooth="yes"/>
      <point x="324" y="404"/>
      <point x="377" y="326"/>
      <point x="377" y="182" type="curve" smooth="yes"/>
      <point x="377" y="56"/>
      <point x="312" y="25"/>
      <point x="265" y="25" type="curve" smooth="yes"/>
      <point x="161" y="25"/>
      <point x="127" y="151"/>
      <point x="127" y="228" type="curve" smooth="yes"/>
      <point x="127" y="315"/>
      <point x="148" y="404"/>
    </contour>
    <contour>
      <point x="224" y="671" type="line"/>
      <point x="220" y="672"/>
      <point x="214" y="673"/>
      <point x="209" y="673" type="curve" smooth="yes"/>
      <point x="175" y="673"/>
      <point x="152" y="656"/>
      <point x="144" y="650" type="curve"/>
      <point x="142" y="639" type="line"/>
      <point x="256" y="530" type="line" smooth="yes"/>
      <point x="272" y="515"/>
      <point x="279" y="510"/>
      <point x="285" y="510" type="curve" smooth="yes"/>
      <point x="293" y="510"/>
      <point x="300" y="516"/>
      <point x="300" y="521" type="curve" smooth="yes"/>
      <point x="300" y="528"/>
      <point x="299" y="535"/>
      <point x="294" y="545" type="curve" smooth="yes"/>
    </contour>
  </outline>
</glyph>
<glyph name="oacute" format="1">
  <advance width="504"/>
  <unicode hex="00F3"/>
  <outline>
    <contour>
      <point x="41" y="205" type="curve" smooth="yes"/>
      <point x="41" y="103"/>
      <point x="109" y="-10"/>
      <point x="251" y="-10" type="curve" smooth="yes"/>
      <point x="315" y="-10"/>
      <point x="364" y="13"/>
      <point x="398" y="46" type="curve" smooth="yes"/>
      <point x="443" y="90"/>
      <point x="463" y="153"/>
      <point x="463" y="214" type="curve" smooth="yes"/>
      <point x="463" y="318"/>
      <point x="406" y="439"/>
      <point x="253" y="439" type="curve" smooth="yes"/>
      <point x="187" y="439"/>
      <point x="133" y="412"/>
      <point x="96" y="369" type="curve" smooth="yes"/>
      <point x="60" y="326"/>
      <point x="41" y="268"/>
    </contour>
    <contour>
      <point x="238" y="404" type="curve" smooth="yes"/>
      <point x="324" y="404"/>
      <point x="377" y="326"/>
      <point x="377" y="182" type="curve" smooth="yes"/>
      <point x="377" y="56"/>
      <point x="312" y="25"/>
      <point x="265" y="25" type="curve" smooth="yes"/>
      <point x="161" y="25"/>
      <point x="127" y="151"/>
      <point x="127" y="228" type="curve" smooth="yes"/>
      <point x="127" y="315"/>
      <point x="148" y="404"/>
    </contour>
    <contour>
      <point x="270" y="671" type="curve"/>
      <point x="194" y="552" type="line" smooth="yes"/>
      <point x="186" y="539"/>
      <point x="183" y="535"/>
      <point x="183" y="524" type="curve" smooth="yes"/>
      <point x="183" y="517"/>
      <point x="190" y="511"/>
      <point x="197" y="511" type="curve" smooth="yes"/>
      <point x="204" y="511"/>
      <point x="212" y="515"/>
      <point x="227" y="530" type="curve" smooth="yes"/>
      <point x="342" y="639" type="line"/>
      <point x="339" y="650" type="line"/>
      <point x="316" y="672"/>
      <point x="290" y="673"/>
      <point x="284" y="673" type="curve" smooth="yes"/>
      <point x="279" y="673"/>
      <point x="273" y="672"/>
    </contour>
  </outline>
</glyph>
<glyph name="odieresis" format="1">
  <advance width="504"/>
  <unicode hex="00F6"/>
  <outline>
    <contour>
      <point x="41" y="205" type="curve" smooth="yes"/>
      <point x="41" y="103"/>
      <point x="109" y="-10"/>
      <point x="251" y="-10" type="curve" smooth="yes"/>
      <point x="315" y="-10"/>
      <point x="364" y="13"/>
      <point x="398" y="46" type="curve" smooth="yes"/>
      <point x="443" y="90"/>
      <point x="463" y="153"/>
      <point x="463" y="214" type="curve" smooth="yes"/>
      <point x="463" y="318"/>
      <point x="406" y="439"/>
      <point x="253" y="439" type="curve" smooth="yes"/>
      <point x="187" y="439"/>
      <point x="133" y="412"/>
      <point x="96" y="369" type="curve" smooth="yes"/>
      <point x="60" y="326"/>
      <point x="41" y="268"/>
    </contour>
    <contour>
      <point x="238" y="404" type="curve" smooth="yes"/>
      <point x="324" y="404"/>
      <point x="377" y="326"/>
      <point x="377" y="182" type="curve" smooth="yes"/>
      <point x="377" y="56"/>
      <point x="312" y="25"/>
      <point x="265" y="25" type="curve" smooth="yes"/>
      <point x="161" y="25"/>
      <point x="127" y="151"/>
      <point x="127" y="228" type="curve" smooth="yes"/>
      <point x="127" y="315"/>
      <point x="148" y="404"/>
    </contour>
    <contour>
      <point x="121" y="575" type="curve" smooth="yes"/>
      <point x="121" y="549"/>
      <point x="142" y="528"/>
      <point x="168" y="528" type="curve" smooth="yes"/>
      <point x="194" y="528"/>
      <point x="215" y="549"/>
      <point x="215" y="575" type="curve" smooth="yes"/>
      <point x="215" y="601"/>
      <point x="194" y="623"/>
      <point x="168" y="623" type="curve" smooth="yes"/>
      <point x="142" y="623"/>
      <point x="121" y="601"/>
    </contour>
    <contour>
      <point x="290" y="575" type="curve" smooth="yes"/>
      <point x="290" y="549"/>
      <point x="311" y="528"/>
      <point x="337" y="528" type="curve" smooth="yes"/>
      <point x="363" y="528"/>
      <point x="384" y="549"/>
      <point x="384" y="575" type="curve" smooth="yes"/>
      <point x="384" y="601"/>
      <point x="363" y="623"/>
      <point x="337" y="623" type="curve" smooth="yes"/>
      <point x="311" y="623"/>
      <point x="290" y="601"/>
    </contour>
  </outline>
</glyph>
<glyph name="divide" format="1">
  <advance width="550"/>
  <unicode hex="00F7"/>
  <outline>
    <contour>
      <point x="463" y="226" type="line" smooth="yes"/>
      <point x="476" y="226"/>
      <point x="490" y="249"/>
      <point x="490" y="259" type="curve" smooth="yes"/>
      <point x="490" y="267"/>
      <point x="486" y="276"/>
      <point x="476" y="276" type="curve" smooth="yes"/>
      <point x="85" y="276" type="line" smooth="yes"/>
      <point x="73" y="276"/>
      <point x="60" y="257"/>
      <point x="60" y="242" type="curve" smooth="yes"/>
      <point x="60" y="234"/>
      <point x="66" y="226"/>
      <point x="75" y="226" type="curve" smooth="yes"/>
    </contour>
    <contour>
      <point x="226" y="387" type="curve" smooth="yes"/>
      <point x="226" y="363"/>
      <point x="246" y="343"/>
      <point x="270" y="343" type="curve" smooth="yes"/>
      <point x="295" y="343"/>
      <point x="315" y="363"/>
      <point x="315" y="387" type="curve" smooth="yes"/>
      <point x="315" y="411"/>
      <point x="295" y="431"/>
      <point x="270" y="431" type="curve" smooth="yes"/>
      <point x="246" y="431"/>
      <point x="226" y="411"/>
    </contour>
    <contour>
      <point x="226" y="119" type="curve" smooth="yes"/>
      <point x="226" y="95"/>
      <point x="246" y="75"/>
      <point x="270" y="75" type="curve" smooth="yes"/>
      <point x="295" y="75"/>
      <point x="315" y="95"/>
      <point x="315" y="119" type="curve" smooth="yes"/>
      <point x="315" y="143"/>
      <point x="295" y="163"/>
      <point x="270" y="163" type="curve" smooth="yes"/>
      <point x="246" y="163"/>
      <point x="226" y="143"/>
    </contour>
  </outline>
</glyph>
<glyph name="oslash" format="1">
  <advance width="504"/>
  <unicode hex="00F8"/>
  <outline>
    <contour>
      <point x="414" y="454" type="curve"/>
      <point x="374" y="405" type="line"/>
      <point x="343" y="426"/>
      <point x="303" y="439"/>
      <point x="253" y="439" type="curve" smooth="yes"/>
      <point x="187" y="439"/>
      <point x="133" y="412"/>
      <point x="96" y="369" type="curve" smooth="yes"/>
      <point x="60" y="326"/>
      <point x="41" y="268"/>
      <point x="41" y="205" type="curve" smooth="yes"/>
      <point x="41" y="155"/>
      <point x="57" y="103"/>
      <point x="91" y="62" type="curve"/>
      <point x="38" y="-2" type="line"/>
      <point x="40" y="-17"/>
      <point x="52" y="-28"/>
      <point x="68" y="-28" type="curve"/>
      <point x="119" y="34" type="line"/>
      <point x="152" y="7"/>
      <point x="196" y="-10"/>
      <point x="251" y="-10" type="curve" smooth="yes"/>
      <point x="315" y="-10"/>
      <point x="364" y="13"/>
      <point x="398" y="46" type="curve" smooth="yes"/>
      <point x="443" y="90"/>
      <point x="463" y="153"/>
      <point x="463" y="214" type="curve" smooth="yes"/>
      <point x="463" y="272"/>
      <point x="445" y="335"/>
      <point x="403" y="380" type="curve"/>
      <point x="445" y="431" type="line"/>
      <point x="441" y="444"/>
      <point x="431" y="454"/>
    </contour>
    <contour>
      <point x="238" y="404" type="curve" smooth="yes"/>
      <point x="277" y="404"/>
      <point x="310" y="388"/>
      <point x="333" y="356" type="curve"/>
      <point x="144" y="127" type="line"/>
      <point x="132" y="161"/>
      <point x="127" y="198"/>
      <point x="127" y="228" type="curve" smooth="yes"/>
      <point x="127" y="315"/>
      <point x="148" y="404"/>
    </contour>
    <contour>
      <point x="354" y="320" type="line"/>
      <point x="369" y="285"/>
      <point x="377" y="238"/>
      <point x="377" y="182" type="curve" smooth="yes"/>
      <point x="377" y="56"/>
      <point x="312" y="25"/>
      <point x="265" y="25" type="curve" smooth="yes"/>
      <point x="217" y="25"/>
      <point x="185" y="51"/>
      <point x="163" y="87" type="curve"/>
    </contour>
  </outline>
</glyph>
<glyph name="ugrave" format="1">
  <advance width="531"/>
  <unicode hex="00F9"/>
  <outline>
    <contour>
      <point x="217" y="-10" type="curve" smooth="yes"/>
      <point x="256" y="-10"/>
      <point x="303" y="10"/>
      <point x="352" y="50" type="curve" smooth="yes"/>
      <point x="357" y="54"/>
      <point x="366" y="56"/>
      <point x="367" y="49" type="curve" smooth="yes"/>
      <point x="370" y="24"/>
      <point x="378" y="-10"/>
      <point x="378" y="-10" type="curve"/>
      <point x="386" y="-13"/>
      <point x="391" y="-13"/>
      <point x="397" y="-10" type="curve"/>
      <point x="419" y="8"/>
      <point x="454" y="23"/>
      <point x="515" y="30" type="curve"/>
      <point x="521" y="36"/>
      <point x="521" y="51"/>
      <point x="515" y="57" type="curve"/>
      <point x="451" y="62"/>
      <point x="442" y="81"/>
      <point x="442" y="130" type="curve" smooth="yes"/>
      <point x="442" y="322" type="line" smooth="yes"/>
      <point x="442" y="352"/>
      <point x="446" y="425"/>
      <point x="446" y="425" type="curve"/>
      <point x="446" y="428"/>
      <point x="443" y="431"/>
      <point x="438" y="431" type="curve"/>
      <point x="433" y="430"/>
      <point x="418" y="429"/>
      <point x="403" y="429" type="curve" smooth="yes"/>
      <point x="371" y="429"/>
      <point x="335" y="430"/>
      <point x="301" y="431" type="curve"/>
      <point x="295" y="425"/>
      <point x="295" y="404"/>
      <point x="301" y="398" type="curve"/>
      <point x="350" y="395"/>
      <point x="363" y="383"/>
      <point x="363" y="317" type="curve" smooth="yes"/>
      <point x="363" y="124" type="line" smooth="yes"/>
      <point x="363" y="105"/>
      <point x="361" y="97"/>
      <point x="347" y="85" type="curve" smooth="yes"/>
      <point x="310" y="53"/>
      <point x="272" y="37"/>
      <point x="247" y="37" type="curve" smooth="yes"/>
      <point x="217" y="37"/>
      <point x="167" y="51"/>
      <point x="167" y="140" type="curve" smooth="yes"/>
      <point x="167" y="322" type="line" smooth="yes"/>
      <point x="167" y="352"/>
      <point x="171" y="425"/>
      <point x="171" y="425" type="curve"/>
      <point x="171" y="428"/>
      <point x="168" y="431"/>
      <point x="163" y="431" type="curve"/>
      <point x="158" y="430"/>
      <point x="143" y="429"/>
      <point x="128" y="429" type="curve" smooth="yes"/>
      <point x="96" y="429"/>
      <point x="60" y="430"/>
      <point x="26" y="431" type="curve"/>
      <point x="20" y="425"/>
      <point x="20" y="404"/>
      <point x="26" y="398" type="curve"/>
      <point x="74" y="394"/>
      <point x="88" y="383"/>
      <point x="88" y="318" type="curve" smooth="yes"/>
      <point x="88" y="126" type="line" smooth="yes"/>
      <point x="88" y="57"/>
      <point x="118" y="-10"/>
    </contour>
    <contour>
      <point x="219" y="671" type="line"/>
      <point x="215" y="672"/>
      <point x="209" y="673"/>
      <point x="204" y="673" type="curve" smooth="yes"/>
      <point x="170" y="673"/>
      <point x="147" y="656"/>
      <point x="139" y="650" type="curve"/>
      <point x="137" y="639" type="line"/>
      <point x="251" y="530" type="line" smooth="yes"/>
      <point x="267" y="515"/>
      <point x="274" y="510"/>
      <point x="280" y="510" type="curve" smooth="yes"/>
      <point x="288" y="510"/>
      <point x="295" y="516"/>
      <point x="295" y="521" type="curve" smooth="yes"/>
      <point x="295" y="528"/>
      <point x="294" y="535"/>
      <point x="289" y="545" type="curve" smooth="yes"/>
    </contour>
  </outline>
</glyph>
<glyph name="uacute" format="1">
  <advance width="531"/>
  <unicode hex="00FA"/>
  <outline>
    <contour>
      <point x="217" y="-10" type="curve" smooth="yes"/>
      <point x="256" y="-10"/>
      <point x="303" y="10"/>
      <point x="352" y="50" type="curve" smooth="yes"/>
      <point x="357" y="54"/>
      <point x="366" y="56"/>
      <point x="367" y="49" type="curve" smooth="yes"/>
      <point x="370" y="24"/>
      <point x="378" y="-10"/>
      <point x="378" y="-10" type="curve"/>
      <point x="386" y="-13"/>
      <point x="391" y="-13"/>
      <point x="397" y="-10" type="curve"/>
      <point x="419" y="8"/>
      <point x="454" y="23"/>
      <point x="515" y="30" type="curve"/>
      <point x="521" y="36"/>
      <point x="521" y="51"/>
      <point x="515" y="57" type="curve"/>
      <point x="451" y="62"/>
      <point x="442" y="81"/>
      <point x="442" y="130" type="curve" smooth="yes"/>
      <point x="442" y="322" type="line" smooth="yes"/>
      <point x="442" y="352"/>
      <point x="446" y="425"/>
      <point x="446" y="425" type="curve"/>
      <point x="446" y="428"/>
      <point x="443" y="431"/>
      <point x="438" y="431" type="curve"/>
      <point x="433" y="430"/>
      <point x="418" y="429"/>
      <point x="403" y="429" type="curve" smooth="yes"/>
      <point x="371" y="429"/>
      <point x="335" y="430"/>
      <point x="301" y="431" type="curve"/>
      <point x="295" y="425"/>
      <point x="295" y="404"/>
      <point x="301" y="398" type="curve"/>
      <point x="350" y="395"/>
      <point x="363" y="383"/>
      <point x="363" y="317" type="curve" smooth="yes"/>
      <point x="363" y="124" type="line" smooth="yes"/>
      <point x="363" y="105"/>
      <point x="361" y="97"/>
      <point x="347" y="85" type="curve" smooth="yes"/>
      <point x="310" y="53"/>
      <point x="272" y="37"/>
      <point x="247" y="37" type="curve" smooth="yes"/>
      <point x="217" y="37"/>
      <point x="167" y="51"/>
      <point x="167" y="140" type="curve" smooth="yes"/>
      <point x="167" y="322" type="line" smooth="yes"/>
      <point x="167" y="352"/>
      <point x="171" y="425"/>
      <point x="171" y="425" type="curve"/>
      <point x="171" y="428"/>
      <point x="168" y="431"/>
      <point x="163" y="431" type="curve"/>
      <point x="158" y="430"/>
      <point x="143" y="429"/>
      <point x="128" y="429" type="curve" smooth="yes"/>
      <point x="96" y="429"/>
      <point x="60" y="430"/>
      <point x="26" y="431" type="curve"/>
      <point x="20" y="425"/>
      <point x="20" y="404"/>
      <point x="26" y="398" type="curve"/>
      <point x="74" y="394"/>
      <point x="88" y="383"/>
      <point x="88" y="318" type="curve" smooth="yes"/>
      <point x="88" y="126" type="line" smooth="yes"/>
      <point x="88" y="57"/>
      <point x="118" y="-10"/>
    </contour>
    <contour>
      <point x="297" y="671" type="curve"/>
      <point x="221" y="552" type="line" smooth="yes"/>
      <point x="213" y="539"/>
      <point x="210" y="535"/>
      <point x="210" y="524" type="curve" smooth="yes"/>
      <point x="210" y="517"/>
      <point x="217" y="511"/>
      <point x="224" y="511" type="curve" smooth="yes"/>
      <point x="231" y="511"/>
      <point x="239" y="515"/>
      <point x="254" y="530" type="curve" smooth="yes"/>
      <point x="369" y="639" type="line"/>
      <point x="366" y="650" type="line"/>
      <point x="343" y="672"/>
      <point x="317" y="673"/>
      <point x="311" y="673" type="curve" smooth="yes"/>
      <point x="306" y="673"/>
      <point x="300" y="672"/>
    </contour>
  </outline>
</glyph>
<glyph name="ucircumflex" format="1">
  <advance width="531"/>
  <unicode hex="00FB"/>
  <outline>
    <contour>
      <point x="217" y="-10" type="curve" smooth="yes"/>
      <point x="256" y="-10"/>
      <point x="303" y="10"/>
      <point x="352" y="50" type="curve" smooth="yes"/>
      <point x="357" y="54"/>
      <point x="366" y="56"/>
      <point x="367" y="49" type="curve" smooth="yes"/>
      <point x="370" y="24"/>
      <point x="378" y="-10"/>
      <point x="378" y="-10" type="curve"/>
      <point x="386" y="-13"/>
      <point x="391" y="-13"/>
      <point x="397" y="-10" type="curve"/>
      <point x="419" y="8"/>
      <point x="454" y="23"/>
      <point x="515" y="30" type="curve"/>
      <point x="521" y="36"/>
      <point x="521" y="51"/>
      <point x="515" y="57" type="curve"/>
      <point x="451" y="62"/>
      <point x="442" y="81"/>
      <point x="442" y="130" type="curve" smooth="yes"/>
      <point x="442" y="322" type="line" smooth="yes"/>
      <point x="442" y="352"/>
      <point x="446" y="425"/>
      <point x="446" y="425" type="curve"/>
      <point x="446" y="428"/>
      <point x="443" y="431"/>
      <point x="438" y="431" type="curve"/>
      <point x="433" y="430"/>
      <point x="418" y="429"/>
      <point x="403" y="429" type="curve" smooth="yes"/>
      <point x="371" y="429"/>
      <point x="335" y="430"/>
      <point x="301" y="431" type="curve"/>
      <point x="295" y="425"/>
      <point x="295" y="404"/>
      <point x="301" y="398" type="curve"/>
      <point x="350" y="395"/>
      <point x="363" y="383"/>
      <point x="363" y="317" type="curve" smooth="yes"/>
      <point x="363" y="124" type="line" smooth="yes"/>
      <point x="363" y="105"/>
      <point x="361" y="97"/>
      <point x="347" y="85" type="curve" smooth="yes"/>
      <point x="310" y="53"/>
      <point x="272" y="37"/>
      <point x="247" y="37" type="curve" smooth="yes"/>
      <point x="217" y="37"/>
      <point x="167" y="51"/>
      <point x="167" y="140" type="curve" smooth="yes"/>
      <point x="167" y="322" type="line" smooth="yes"/>
      <point x="167" y="352"/>
      <point x="171" y="425"/>
      <point x="171" y="425" type="curve"/>
      <point x="171" y="428"/>
      <point x="168" y="431"/>
      <point x="163" y="431" type="curve"/>
      <point x="158" y="430"/>
      <point x="143" y="429"/>
      <point x="128" y="429" type="curve" smooth="yes"/>
      <point x="96" y="429"/>
      <point x="60" y="430"/>
      <point x="26" y="431" type="curve"/>
      <point x="20" y="425"/>
      <point x="20" y="404"/>
      <point x="26" y="398" type="curve"/>
      <point x="74" y="394"/>
      <point x="88" y="383"/>
      <point x="88" y="318" type="curve" smooth="yes"/>
      <point x="88" y="126" type="line" smooth="yes"/>
      <point x="88" y="57"/>
      <point x="118" y="-10"/>
    </contour>
    <contour>
      <point x="263" y="660" type="curve"/>
      <point x="252" y="663"/>
      <point x="242" y="662"/>
      <point x="231" y="660" type="curve"/>
      <point x="202" y="614"/>
      <point x="156" y="560"/>
      <point x="120" y="520" type="curve"/>
      <point x="126" y="511"/>
      <point x="133" y="505"/>
      <point x="142" y="503" type="curve"/>
      <point x="181" y="525"/>
      <point x="214" y="554"/>
      <point x="246" y="586" type="curve"/>
      <point x="276" y="555"/>
      <point x="311" y="527"/>
      <point x="349" y="503" type="curve"/>
      <point x="358" y="505"/>
      <point x="367" y="513"/>
      <point x="372" y="520" type="curve"/>
      <point x="336" y="560"/>
      <point x="292" y="613"/>
    </contour>
  </outline>
</glyph>
<glyph name="yacute" format="1">
  <advance width="515"/>
  <unicode hex="00FD"/>
  <outline>
    <contour>
      <point x="204" y="-160" type="curve" smooth="yes"/>
      <point x="220" y="-132"/>
      <point x="233" y="-104"/>
      <point x="245" y="-74" type="curve" smooth="yes"/>
      <point x="325" y="119"/>
      <point x="370" y="222"/>
      <point x="422" y="334" type="curve" smooth="yes"/>
      <point x="442" y="376"/>
      <point x="456" y="392"/>
      <point x="503" y="398" type="curve"/>
      <point x="509" y="404"/>
      <point x="509" y="425"/>
      <point x="503" y="431" type="curve"/>
      <point x="483" y="430"/>
      <point x="460" y="429"/>
      <point x="432" y="429" type="curve" smooth="yes"/>
      <point x="402" y="429"/>
      <point x="371" y="430"/>
      <point x="341" y="431" type="curve"/>
      <point x="335" y="425"/>
      <point x="335" y="404"/>
      <point x="341" y="398" type="curve"/>
      <point x="373" y="395"/>
      <point x="405" y="389"/>
      <point x="389" y="353" type="curve" smooth="yes"/>
      <point x="290" y="124" type="line" smooth="yes"/>
      <point x="283" y="108"/>
      <point x="274" y="105"/>
      <point x="266" y="125" type="curve" smooth="yes"/>
      <point x="177" y="333" type="line" smooth="yes"/>
      <point x="159" y="375"/>
      <point x="154" y="394"/>
      <point x="210" y="398" type="curve"/>
      <point x="216" y="404"/>
      <point x="216" y="425"/>
      <point x="210" y="431" type="curve"/>
      <point x="173" y="430"/>
      <point x="133" y="429"/>
      <point x="97" y="429" type="curve" smooth="yes"/>
      <point x="63" y="429"/>
      <point x="36" y="430"/>
      <point x="16" y="431" type="curve"/>
      <point x="10" y="425"/>
      <point x="10" y="404"/>
      <point x="16" y="398" type="curve"/>
      <point x="56" y="393"/>
      <point x="69" y="384"/>
      <point x="95" y="323" type="curve" smooth="yes"/>
      <point x="208" y="60" type="line" smooth="yes"/>
      <point x="217" y="40"/>
      <point x="232" y="-6"/>
      <point x="222" y="-34" type="curve" smooth="yes"/>
      <point x="210" y="-67"/>
      <point x="198" y="-95"/>
      <point x="183" y="-126" type="curve"/>
      <point x="172" y="-146"/>
      <point x="158" y="-155"/>
      <point x="133" y="-155" type="curve" smooth="yes"/>
      <point x="119" y="-155"/>
      <point x="115" y="-152"/>
      <point x="104" y="-152" type="curve" smooth="yes"/>
      <point x="75" y="-152"/>
      <point x="60" y="-182"/>
      <point x="60" y="-195" type="curve" smooth="yes"/>
      <point x="60" y="-216"/>
      <point x="80" y="-232"/>
      <point x="107" y="-232" type="curve" smooth="yes"/>
      <point x="128" y="-232"/>
      <point x="168" y="-224"/>
    </contour>
    <contour>
      <point x="315" y="671" type="curve"/>
      <point x="239" y="552" type="line" smooth="yes"/>
      <point x="231" y="539"/>
      <point x="228" y="535"/>
      <point x="228" y="524" type="curve" smooth="yes"/>
      <point x="228" y="517"/>
      <point x="235" y="511"/>
      <point x="242" y="511" type="curve" smooth="yes"/>
      <point x="249" y="511"/>
      <point x="257" y="515"/>
      <point x="272" y="530" type="curve" smooth="yes"/>
      <point x="387" y="639" type="line"/>
      <point x="384" y="650" type="line"/>
      <point x="361" y="672"/>
      <point x="335" y="673"/>
      <point x="329" y="673" type="curve" smooth="yes"/>
      <point x="324" y="673"/>
      <point x="318" y="672"/>
    </contour>
  </outline>
</glyph>
<glyph name="thorn" format="1">
  <advance width="502"/>
  <unicode hex="00FE"/>
  <outline>
    <contour>
      <point x="161" y="288" type="line" smooth="yes"/>
      <point x="161" y="358"/>
      <point x="236" y="393"/>
      <point x="269" y="393" type="curve" smooth="yes"/>
      <point x="294" y="393"/>
      <point x="312" y="384"/>
      <point x="327" y="369" type="curve" smooth="yes"/>
      <point x="370" y="326"/>
      <point x="379" y="268"/>
      <point x="379" y="208" type="curve" smooth="yes"/>
      <point x="379" y="121"/>
      <point x="354" y="24"/>
      <point x="248" y="24" type="curve" smooth="yes"/>
      <point x="234" y="24"/>
      <point x="206" y="25"/>
      <point x="178" y="50" type="curve" smooth="yes"/>
      <point x="166" y="60"/>
      <point x="161" y="66"/>
      <point x="161" y="98" type="curve" smooth="yes"/>
    </contour>
    <contour>
      <point x="84" y="559" type="curve" smooth="yes"/>
      <point x="84" y="-110" type="line" smooth="yes"/>
      <point x="84" y="-193"/>
      <point x="73" y="-198"/>
      <point x="12" y="-201" type="curve"/>
      <point x="6" y="-207"/>
      <point x="6" y="-228"/>
      <point x="12" y="-234" type="curve"/>
      <point x="54" y="-233"/>
      <point x="80" y="-232"/>
      <point x="124" y="-232" type="curve" smooth="yes"/>
      <point x="171" y="-232"/>
      <point x="202" y="-233"/>
      <point x="245" y="-234" type="curve"/>
      <point x="251" y="-228"/>
      <point x="251" y="-207"/>
      <point x="245" y="-201" type="curve"/>
      <point x="174" y="-197"/>
      <point x="163" y="-193"/>
      <point x="163" y="-110" type="curve" smooth="yes"/>
      <point x="163" y="-10" type="line" smooth="yes"/>
      <point x="163" y="18"/>
      <point x="171" y="7"/>
      <point x="182" y="3" type="curve" smooth="yes"/>
      <point x="203" y="-5"/>
      <point x="226" y="-10"/>
      <point x="253" y="-10" type="curve" smooth="yes"/>
      <point x="306" y="-10"/>
      <point x="354" y="9"/>
      <point x="393" y="48" type="curve" smooth="yes"/>
      <point x="438" y="93"/>
      <point x="465" y="154"/>
      <point x="465" y="235" type="curve" smooth="yes"/>
      <point x="465" y="340"/>
      <point x="392" y="439"/>
      <point x="295" y="439" type="curve" smooth="yes"/>
      <point x="244" y="439"/>
      <point x="205" y="411"/>
      <point x="180" y="385" type="curve" smooth="yes"/>
      <point x="165" y="370"/>
      <point x="163" y="370"/>
      <point x="163" y="392" type="curve" smooth="yes"/>
      <point x="163" y="583" type="line" smooth="yes"/>
      <point x="163" y="648"/>
      <point x="167" y="688"/>
      <point x="167" y="688" type="curve"/>
      <point x="167" y="695"/>
      <point x="163" y="698"/>
      <point x="154" y="698" type="curve"/>
      <point x="129" y="688"/>
      <point x="54" y="674"/>
      <point x="14" y="671" type="curve"/>
      <point x="12" y="663"/>
      <point x="14" y="647"/>
      <point x="20" y="641" type="curve"/>
      <point x="72" y="638"/>
      <point x="84" y="643"/>
    </contour>
  </outline>
</glyph>
<glyph name="ydieresis" format="1">
  <advance width="515"/>
  <unicode hex="00FF"/>
  <outline>
    <contour>
      <point x="204" y="-160" type="curve" smooth="yes"/>
      <point x="220" y="-132"/>
      <point x="233" y="-104"/>
      <point x="245" y="-74" type="curve" smooth="yes"/>
      <point x="325" y="119"/>
      <point x="370" y="222"/>
      <point x="422" y="334" type="curve" smooth="yes"/>
      <point x="442" y="376"/>
      <point x="456" y="392"/>
      <point x="503" y="398" type="curve"/>
      <point x="509" y="404"/>
      <point x="509" y="425"/>
      <point x="503" y="431" type="curve"/>
      <point x="483" y="430"/>
      <point x="460" y="429"/>
      <point x="432" y="429" type="curve" smooth="yes"/>
      <point x="402" y="429"/>
      <point x="371" y="430"/>
      <point x="341" y="431" type="curve"/>
      <point x="335" y="425"/>
      <point x="335" y="404"/>
      <point x="341" y="398" type="curve"/>
      <point x="373" y="395"/>
      <point x="405" y="389"/>
      <point x="389" y="353" type="curve" smooth="yes"/>
      <point x="290" y="124" type="line" smooth="yes"/>
      <point x="283" y="108"/>
      <point x="274" y="105"/>
      <point x="266" y="125" type="curve" smooth="yes"/>
      <point x="177" y="333" type="line" smooth="yes"/>
      <point x="159" y="375"/>
      <point x="154" y="394"/>
      <point x="210" y="398" type="curve"/>
      <point x="216" y="404"/>
      <point x="216" y="425"/>
      <point x="210" y="431" type="curve"/>
      <point x="173" y="430"/>
      <point x="133" y="429"/>
      <point x="97" y="429" type="curve" smooth="yes"/>
      <point x="63" y="429"/>
      <point x="36" y="430"/>
      <point x="16" y="431" type="curve"/>
      <point x="10" y="425"/>
      <point x="10" y="404"/>
      <point x="16" y="398" type="curve"/>
      <point x="56" y="393"/>
      <point x="69" y="384"/>
      <point x="95" y="323" type="curve" smooth="yes"/>
      <point x="208" y="60" type="line" smooth="yes"/>
      <point x="217" y="40"/>
      <point x="232" y="-6"/>
      <point x="222" y="-34" type="curve" smooth="yes"/>
      <point x="210" y="-67"/>
      <point x="198" y="-95"/>
      <point x="183" y="-126" type="curve"/>
      <point x="172" y="-146"/>
      <point x="158" y="-155"/>
      <point x="133" y="-155" type="curve" smooth="yes"/>
      <point x="119" y="-155"/>
      <point x="115" y="-152"/>
      <point x="104" y="-152" type="curve" smooth="yes"/>
      <point x="75" y="-152"/>
      <point x="60" y="-182"/>
      <point x="60" y="-195" type="curve" smooth="yes"/>
      <point x="60" y="-216"/>
      <point x="80" y="-232"/>
      <point x="107" y="-232" type="curve" smooth="yes"/>
      <point x="128" y="-232"/>
      <point x="168" y="-224"/>
    </contour>
    <contour>
      <point x="140" y="575" type="curve" smooth="yes"/>
      <point x="140" y="549"/>
      <point x="161" y="528"/>
      <point x="187" y="528" type="curve" smooth="yes"/>
      <point x="213" y="528"/>
      <point x="234" y="549"/>
      <point x="234" y="575" type="curve" smooth="yes"/>
      <point x="234" y="601"/>
      <point x="213" y="623"/>
      <point x="187" y="623" type="curve" smooth="yes"/>
      <point x="161" y="623"/>
      <point x="140" y="601"/>
    </contour>
    <contour>
      <point x="309" y="575" type="curve" smooth="yes"/>
      <point x="309" y="549"/>
      <point x="330" y="528"/>
      <point x="356" y="528" type="curve" smooth="yes"/>
      <point x="382" y="528"/>
      <point x="403" y="549"/>
      <point x="403" y="575" type="curve" smooth="yes"/>
      <point x="403" y="601"/>
      <point x="382" y="623"/>
      <point x="356" y="623" type="curve" smooth="yes"/>
      <point x="330" y="623"/>
      <point x="309" y="601"/>
    </contour>
  </outline>
</glyph>
<glyph name="Aogonek" format="1">
  <advance width="695"/>
  <unicode hex="0104"/>
  <outline>
    <contour>
      <point x="701" y="-135" type="curve"/>
      <point x="697" y="-128"/>
      <point x="691" y="-124"/>
      <point x="682" y="-124" type="curve"/>
      <point x="660" y="-146"/>
      <point x="644" y="-162"/>
      <point x="615" y="-162" type="curve" smooth="yes"/>
      <point x="578" y="-162"/>
      <point x="565" y="-141"/>
      <point x="565" y="-115" type="curve" smooth="yes"/>
      <point x="565" y="-69"/>
      <point x="614" y="-2"/>
      <point x="685" y="-2" type="curve"/>
      <point x="691" y="4"/>
      <point x="691" y="25"/>
      <point x="685" y="31" type="curve"/>
      <point x="646" y="35"/>
      <point x="612" y="38"/>
      <point x="595" y="86" type="curve" smooth="yes"/>
      <point x="389" y="658" type="line"/>
      <point x="374" y="649"/>
      <point x="347" y="638"/>
      <point x="334" y="638" type="curve"/>
      <point x="107" y="102" type="line" smooth="yes"/>
      <point x="81" y="40"/>
      <point x="51" y="34"/>
      <point x="7" y="31" type="curve"/>
      <point x="1" y="25"/>
      <point x="1" y="4"/>
      <point x="7" y="-2" type="curve"/>
      <point x="33" y="-1"/>
      <point x="66" y="0"/>
      <point x="96" y="0" type="curve" smooth="yes"/>
      <point x="137" y="0"/>
      <point x="187" y="-1"/>
      <point x="224" y="-2" type="curve"/>
      <point x="230" y="4"/>
      <point x="230" y="25"/>
      <point x="224" y="31" type="curve"/>
      <point x="186" y="34"/>
      <point x="139" y="38"/>
      <point x="155" y="79" type="curve" smooth="yes"/>
      <point x="210" y="224" type="line" smooth="yes"/>
      <point x="215" y="237"/>
      <point x="221" y="241"/>
      <point x="245" y="241" type="curve" smooth="yes"/>
      <point x="456" y="241" type="line"/>
      <point x="514" y="72" type="line" smooth="yes"/>
      <point x="526" y="37"/>
      <point x="488" y="34"/>
      <point x="440" y="31" type="curve"/>
      <point x="434" y="25"/>
      <point x="434" y="4"/>
      <point x="440" y="-2" type="curve"/>
      <point x="477" y="-1"/>
      <point x="532" y="0"/>
      <point x="571" y="0" type="curve" smooth="yes"/>
      <point x="581" y="0"/>
      <point x="590" y="0"/>
      <point x="599" y="0" type="curve"/>
      <point x="539" y="-27"/>
      <point x="503" y="-85"/>
      <point x="503" y="-126" type="curve" smooth="yes"/>
      <point x="503" y="-180"/>
      <point x="541" y="-200"/>
      <point x="591" y="-200" type="curve" smooth="yes"/>
      <point x="632" y="-200"/>
      <point x="672" y="-180"/>
    </contour>
    <contour>
      <point x="263" y="283" type="line" smooth="yes"/>
      <point x="241" y="283"/>
      <point x="234" y="286"/>
      <point x="238" y="296" type="curve" smooth="yes"/>
      <point x="340" y="555" type="line"/>
      <point x="346" y="555" type="line"/>
      <point x="440" y="283" type="line"/>
    </contour>
  </outline>
</glyph>
<glyph name="Ccircumflex" format="1">
  <advance width="646"/>
  <unicode hex="0108"/>
  <outline>
    <contour>
      <point x="357" y="-10" type="curve" smooth="yes"/>
      <point x="454" y="-10"/>
      <point x="543" y="36"/>
      <point x="611" y="125" type="curve"/>
      <point x="606" y="134"/>
      <point x="599" y="140"/>
      <point x="588" y="140" type="curve"/>
      <point x="517" y="62"/>
      <point x="449" y="31"/>
      <point x="356" y="31" type="curve" smooth="yes"/>
      <point x="221" y="31"/>
      <point x="128" y="183"/>
      <point x="128" y="329" type="curve" smooth="yes"/>
      <point x="128" y="415"/>
      <point x="151" y="487"/>
      <point x="187" y="532" type="curve" smooth="yes"/>
      <point x="237" y="593"/>
      <point x="295" y="621"/>
      <point x="347" y="621" type="curve" smooth="yes"/>
      <point x="485" y="621"/>
      <point x="540" y="539"/>
      <point x="566" y="453" type="curve"/>
      <point x="578" y="449"/>
      <point x="588" y="452"/>
      <point x="599" y="458" type="curve"/>
      <point x="594" y="510"/>
      <point x="587" y="558"/>
      <point x="577" y="613" type="curve"/>
      <point x="526" y="618"/>
      <point x="481" y="658"/>
      <point x="358" y="658" type="curve" smooth="yes"/>
      <point x="273" y="658"/>
      <point x="202" y="627"/>
      <point x="143" y="573" type="curve" smooth="yes"/>
      <point x="77" y="512"/>
      <point x="37" y="414"/>
      <point x="37" y="310" type="curve" smooth="yes"/>
      <point x="37" y="136"/>
      <point x="142" y="-10"/>
    </contour>
    <contour>
      <point x="376" y="809" type="curve"/>
      <point x="361" y="817"/>
      <point x="351" y="817"/>
      <point x="337" y="809" type="curve"/>
      <point x="306" y="775"/>
      <point x="273" y="740"/>
      <point x="236" y="712" type="curve"/>
      <point x="238" y="703"/>
      <point x="241" y="697"/>
      <point x="250" y="691" type="curve"/>
      <point x="288" y="708"/>
      <point x="320" y="725"/>
      <point x="357" y="752" type="curve"/>
      <point x="390" y="727"/>
      <point x="424" y="709"/>
      <point x="463" y="691" type="curve"/>
      <point x="472" y="695"/>
      <point x="476" y="703"/>
      <point x="479" y="712" type="curve"/>
      <point x="443" y="739"/>
      <point x="406" y="773"/>
    </contour>
  </outline>
</glyph>
<glyph name="ccircumflex" format="1">
  <advance width="428"/>
  <unicode hex="0109"/>
  <outline>
    <contour>
      <point x="398" y="91" type="curve"/>
      <point x="394" y="100"/>
      <point x="386" y="104"/>
      <point x="377" y="105" type="curve"/>
      <point x="343" y="61"/>
      <point x="300" y="39"/>
      <point x="257" y="39" type="curve" smooth="yes"/>
      <point x="184" y="39"/>
      <point x="123" y="113"/>
      <point x="123" y="230" type="curve" smooth="yes"/>
      <point x="123" y="340"/>
      <point x="171" y="406"/>
      <point x="237" y="406" type="curve" smooth="yes"/>
      <point x="296" y="406"/>
      <point x="304" y="371"/>
      <point x="308" y="336" type="curve" smooth="yes"/>
      <point x="311" y="309"/>
      <point x="325" y="300"/>
      <point x="346" y="300" type="curve" smooth="yes"/>
      <point x="367" y="300"/>
      <point x="395" y="313"/>
      <point x="395" y="344" type="curve" smooth="yes"/>
      <point x="395" y="399"/>
      <point x="338" y="439"/>
      <point x="242" y="439" type="curve" smooth="yes"/>
      <point x="143" y="439"/>
      <point x="37" y="350"/>
      <point x="37" y="208" type="curve" smooth="yes"/>
      <point x="37" y="79"/>
      <point x="109" y="-10"/>
      <point x="235" y="-10" type="curve" smooth="yes"/>
      <point x="295" y="-10"/>
      <point x="348" y="9"/>
    </contour>
    <contour>
      <point x="239" y="660" type="curve"/>
      <point x="228" y="663"/>
      <point x="218" y="662"/>
      <point x="207" y="660" type="curve"/>
      <point x="178" y="614"/>
      <point x="132" y="560"/>
      <point x="96" y="520" type="curve"/>
      <point x="102" y="511"/>
      <point x="109" y="505"/>
      <point x="118" y="503" type="curve"/>
      <point x="157" y="525"/>
      <point x="190" y="554"/>
      <point x="222" y="586" type="curve"/>
      <point x="252" y="555"/>
      <point x="287" y="527"/>
      <point x="325" y="503" type="curve"/>
      <point x="334" y="505"/>
      <point x="343" y="513"/>
      <point x="348" y="520" type="curve"/>
      <point x="312" y="560"/>
      <point x="268" y="613"/>
    </contour>
  </outline>
</glyph>
<glyph name="cdotaccent" format="1">
  <advance width="428"/>
  <unicode hex="010B"/>
  <outline>
    <contour>
      <point x="398" y="91" type="curve"/>
      <point x="394" y="100"/>
      <point x="386" y="104"/>
      <point x="377" y="105" type="curve"/>
      <point x="343" y="61"/>
      <point x="300" y="39"/>
      <point x="257" y="39" type="curve" smooth="yes"/>
      <point x="184" y="39"/>
      <point x="123" y="113"/>
      <point x="123" y="230" type="curve" smooth="yes"/>
      <point x="123" y="340"/>
      <point x="171" y="406"/>
      <point x="237" y="406" type="curve" smooth="yes"/>
      <point x="296" y="406"/>
      <point x="304" y="371"/>
      <point x="308" y="336" type="curve" smooth="yes"/>
      <point x="311" y="309"/>
      <point x="325" y="300"/>
      <point x="346" y="300" type="curve" smooth="yes"/>
      <point x="367" y="300"/>
      <point x="395" y="313"/>
      <point x="395" y="344" type="curve" smooth="yes"/>
      <point x="395" y="399"/>
      <point x="338" y="439"/>
      <point x="242" y="439" type="curve" smooth="yes"/>
      <point x="143" y="439"/>
      <point x="37" y="350"/>
      <point x="37" y="208" type="curve" smooth="yes"/>
      <point x="37" y="79"/>
      <point x="109" y="-10"/>
      <point x="235" y="-10" type="curve" smooth="yes"/>
      <point x="295" y="-10"/>
      <point x="348" y="9"/>
    </contour>
    <contour>
      <point x="179" y="600" type="curve" smooth="yes"/>
      <point x="179" y="574"/>
      <point x="203" y="548"/>
      <point x="227" y="548" type="curve" smooth="yes"/>
      <point x="255" y="548"/>
      <point x="279" y="575"/>
      <point x="279" y="596" type="curve" smooth="yes"/>
      <point x="279" y="620"/>
      <point x="258" y="648"/>
      <point x="231" y="648" type="curve" smooth="yes"/>
      <point x="207" y="648"/>
      <point x="179" y="624"/>
    </contour>
  </outline>
</glyph>
<glyph name="Ccaron" format="1">
  <advance width="646"/>
  <unicode hex="010C"/>
  <outline>
    <contour>
      <point x="357" y="-10" type="curve" smooth="yes"/>
      <point x="454" y="-10"/>
      <point x="543" y="36"/>
      <point x="611" y="125" type="curve"/>
      <point x="606" y="134"/>
      <point x="599" y="140"/>
      <point x="588" y="140" type="curve"/>
      <point x="517" y="62"/>
      <point x="449" y="31"/>
      <point x="356" y="31" type="curve" smooth="yes"/>
      <point x="221" y="31"/>
      <point x="128" y="183"/>
      <point x="128" y="329" type="curve" smooth="yes"/>
      <point x="128" y="415"/>
      <point x="151" y="487"/>
      <point x="187" y="532" type="curve" smooth="yes"/>
      <point x="237" y="593"/>
      <point x="295" y="621"/>
      <point x="347" y="621" type="curve" smooth="yes"/>
      <point x="485" y="621"/>
      <point x="540" y="539"/>
      <point x="566" y="453" type="curve"/>
      <point x="578" y="449"/>
      <point x="588" y="452"/>
      <point x="599" y="458" type="curve"/>
      <point x="594" y="510"/>
      <point x="587" y="558"/>
      <point x="577" y="613" type="curve"/>
      <point x="526" y="618"/>
      <point x="481" y="658"/>
      <point x="358" y="658" type="curve" smooth="yes"/>
      <point x="273" y="658"/>
      <point x="202" y="627"/>
      <point x="143" y="573" type="curve" smooth="yes"/>
      <point x="77" y="512"/>
      <point x="37" y="414"/>
      <point x="37" y="310" type="curve" smooth="yes"/>
      <point x="37" y="136"/>
      <point x="142" y="-10"/>
    </contour>
    <contour>
      <point x="333" y="697" type="curve"/>
      <point x="376" y="697" type="line"/>
      <point x="406" y="731"/>
      <point x="438" y="763"/>
      <point x="476" y="792" type="curve"/>
      <point x="461" y="812" type="line"/>
      <point x="423" y="796"/>
      <point x="391" y="777"/>
      <point x="354" y="751" type="curve"/>
      <point x="321" y="776"/>
      <point x="287" y="795"/>
      <point x="248" y="812" type="curve"/>
      <point x="232" y="792" type="line"/>
      <point x="268" y="764"/>
      <point x="303" y="734"/>
    </contour>
  </outline>
</glyph>
<glyph name="Dcaron" format="1">
  <advance width="701"/>
  <unicode hex="010E"/>
  <outline>
    <contour>
      <point x="191" y="84" type="curve" smooth="yes"/>
      <point x="191" y="564" type="line" smooth="yes"/>
      <point x="191" y="599"/>
      <point x="226" y="613"/>
      <point x="275" y="613" type="curve" smooth="yes"/>
      <point x="491" y="613"/>
      <point x="562" y="438"/>
      <point x="562" y="284" type="curve" smooth="yes"/>
      <point x="562" y="82"/>
      <point x="441" y="32"/>
      <point x="300" y="32" type="curve" smooth="yes"/>
      <point x="202" y="32"/>
      <point x="191" y="52"/>
    </contour>
    <contour>
      <point x="148" y="645" type="curve" smooth="yes"/>
      <point x="112" y="645"/>
      <point x="59" y="646"/>
      <point x="19" y="647" type="curve"/>
      <point x="13" y="641"/>
      <point x="13" y="620"/>
      <point x="19" y="614" type="curve"/>
      <point x="89" y="611"/>
      <point x="106" y="606"/>
      <point x="106" y="523" type="curve" smooth="yes"/>
      <point x="106" y="122" type="line" smooth="yes"/>
      <point x="106" y="39"/>
      <point x="89" y="34"/>
      <point x="19" y="31" type="curve"/>
      <point x="13" y="25"/>
      <point x="13" y="4"/>
      <point x="19" y="-2" type="curve"/>
      <point x="58" y="-1"/>
      <point x="111" y="0"/>
      <point x="149" y="0" type="curve" smooth="yes"/>
      <point x="186" y="0"/>
      <point x="228" y="-2"/>
      <point x="331" y="-2" type="curve" smooth="yes"/>
      <point x="472" y="-2"/>
      <point x="658" y="62"/>
      <point x="658" y="308" type="curve" smooth="yes"/>
      <point x="658" y="494"/>
      <point x="505" y="647"/>
      <point x="313" y="647" type="curve" smooth="yes"/>
      <point x="242" y="647"/>
      <point x="187" y="645"/>
    </contour>
    <contour>
      <point x="291" y="697" type="curve"/>
      <point x="334" y="697" type="line"/>
      <point x="364" y="731"/>
      <point x="396" y="763"/>
      <point x="434" y="792" type="curve"/>
      <point x="419" y="812" type="line"/>
      <point x="381" y="796"/>
      <point x="349" y="777"/>
      <point x="312" y="751" type="curve"/>
      <point x="279" y="776"/>
      <point x="245" y="795"/>
      <point x="206" y="812" type="curve"/>
      <point x="190" y="792" type="line"/>
      <point x="226" y="764"/>
      <point x="261" y="734"/>
    </contour>
  </outline>
</glyph>
<glyph name="dcaron" format="1">
  <advance width="528"/>
  <unicode hex="010F"/>
  <outline>
    <contour>
      <point x="345" y="124" type="line" smooth="yes"/>
      <point x="345" y="105"/>
      <point x="343" y="97"/>
      <point x="329" y="85" type="curve" smooth="yes"/>
      <point x="292" y="53"/>
      <point x="260" y="37"/>
      <point x="235" y="37" type="curve" smooth="yes"/>
      <point x="181" y="37"/>
      <point x="125" y="96"/>
      <point x="125" y="221" type="curve" smooth="yes"/>
      <point x="125" y="293"/>
      <point x="139" y="333"/>
      <point x="154" y="354" type="curve" smooth="yes"/>
      <point x="185" y="401"/>
      <point x="227" y="404"/>
      <point x="247" y="404" type="curve" smooth="yes"/>
      <point x="283" y="404"/>
      <point x="308" y="391"/>
      <point x="328" y="368" type="curve" smooth="yes"/>
      <point x="342" y="352"/>
      <point x="345" y="345"/>
      <point x="345" y="314" type="curve" smooth="yes"/>
    </contour>
    <contour>
      <point x="334" y="50" type="curve" smooth="yes"/>
      <point x="339" y="54"/>
      <point x="348" y="56"/>
      <point x="349" y="49" type="curve" smooth="yes"/>
      <point x="352" y="24"/>
      <point x="360" y="-10"/>
      <point x="360" y="-10" type="curve"/>
      <point x="368" y="-13"/>
      <point x="373" y="-13"/>
      <point x="379" y="-10" type="curve"/>
      <point x="401" y="8"/>
      <point x="436" y="23"/>
      <point x="497" y="30" type="curve"/>
      <point x="503" y="36"/>
      <point x="503" y="51"/>
      <point x="497" y="57" type="curve"/>
      <point x="433" y="62"/>
      <point x="424" y="81"/>
      <point x="424" y="130" type="curve" smooth="yes"/>
      <point x="424" y="583" type="line" smooth="yes"/>
      <point x="424" y="648"/>
      <point x="428" y="688"/>
      <point x="428" y="688" type="curve"/>
      <point x="428" y="695"/>
      <point x="424" y="698"/>
      <point x="415" y="698" type="curve"/>
      <point x="390" y="688"/>
      <point x="315" y="674"/>
      <point x="275" y="671" type="curve"/>
      <point x="273" y="663"/>
      <point x="275" y="647"/>
      <point x="281" y="641" type="curve"/>
      <point x="333" y="638"/>
      <point x="345" y="643"/>
      <point x="345" y="559" type="curve" smooth="yes"/>
      <point x="345" y="431" type="line" smooth="yes"/>
      <point x="345" y="424"/>
      <point x="343" y="422"/>
      <point x="336" y="422" type="curve" smooth="yes"/>
      <point x="332" y="422"/>
      <point x="291" y="439"/>
      <point x="258" y="439" type="curve" smooth="yes"/>
      <point x="192" y="439"/>
      <point x="148" y="417"/>
      <point x="108" y="379" type="curve" smooth="yes"/>
      <point x="65" y="336"/>
      <point x="39" y="277"/>
      <point x="39" y="203" type="curve" smooth="yes"/>
      <point x="39" y="80"/>
      <point x="101" y="-10"/>
      <point x="209" y="-10" type="curve" smooth="yes"/>
      <point x="248" y="-10"/>
      <point x="285" y="10"/>
    </contour>
    <contour>
      <point x="503" y="698" type="curve" smooth="yes"/>
      <point x="473" y="698"/>
      <point x="459" y="680"/>
      <point x="459" y="664" type="curve" smooth="yes"/>
      <point x="459" y="648"/>
      <point x="464" y="626"/>
      <point x="505" y="626" type="curve" smooth="yes"/>
      <point x="513" y="626"/>
      <point x="519" y="618"/>
      <point x="519" y="605" type="curve" smooth="yes"/>
      <point x="519" y="582"/>
      <point x="498" y="545"/>
      <point x="456" y="536" type="curve"/>
      <point x="461" y="519" type="line"/>
      <point x="531" y="527"/>
      <point x="563" y="589"/>
      <point x="563" y="625" type="curve" smooth="yes"/>
      <point x="563" y="661"/>
      <point x="541" y="698"/>
    </contour>
  </outline>
</glyph>
<glyph name="dcroat" format="1">
  <advance width="506"/>
  <unicode hex="0111"/>
  <outline>
    <contour>
      <point x="345" y="124" type="line" smooth="yes"/>
      <point x="345" y="105"/>
      <point x="343" y="97"/>
      <point x="329" y="85" type="curve" smooth="yes"/>
      <point x="292" y="53"/>
      <point x="260" y="37"/>
      <point x="235" y="37" type="curve" smooth="yes"/>
      <point x="181" y="37"/>
      <point x="125" y="96"/>
      <point x="125" y="221" type="curve" smooth="yes"/>
      <point x="125" y="293"/>
      <point x="139" y="333"/>
      <point x="154" y="354" type="curve" smooth="yes"/>
      <point x="185" y="401"/>
      <point x="227" y="404"/>
      <point x="247" y="404" type="curve" smooth="yes"/>
      <point x="283" y="404"/>
      <point x="308" y="391"/>
      <point x="328" y="368" type="curve" smooth="yes"/>
      <point x="342" y="352"/>
      <point x="345" y="345"/>
      <point x="345" y="314" type="curve" smooth="yes"/>
    </contour>
    <contour>
      <point x="334" y="50" type="curve" smooth="yes"/>
      <point x="339" y="54"/>
      <point x="348" y="56"/>
      <point x="349" y="49" type="curve" smooth="yes"/>
      <point x="352" y="25"/>
      <point x="360" y="-10"/>
      <point x="360" y="-10" type="curve"/>
      <point x="368" y="-13"/>
      <point x="373" y="-12"/>
      <point x="379" y="-10" type="curve"/>
      <point x="401" y="8"/>
      <point x="436" y="23"/>
      <point x="497" y="30" type="curve"/>
      <point x="503" y="36"/>
      <point x="503" y="51"/>
      <point x="497" y="57" type="curve"/>
      <point x="433" y="62"/>
      <point x="424" y="81"/>
      <point x="424" y="130" type="curve" smooth="yes"/>
      <point x="424" y="533" type="line"/>
      <point x="473" y="533" type="line"/>
      <point x="485" y="535"/>
      <point x="496" y="551"/>
      <point x="496" y="560" type="curve" smooth="yes"/>
      <point x="496" y="565"/>
      <point x="492" y="572"/>
      <point x="483" y="573" type="curve"/>
      <point x="424" y="573" type="line"/>
      <point x="424" y="583" type="line" smooth="yes"/>
      <point x="424" y="648"/>
      <point x="428" y="688"/>
      <point x="428" y="688" type="curve"/>
      <point x="428" y="695"/>
      <point x="424" y="698"/>
      <point x="415" y="698" type="curve"/>
      <point x="390" y="688"/>
      <point x="315" y="674"/>
      <point x="275" y="671" type="curve"/>
      <point x="273" y="663"/>
      <point x="275" y="647"/>
      <point x="281" y="641" type="curve"/>
      <point x="330" y="638"/>
      <point x="344" y="642"/>
      <point x="345" y="573" type="curve"/>
      <point x="206" y="573" type="line"/>
      <point x="194" y="571"/>
      <point x="185" y="556"/>
      <point x="185" y="546" type="curve" smooth="yes"/>
      <point x="185" y="541"/>
      <point x="188" y="535"/>
      <point x="197" y="533" type="curve"/>
      <point x="345" y="533" type="line"/>
      <point x="345" y="431" type="line" smooth="yes"/>
      <point x="345" y="424"/>
      <point x="343" y="422"/>
      <point x="336" y="422" type="curve" smooth="yes"/>
      <point x="332" y="422"/>
      <point x="291" y="439"/>
      <point x="258" y="439" type="curve" smooth="yes"/>
      <point x="192" y="439"/>
      <point x="148" y="417"/>
      <point x="108" y="379" type="curve" smooth="yes"/>
      <point x="65" y="336"/>
      <point x="39" y="277"/>
      <point x="39" y="203" type="curve" smooth="yes"/>
      <point x="39" y="80"/>
      <point x="101" y="-10"/>
      <point x="209" y="-10" type="curve" smooth="yes"/>
      <point x="248" y="-10"/>
      <point x="285" y="10"/>
    </contour>
  </outline>
</glyph>
